<svg xmlns="http://www.w3.org/2000/svg" width="203.362" height="218.936" viewBox="0 0 203.362 218.936">
  <g id="그룹_16235" data-name="그룹 16235" transform="translate(-226.638 -337.624)">
    <path id="패스_1749" data-name="패스 1749" d="M1169.117,454.29c-.066.424,1.364,1.2,1.485,1.3a9.462,9.462,0,0,0,4.444,1.86c5.879,1.176,14.37.648,18.891-3.873,1.984-1.985,1.229-4.548,2.028-7.142.9-2.915,2.006-5.772,2.969-8.661,1.165-3.495,3.068-6.887,3.959-10.454a21.656,21.656,0,0,1,1.238-3.032s1.107-2.6,1.71-3.809a8.614,8.614,0,0,0,1.126-3.631c-.118-.907-.754-3.159-1.682-3.53-1.629-.652-1.863-.915-2.145-2.886-.885-6.193-3.313-11.553-6-17.2-2.113-4.438-4.921-8.943-9.218-11.568a20.862,20.862,0,0,0-7.3-2.351,16.214,16.214,0,0,0-6.62.495,19.009,19.009,0,0,0-4.7,2.227,22.323,22.323,0,0,0-6.991,6.5,18.133,18.133,0,0,0-1.484,3.155c-2.283,5.219-2.852,11.026-5.073,16.208-.332.774-1.677,3.363-1.677,3.363a6.77,6.77,0,0,0-2.155,1.151c-1.406,1.405-1.641,3.728-1.3,5.756,1.115,6.691,8.643,8.981,11.939,14.475.766,1.276.441,2.667.247,4.022a20.046,20.046,0,0,0-.433,5.2,20.5,20.5,0,0,0,4.082,9.279,9.268,9.268,0,0,0,2.1,2.289C1168.859,453.638,1169.179,453.895,1169.117,454.29Z" transform="translate(-852.063 -13.894)" fill="#ffedde" fill-rule="evenodd"/>
    <path id="패스_1750" data-name="패스 1750" d="M1319.934,744.836c-.228,1.2,1.513,3.388,2.3,4.178,1.687,1.687,3.967.881,5.984.208,1.982-.66,3.567-1.041,4.444-3.234a5.806,5.806,0,0,0-.329-4.671,18.087,18.087,0,0,0-1.875-3.455c-1.385-1.732-5.154-1.293-6.874-.261C1321.011,739.147,1320.3,742.928,1319.934,744.836Z" transform="translate(-999.123 -324.219)" fill="#ffb1ac" fill-rule="evenodd"/>
    <path id="패스_1751" data-name="패스 1751" d="M1152.531,329.1s-1.483-4.649-1.967-6.1a28.208,28.208,0,0,1-.984-6.427c-.635-6.362-.346-12.907,2.344-18.827,1.707-3.755,5.466-7.5,9.661-8.343,2.112-.422,4.083-.06,6.144-.575,2.754-.688,5.752-3.911,8.587-4.383a23.27,23.27,0,0,1,12.934,2.192c1.937,1.076,3.848,2.165,5.749,3.305a28.381,28.381,0,0,1,9.844,9.234,15.773,15.773,0,0,1,2.654,8.193c.166,3.641-.625,7.768-1.432,12.609-.316,1.9-1.473,6.719-1.653,7.653s-.339,2.8-1,2.929a4.147,4.147,0,0,1-2.344-.45c-.521-.521-.842-2.4-1.006-3.054a42.26,42.26,0,0,0-1.833-6.216c-.625-1.562-1.5-2.127-2.757-3.134a32.736,32.736,0,0,1-4.249-3.621c-2.6-3.254-4.24-7.174-6.359-10.707a4.93,4.93,0,0,0-4.815-2.155c-1.574.393-4.01,1.774-5.642,2.1-3.118.624-8.319-.68-10.062,2.806a30.775,30.775,0,0,0-2.443,8.324c-.576,2.882-2.343,4.534-3.252,7.258-.712,2.139-.351,8.407-3.823,7.713C1154.266,329.311,1152.531,329.1,1152.531,329.1Z" transform="translate(-851.033 68.493)" fill="#dea673" fill-rule="evenodd"/>
    <path id="패스_1752" data-name="패스 1752" d="M1321.286,781.656c.337-1.534,3.277.73,5.551.775,2.151.042,4.952-1.083,6.552,2.167.292.592-2.513,2.807-3.253,3.177a13.72,13.72,0,0,1-2.783.95c-2.323.387-5-1.407-6.132-3.845A5.192,5.192,0,0,1,1321.286,781.656Z" transform="translate(-1000.048 -362.783)" fill="#e58e88" fill-rule="evenodd"/>
    <path id="패스_1753" data-name="패스 1753" d="M1171.374,1067.96h51.292c-.24-1.308-.512-2.806-.645-3.578a155.485,155.485,0,0,1-2.088-16.207c-.952-12.378-.8-24.438-2.035-36.772a66.748,66.748,0,0,0-1.373-9.7c-.647-2.291-1.883-8.28-2.711-11.315a67.522,67.522,0,0,1-2.178-9.742,38.344,38.344,0,0,1-.21-9.406c.4-2.829.945-10.809.945-10.809s-2.426-2.726-2.74-3.984c-.129-.519-1.247-2.922-1.247-2.922s-2.667.972-3.735,1.239a27.85,27.85,0,0,1-7.222.849,30.018,30.018,0,0,1-6.687-1.349,23.3,23.3,0,0,1-3.787-1.921,23.414,23.414,0,0,1-1.219,2.956c-.572,1.034-2.77,4.71-2.77,4.71s.4,3.278.48,4.1a46.13,46.13,0,0,1-.369,10.51c-.905,6.336-1.515,12.323-2.311,18.691-.515,4.118.458,8.458-.129,12.564a155.11,155.11,0,0,1-4.487,20.769c-1.085,3.8-2.522,7.781-3.077,11.666-.731,5.115-1.2,10.3-1.922,15.385a61.758,61.758,0,0,0-.256,8.59C1170.891,1063.093,1171.167,1065.943,1171.374,1067.96Z" transform="translate(-869.755 -511.4)" fill="#fff" fill-rule="evenodd"/>
    <path id="패스_1754" data-name="패스 1754" d="M656.317,963.856s.856,5.692.934,8.058a138.148,138.148,0,0,1-1.029,18.153c-.26,2.34-.727,7.718-.664,9.648.038,1.168.053,2.588.059,3.53h30.07c-.076-1.732-.2-4.413-.329-7.072a113.928,113.928,0,0,1,1.74-20.563c1.813-9.065,2.7-9.661,4.492-16.682.4-1.558,2.167-10.295,2.366-11.892.427-3.415.988-7.92,1.143-13.323.124-4.271.317-9.172.453-10.419.252-2.32.493-6.224,1.265-10.094.446-2.239.724-5.4.946-6.734a40.826,40.826,0,0,0-.244-8.478c-.956-6.693-3.887-11.94-10.161-15.077a51.661,51.661,0,0,0-7.052-3.1c-.808-.269-1.592-.577-2.4-.846-.382-.127-.394-1.173-.394-1.173s-1.943,1.292-2.252,1.468a53.721,53.721,0,0,1-5.056,2.3c-3.929,1.774-8,2.738-11.711,3.925-4.313,1.377-7.965,2.586-11.614,5.323-4.136,3.1-6.191,7-8.7,11.382a142.336,142.336,0,0,0-6.643,14.014,187.98,187.98,0,0,1-8.918,18.747c-1.7,2.984-3.533,6.038-5.32,8.771-2.458,3.763-4.731,7.24-5.524,12a44.854,44.854,0,0,0,.093,14.7,30.426,30.426,0,0,0,2.87,7.987,17.929,17.929,0,0,0,2.185,3.151,14.964,14.964,0,0,0,6.271,3.681,15.744,15.744,0,0,0,6.553-.125c2.907-.727,10.181-4.894,11.277-5.782,2.668-2.161,7.435-5.884,10.219-9.365C652.367,968.566,656.317,963.856,656.317,963.856Z" transform="translate(-383.997 -446.685)" fill="#f7c667" fill-rule="evenodd"/>
    <path id="패스_1755" data-name="패스 1755" d="M939.573,743.231s1.232-2.342,2.026-3.6c1.957-3.1,3.54-6.322,5.613-9.361,1.767-2.591,3.489-6.177,5.564-8.545a41.914,41.914,0,0,1,5.348-5.423,32.174,32.174,0,0,0,4.032-3.828,16.868,16.868,0,0,0,2.834-5.352c.913-2.549,2.16-5.344,3.076-7.9.312-.871,1.5-3.785,1.5-3.785s-1.984-1.28-2.995-1.806c-.289-.15-.554-.46-.911-.408-.413.061-.636.587-.88.865-.936,1.068-3.379,3.458-3.645.749-.322-3.263.99-7.057,2.564-9.824a14.762,14.762,0,0,1,1.641-2.931,17.939,17.939,0,0,1,2.057-1.542c2.089-1.71,4.469-3.46,6.04-5.668.959-1.349.362-2.482.225-3.866-.133-1.355.753-2.5-.96-3.112-.717-.256-1.623.8-2.232.89-.892.131-1.634-.708-2.561-.573a41.4,41.4,0,0,0-5.319,1.614c-1.09.315-1.432-.5-2.381-.793-.9-.275-2.721.521-3.512,1-1.24.75-5.529,3.136-5.529,3.136s-3.233,5.214-4.3,7.154a39.263,39.263,0,0,0-3.435,7.686c-2.11,7.8-2.418,13.473-5.131,21.044-1.5,4.179-5.627,8.509-8.226,12-.763,1.027-3.366,3.964-3.366,3.964a13.436,13.436,0,0,0,.337,3.554,57.081,57.081,0,0,1,2.618,9.2,9.438,9.438,0,0,1-.9,3.965,32.667,32.667,0,0,1-3.254,4.339,30.175,30.175,0,0,0-3.063,4.866,53.372,53.372,0,0,1-3.146,6.392c-.872,1.381-3.216,5.348-3.216,5.348s.973.9,2.778-.312a23.919,23.919,0,0,0,4.665-3.839c.748-1.01,3.222-3.792,3.852-4.638,1.188-1.6,2.537-3.844,3.74-5.46s2.461-3.963,4.437-4.717A16.77,16.77,0,0,1,939.573,743.231Z" transform="translate(-648.613 -264.468)" fill="#ffedde" fill-rule="evenodd"/>
    <path id="패스_1756" data-name="패스 1756" d="M1562.292,972.644c-1.206-4.824-5.041-9.452-7.558-13.646-1.508-2.514-1.752-2.943-3.25-5.44-1.085-1.809-2.692-5.259-3.549-7.2-1.658-3.748-3.812-9.5-6.705-15.283-.651-1.3-1.5-5.474-2.038-6.826a52.836,52.836,0,0,0-6.483-11.983,22.644,22.644,0,0,0-9.171-6.714c-1.543-.574-9.258-3.118-11.267-3.586-2.229-.519-4.417-1.449-7.058-2.337-1.864-.627-7.408-3.459-7.408-3.459a15.8,15.8,0,0,1-2.451.668,18.876,18.876,0,0,0-9.6,5.262c-.887.888-2.059,1.365-2.894,2.368-1.828,2.194-6.406,4.8-6.118,7.894a48.248,48.248,0,0,1-.46,7.1,61.578,61.578,0,0,0-.883,8.608,38.624,38.624,0,0,0,.735,5.6c.977,3.91,1.908,8.628,2.965,12.315,1.083,3.772,1.482,6.34,2.3,10.409a78.181,78.181,0,0,1,1.143,9.831c.029,1.714.3,5.232.421,7.968s.473,11.016.877,17.764c.249,4.173.463,8.347.784,11.307s.439,6.181,1.1,10.174c.189,1.135.744,3.8,1.159,5.756h28.482c-.234-2.062-.557-5-.655-6.278-.556-7.224-2.4-12.823-2.4-20.1a91.591,91.591,0,0,1,1.074-13.231c.163-1.142.8-5.555.8-5.555s1.6,2.173,2.307,3.242,5.1,6.861,5.71,7.574c.739.862,2.062,2.5,2.881,3.323,2.848,2.848,8.131,7.63,11.535,9.672a23.908,23.908,0,0,1,4.3,2.358c3.37,2.529,7.654,3.911,11.822,2.522a16.722,16.722,0,0,0,4.536-3.087c1.559-1.95,2.074-2.264,3.178-4.473,1.237-2.473,1.672-5.93,2.191-8.525A37.714,37.714,0,0,0,1562.292,972.644Z" transform="translate(-1134.072 -462.64)" fill="#f7c667" fill-rule="evenodd"/>
    <path id="패스_1757" data-name="패스 1757" d="M1428.622,744.883s-2.121-3.889-3.543-6.581a95.983,95.983,0,0,0-5.3-9.187c-.779-1.133-4.69-7.318-7.143-9.884a28.233,28.233,0,0,0-3.527-3.047,20.7,20.7,0,0,1-3.875-2.944,13.971,13.971,0,0,1-2.818-4.717c-1.012-2.267-1.9-5.17-2.908-7.436a15.581,15.581,0,0,0-1.84-3.4c-.287-.351-1.173-.9-1.088-1.435s.845-1.081,1.207-1.419c.343-.319,1.463-1.685,1.99-1.673.593.014,1.085.78,1.6,1.012,1.032.463,3.922,1.915,5.04,1,.455-.373.327-1.107.326-1.6,0-1.276-.189-2.487-.313-3.75-.2-2-1.3-3.383-2.073-5.109a6.552,6.552,0,0,0-2.161-2.8c-2.979-1.879-8.1-4.47-8.43-8.561-.052-.636.683-1.161.745-1.773.057-.567-.466-1.315-.339-1.834a2.6,2.6,0,0,1,.41-.551,1.955,1.955,0,0,1,2.481-.179c.224.109.809.612,1.093.441.237-.144.361-.688.652-.835.824-.416,1.617.054,2.385.072,1.882.042,3.61.854,5.412,1.3.98.241,1.808-.823,2.99-.294.881.394,1.647,1.016,2.535,1.413l3.4,1.523a16.206,16.206,0,0,0,.87,1.484c1.1,1.519,2.17,3.131,3.455,4.972a56.251,56.251,0,0,1,5.092,11.2c.648,2.279,1.119,4.949,1.644,7.269.721,3.189,1.409,7.1,2.332,10.241a16.54,16.54,0,0,0,2.076,4.938,94.886,94.886,0,0,0,7.039,9.255c.436.521,4.314,4.952,4.314,4.952s-.322,2.387-.461,3.141a18.755,18.755,0,0,1-1.052,4.134,36.511,36.511,0,0,0-1.511,4.151,7.851,7.851,0,0,0,.544,3.958,26.5,26.5,0,0,0,3.1,4.7c.438.636,1.418,1.721,2.481,3.274a71.667,71.667,0,0,1,4.337,8.631,31.317,31.317,0,0,0,2.585,4c.316.481.993,1.144,1.009,1.759,0,.2-.541.022-.615-.014-.6-.293-1.812-.628-2.389-.992a19.006,19.006,0,0,1-3.282-2.462c-.791-.752-2.075-1.874-2.824-2.657a45.6,45.6,0,0,1-3.888-5.457c-1.418-2.061-2.6-4.76-4.35-6.505a7.228,7.228,0,0,0-3.208-1.693A15.483,15.483,0,0,0,1428.622,744.883Z" transform="translate(-1063.225 -264.986)" fill="#ffedde" fill-rule="evenodd"/>
    <g id="_迹_2_1_" data-name="卵迹_2_1_" transform="translate(226.638 337.624)">
      <g id="그룹_16187" data-name="그룹 16187" transform="translate(136.671 95.458)">
        <path id="패스_1758" data-name="패스 1758" d="M1700.438,998.348a.4.4,0,0,1-.227-.728c3.935-2.716,5.4-7.139,6.382-12.944,2.3-13.561-1.336-19.031-6.37-26.6-1.222-1.837-2.485-3.736-3.764-5.906a116.934,116.934,0,0,1-6.265-13.16c-1.14-2.669-2.217-5.19-3.353-7.561a49.016,49.016,0,0,1-2.535-6.891,43.873,43.873,0,0,0-6.68-14.158c-4.607-6.431-11.66-8.4-19.126-10.494-5.418-1.516-11.02-3.084-16.373-6.4a.4.4,0,0,1,.421-.678c5.256,3.257,10.8,4.809,16.167,6.31,7.606,2.128,14.789,4.139,19.559,10.8a44.547,44.547,0,0,1,6.794,14.385,48.238,48.238,0,0,0,2.493,6.783c1.143,2.386,2.223,4.915,3.367,7.592a116.449,116.449,0,0,0,6.218,13.068c1.269,2.151,2.526,4.041,3.742,5.87,4.942,7.433,8.846,13.3,6.493,27.177-1.019,6-2.55,10.592-6.715,13.466A.394.394,0,0,1,1700.438,998.348Z" transform="translate(-1641.939 -892.767)" fill="#684436"/>
      </g>
      <g id="그룹_16188" data-name="그룹 16188" transform="translate(106.654 93.487)">
        <path id="패스_1759" data-name="패스 1759" d="M1446.45,926.681a.4.4,0,0,1-.357-.221c-.643-1.283-1.261-2.472-1.888-3.633a157.771,157.771,0,0,0-12-19.4l-.051-.073a19.1,19.1,0,0,0-5.91-5.5c-2.2-1.451-4.272-2.821-5.79-6.661-.781-1.976-1.3-3.436-1.718-4.61a29.146,29.146,0,0,0-4.072-8.125.4.4,0,1,1,.666-.441,29.778,29.778,0,0,1,4.159,8.3c.415,1.168.931,2.621,1.708,4.583,1.426,3.606,3.308,4.849,5.487,6.288a20.023,20.023,0,0,1,6.125,5.709l.051.073a158.531,158.531,0,0,1,12.052,19.478c.631,1.169,1.251,2.365,1.9,3.655a.4.4,0,0,1-.179.536A.393.393,0,0,1,1446.45,926.681Z" transform="translate(-1414.595 -877.84)" fill="#684436"/>
      </g>
      <g id="그룹_16189" data-name="그룹 16189" transform="translate(116.564 66.106)">
        <path id="패스_1760" data-name="패스 1760" d="M1525.393,728.875a.4.4,0,0,1-.3-.133l-1.33-1.479c-6.036-6.689-9.814-11.8-11.23-15.2-1.208-2.9-2.107-7.419-2.975-11.791-.561-2.827-1.142-5.75-1.789-8.118-1.217-4.454-3.4-8.158-5.715-12.079l-.051-.086c-2.073-3.514-3.429-5.295-5.991-6.56-.465-.23-.931-.471-1.385-.707-1.485-.77-3.162-1.64-3.8-1.44a.281.281,0,0,0-.179.153c-.8,1.561,1.1,3.09,2.943,4.568.278.223.553.445.817.665a18.768,18.768,0,0,1,2.6,3.749c.142.238.263.442.355.591a20.652,20.652,0,0,1,1.885,4.538c.488,1.853.32,4.779.157,7.609a32.466,32.466,0,0,0,.041,6.931.4.4,0,1,1-.783.154,32.784,32.784,0,0,1-.055-7.131c.159-2.768.323-5.629-.132-7.36a19.71,19.71,0,0,0-1.792-4.323c-.094-.152-.217-.359-.361-.6a20.487,20.487,0,0,0-2.421-3.544c-.26-.217-.532-.435-.806-.656-1.989-1.6-4.244-3.414-3.154-5.553a1.082,1.082,0,0,1,.646-.551c.956-.306,2.481.488,4.415,1.491.45.234.911.473,1.371.7,2.744,1.355,4.169,3.214,6.325,6.87l.051.085c2.342,3.968,4.553,7.716,5.8,12.274.654,2.4,1.238,5.332,1.8,8.173.861,4.333,1.751,8.814,2.929,11.639,1.38,3.31,5.11,8.346,11.086,14.969l1.331,1.48a.4.4,0,0,1-.3.666Z" transform="translate(-1489.651 -670.461)" fill="#684436"/>
      </g>
      <g id="그룹_16190" data-name="그룹 16190" transform="translate(107.592 65.289)">
        <path id="패스_1761" data-name="패스 1761" d="M1436.88,681.439a.4.4,0,0,1-.35-.207c-.291-.531-.572-1.064-.851-1.594-1.657-3.147-3.222-6.119-6.517-7.856-.895-.472-1.55-.777-2.128-1.046a22.816,22.816,0,0,1-2.569-1.348,5.5,5.5,0,0,1-2.73-3.143,1.805,1.805,0,0,1,.324-1.463c.8-1.071,3.506-.3,6.955.823.764.249,1.424.464,1.906.588a.4.4,0,1,1-.2.773c-.506-.131-1.177-.349-1.954-.6-1.8-.586-5.545-1.8-6.07-1.1a1,1,0,0,0-.178.833,4.9,4.9,0,0,0,2.362,2.612,21.9,21.9,0,0,0,2.491,1.306c.586.273,1.251.583,2.163,1.064,3.514,1.852,5.135,4.93,6.852,8.19.278.527.557,1.056.845,1.583a.4.4,0,0,1-.158.542A.4.4,0,0,1,1436.88,681.439Z" transform="translate(-1421.697 -664.27)" fill="#684436"/>
      </g>
      <g id="그룹_16191" data-name="그룹 16191" transform="translate(103.849 65.702)">
        <path id="패스_1762" data-name="패스 1762" d="M1408.366,685.6a.4.4,0,0,1-.321-.162c-.667-.9-1.2-1.711-1.718-2.491a18.627,18.627,0,0,0-4.469-5.149c-.665-.517-1.51-1.046-2.406-1.607-1.821-1.14-3.884-2.432-4.919-3.983-1.213-1.819-1.509-3.348-.811-4.2.458-.557,1.5-1.015,3.859-.032a.4.4,0,0,1-.307.737c-1.446-.6-2.542-.676-2.936-.2-.439.533-.1,1.807.859,3.246.94,1.408,2.926,2.652,4.678,3.749.913.572,1.775,1.111,2.472,1.653a19.516,19.516,0,0,1,4.645,5.339c.511.772,1.039,1.57,1.694,2.457a.4.4,0,0,1-.321.636Z" transform="translate(-1393.352 -667.401)" fill="#684436"/>
      </g>
      <g id="그룹_16192" data-name="그룹 16192" transform="translate(103.554 69.147)">
        <path id="패스_1763" data-name="패스 1763" d="M1403.126,717.373c-1.506,0-3.616-1.62-4.084-2a.4.4,0,1,1,.5-.623c1.2.959,3.213,2.136,3.932,1.75.34-.182.36-.8.318-1.279-.347-3.91-.724-4.815-2.686-8.141-1.278-2.167-3.512-4.01-5.483-5.635a21.589,21.589,0,0,1-3.047-2.811c-1.127-1.432-1.617-2.73-1.417-3.755a1.933,1.933,0,0,1,.97-1.341.4.4,0,1,1,.4.693,1.129,1.129,0,0,0-.583.8,4.414,4.414,0,0,0,1.262,3.108,21.217,21.217,0,0,0,2.927,2.688c2.022,1.667,4.314,3.557,5.663,5.845,2.009,3.406,2.434,4.426,2.793,8.475.094,1.051-.154,1.742-.736,2.054A1.514,1.514,0,0,1,1403.126,717.373Z" transform="translate(-1391.114 -693.49)" fill="#684436"/>
      </g>
      <g id="그룹_16193" data-name="그룹 16193" transform="translate(86.838 86.057)">
        <path id="패스_1764" data-name="패스 1764" d="M1278,830.856c-.182,0-.362,0-.543-.011-4.867-.193-9.825-3.976-12.842-7.452a.4.4,0,0,1,.6-.523c2.907,3.35,7.657,7,12.271,7.178,5.284.2,10.934-2.831,15.538-8.342a.4.4,0,1,1,.613.512C1289.029,827.733,1283.359,830.856,1278,830.856Z" transform="translate(-1264.516 -821.562)" fill="#684436"/>
      </g>
      <g id="그룹_16194" data-name="그룹 16194" transform="translate(71.434 59.664)">
        <path id="패스_1765" data-name="패스 1765" d="M1151.49,634.515a.4.4,0,0,1-.255-.092,8.931,8.931,0,0,1-3.385-7.3c.008-2.541.893-4.414,2.43-5.139,1.464-.69,3.329-.244,5.117,1.223a.4.4,0,1,1-.506.617c-1.541-1.264-3.1-1.671-4.271-1.118-1.247.588-1.966,2.2-1.972,4.419a8.174,8.174,0,0,0,3.1,6.68.4.4,0,0,1-.255.706Z" transform="translate(-1147.85 -621.67)" fill="#684436"/>
      </g>
      <g id="그룹_16195" data-name="그룹 16195" transform="translate(99.685 55.947)">
        <path id="패스_1766" data-name="패스 1766" d="M1362.625,603.264a.4.4,0,0,1-.248-.712,3.682,3.682,0,0,0,1.628-2.41,2.936,2.936,0,0,0-.942-2.17c-1.863-2.037-1.172-3.563-.877-4.215a.4.4,0,0,1,.532-.207.392.392,0,0,1,.2.521l-.007.016c-.269.593-.769,1.7.739,3.346a3.688,3.688,0,0,1,1.148,2.773,4.416,4.416,0,0,1-1.928,2.972A.4.4,0,0,1,1362.625,603.264Z" transform="translate(-1361.813 -593.515)" fill="#684436"/>
      </g>
      <g id="그룹_16196" data-name="그룹 16196" transform="translate(85.537 51.202)">
        <path id="패스_1767" data-name="패스 1767" d="M1261.555,559.517a26.984,26.984,0,0,1-6.618-1.16.4.4,0,0,1,.236-.763c1.748.54,6.669,1.727,8.442.759a.4.4,0,1,1,.383.7A5.26,5.26,0,0,1,1261.555,559.517Z" transform="translate(-1254.656 -557.576)" fill="#684436"/>
      </g>
      <g id="그룹_16197" data-name="그룹 16197" transform="translate(75.298 64.758)">
        <path id="패스_1768" data-name="패스 1768" d="M1178.832,663.366a.4.4,0,0,1-.372-.254,7.416,7.416,0,0,0-1.242-2.194.4.4,0,0,1,.58-.548,8.012,8.012,0,0,1,1.406,2.452.4.4,0,0,1-.372.545Z" transform="translate(-1177.11 -660.246)" fill="#684436"/>
      </g>
      <g id="그룹_16198" data-name="그룹 16198" transform="translate(120.974 53.032)">
        <path id="패스_1769" data-name="패스 1769" d="M1524.658,577.257a.4.4,0,0,1-.393-.332,26.646,26.646,0,0,0-1.178-4.928.4.4,0,1,1,.73-.324,29.767,29.767,0,0,1,1.236,5.118.4.4,0,0,1-.326.461A.422.422,0,0,1,1524.658,577.257Z" transform="translate(-1523.053 -571.436)" fill="#684436"/>
      </g>
      <g id="그룹_16199" data-name="그룹 16199" transform="translate(70.064 19.604)">
        <path id="패스_1770" data-name="패스 1770" d="M1137.865,342.96a.4.4,0,0,1-.267-.7c1.038-.934,1.282-3.229,1.565-5.887.324-3.047.727-6.839,2.531-9.994,3.312-5.792,9.155-9.223,13.3-7.807a.4.4,0,1,1-.258.755c-3.8-1.3-9.224,1.976-12.352,7.448-1.72,3.01-2.1,6.555-2.43,9.683-.312,2.938-.559,5.258-1.824,6.4A.4.4,0,0,1,1137.865,342.96Z" transform="translate(-1137.466 -318.257)" fill="#684436"/>
      </g>
      <g id="그룹_16200" data-name="그룹 16200" transform="translate(71.861 46.941)">
        <path id="패스_1771" data-name="패스 1771" d="M1154.113,538.778a.4.4,0,0,1-.366-.241c-.131-.3-3.209-7.518-2.583-12.876a.4.4,0,0,1,.793.093c-.6,5.148,2.492,12.394,2.523,12.467a.4.4,0,0,1-.366.557Z" transform="translate(-1151.079 -525.308)" fill="#684436"/>
      </g>
      <g id="그룹_16201" data-name="그룹 16201" transform="translate(91.291 14.498)">
        <path id="패스_1772" data-name="패스 1772" d="M1330.007,289.838c-1.3,0-1.776-.341-3.286-1.5-.279-.215-.6-.46-.969-.739-5.465-4.11-19.016-12.566-26.8-2.367a.4.4,0,0,1-.635-.484c5.784-7.582,15.959-6.776,27.914,2.213.373.28.694.527.975.744,1.9,1.461,1.9,1.46,4.712,1.216l.079.394.034.4C1331.156,289.786,1330.518,289.838,1330.007,289.838Z" transform="translate(-1298.237 -279.585)" fill="#684436"/>
      </g>
      <g id="그룹_16202" data-name="그룹 16202" transform="translate(77.594 33.838)">
        <path id="패스_1773" data-name="패스 1773" d="M1194.9,446.44a.4.4,0,0,1-.122-.779c4.085-1.316,5.213-5.888,6.3-10.31,1.179-4.778,2.4-9.718,7.7-9.255a.4.4,0,1,1-.069.8c-4.607-.4-5.652,3.793-6.852,8.652-1.09,4.418-2.326,9.426-6.834,10.879A.4.4,0,0,1,1194.9,446.44Z" transform="translate(-1194.501 -426.066)" fill="#684436"/>
      </g>
      <g id="그룹_16203" data-name="그룹 16203" transform="translate(100.567 31.605)">
        <path id="패스_1774" data-name="패스 1774" d="M1391.233,427.586c-7.967,0-11.354-6.306-14.094-11.407-1.614-3.006-3.009-5.6-4.929-6.13a3.955,3.955,0,0,0-3.113.684.4.4,0,1,1-.412-.684,4.7,4.7,0,0,1,3.736-.77c2.251.618,3.72,3.354,5.422,6.522,2.726,5.075,6.1,11.4,14.182,10.964a.4.4,0,0,1,.042.8Q1391.643,427.586,1391.233,427.586Z" transform="translate(-1368.492 -409.15)" fill="#684436"/>
      </g>
      <g id="그룹_16204" data-name="그룹 16204" transform="translate(123.812 26.43)">
        <path id="패스_1775" data-name="패스 1775" d="M1546.863,405.124a.407.407,0,0,1-.081-.008.4.4,0,0,1-.311-.471c.379-1.851.785-3.675,1.183-5.465,2.6-11.654,4.84-21.718-2.969-28.522a.4.4,0,1,1,.524-.6c8.167,7.116,5.877,17.4,3.225,29.3-.4,1.785-.8,3.6-1.18,5.451A.4.4,0,0,1,1546.863,405.124Z" transform="translate(-1544.548 -369.958)" fill="#684436"/>
      </g>
      <g id="그룹_16205" data-name="그룹 16205" transform="translate(90.275 23.156)">
        <path id="패스_1776" data-name="패스 1776" d="M1293.87,351.524a.4.4,0,0,1-.395-.343,10.263,10.263,0,0,0-2.812-5.339.4.4,0,0,1,.563-.566,11.138,11.138,0,0,1,3.039,5.792.4.4,0,0,1-.4.455Z" transform="translate(-1290.545 -345.16)" fill="#684436"/>
      </g>
      <g id="그룹_16206" data-name="그룹 16206" transform="translate(96.88 27.218)">
        <path id="패스_1777" data-name="패스 1777" d="M1340.97,381.929a.4.4,0,0,1-.4-.387,5.8,5.8,0,0,1,1.946-4.268,4.57,4.57,0,0,1,3.6-1.318.4.4,0,0,1-.094.793,3.785,3.785,0,0,0-2.966,1.114,4.984,4.984,0,0,0-1.686,3.655.4.4,0,0,1-.387.411Z" transform="translate(-1340.569 -375.929)" fill="#684436"/>
      </g>
      <g id="그룹_16207" data-name="그룹 16207" transform="translate(122.452 60.93)">
        <path id="패스_1778" data-name="패스 1778" d="M1538.015,641.263a.4.4,0,0,1-.331-.621c.019-.029,1.927-2.9,1.9-4.8a3.78,3.78,0,0,0-1.5-3.4,3.344,3.344,0,0,0-3.263.079.4.4,0,1,1-.357-.714,4.13,4.13,0,0,1,4.036-.047,4.581,4.581,0,0,1,1.878,4.073c.026,2.154-1.955,5.132-2.039,5.258A.4.4,0,0,1,1538.015,641.263Z" transform="translate(-1534.25 -631.252)" fill="#684436"/>
      </g>
      <path id="패스_1779" data-name="패스 1779" d="M1274.948,599.342a1.78,1.78,0,1,0-1.756,2.09A1.946,1.946,0,0,0,1274.948,599.342Z" transform="translate(-1183.691 -540.805)" fill="#644235" fill-rule="evenodd"/>
      <g id="그룹_16208" data-name="그룹 16208" transform="translate(122.986 65.451)">
        <path id="패스_1780" data-name="패스 1780" d="M1538.694,668.13a.4.4,0,0,1-.184-.045.4.4,0,0,1-.17-.538,7.8,7.8,0,0,1,1.479-1.951.4.4,0,1,1,.53.6,7.062,7.062,0,0,0-1.3,1.724A.4.4,0,0,1,1538.694,668.13Z" transform="translate(-1538.295 -665.494)" fill="#684436"/>
      </g>
      <g id="그룹_16209" data-name="그룹 16209" transform="translate(105.584 50.521)">
        <path id="패스_1781" data-name="패스 1781" d="M1408.894,554.741a3.445,3.445,0,0,1-2.263-.631.4.4,0,1,1,.523-.6c1.392,1.207,6.21-.353,7.948-1.055a.4.4,0,1,1,.3.74A21.073,21.073,0,0,1,1408.894,554.741Z" transform="translate(-1406.493 -552.422)" fill="#684436"/>
      </g>
      <path id="패스_1782" data-name="패스 1782" d="M1439.856,601.562a1.78,1.78,0,1,0-1.756,2.091A1.946,1.946,0,0,0,1439.856,601.562Z" transform="translate(-1326.825 -542.732)" fill="#644235" fill-rule="evenodd"/>
      <g id="그룹_16210" data-name="그룹 16210" transform="translate(0 93.564)">
        <path id="패스_1783" data-name="패스 1783" d="M613.081,982.388a.4.4,0,0,1-.286-.121c-2.557-2.623-4.332-6.767-5.274-12.317-2.355-13.875,1.55-19.746,6.493-27.178,1.216-1.828,2.473-3.718,3.742-5.87a132.7,132.7,0,0,0,6.547-13.416c1.009-2.277,2.052-4.631,3.1-6.815.8-1.662,1.5-3.294,2.186-4.873a76.491,76.491,0,0,1,8.791-16.008c4.815-6.722,11.668-8.794,18.924-10.988,5.054-1.528,10.281-3.108,15.465-6.321a.4.4,0,0,1,.42.678c-5.273,3.268-10.551,4.863-15.655,6.406-7.432,2.247-13.85,4.187-18.506,10.688a75.856,75.856,0,0,0-8.707,15.861c-.686,1.586-1.4,3.226-2.2,4.9-1.041,2.173-2.035,4.418-3.088,6.794a133.256,133.256,0,0,1-6.589,13.5c-1.28,2.17-2.543,4.069-3.765,5.906-5.035,7.57-8.672,13.039-6.37,26.6.914,5.388,2.616,9.389,5.057,11.894a.4.4,0,0,1-.286.678Z" transform="translate(-606.818 -878.423)" fill="#684436"/>
      </g>
      <g id="그룹_16211" data-name="그룹 16211" transform="translate(64.009 93.35)">
        <path id="패스_1784" data-name="패스 1784" d="M1092.009,924.713a.4.4,0,0,1-.35-.591c1.06-1.931,2.074-3.672,3.1-5.32.952-1.531,1.9-3.161,2.9-4.887,2.78-4.779,5.655-9.721,9.081-13.4a44.676,44.676,0,0,1,3.715-3.467c2.3-1.98,4.284-3.689,5.675-6.651a61.842,61.842,0,0,0,2.327-5.935,48.378,48.378,0,0,1,3.115-7.454.4.4,0,1,1,.7.384,47.07,47.07,0,0,0-3.062,7.335,62.524,62.524,0,0,1-2.357,6.01c-1.464,3.117-3.607,4.963-5.877,6.918a43.9,43.9,0,0,0-3.653,3.406c-3.364,3.612-6.216,8.514-8.975,13.256-1.007,1.731-1.959,3.367-2.917,4.907-1.017,1.637-2.023,3.364-3.076,5.282A.4.4,0,0,1,1092.009,924.713Z" transform="translate(-1091.61 -876.801)" fill="#684436"/>
      </g>
      <g id="그룹_16212" data-name="그룹 16212" transform="translate(51.213 65.87)">
        <path id="패스_1785" data-name="패스 1785" d="M995.1,725.836a.4.4,0,0,1-.3-.666l.21-.233c5.976-6.623,9.706-11.66,11.086-14.969,1.178-2.825,2.069-7.306,2.93-11.639.564-2.841,1.148-5.778,1.8-8.174,1.243-4.552,3.451-8.3,5.789-12.26l.059-.1c2.157-3.656,3.582-5.515,6.325-6.869.46-.227.921-.467,1.371-.7,1.935-1,3.465-1.8,4.414-1.492a1.082,1.082,0,0,1,.646.551c1.09,2.139-1.165,3.953-3.155,5.553-.274.22-.545.438-.805.655a20.535,20.535,0,0,0-2.425,3.55c-.142.239-.264.444-.357.595a19.693,19.693,0,0,0-1.792,4.322,48.16,48.16,0,0,0-1,6.705c-.2,1.875-.4,3.814-.724,5.469a.4.4,0,1,1-.784-.154c.318-1.62.519-3.541.714-5.4a48.635,48.635,0,0,1,1.025-6.825,20.642,20.642,0,0,1,1.884-4.537c.091-.148.211-.349.35-.584a18.79,18.79,0,0,1,2.6-3.756c.264-.22.539-.441.816-.664,1.839-1.479,3.74-3.008,2.944-4.569a.283.283,0,0,0-.179-.153c-.631-.2-2.317.669-3.8,1.44-.455.236-.92.478-1.385.707-2.561,1.264-3.918,3.045-5.991,6.558l-.059.1c-2.31,3.917-4.492,7.616-5.706,12.065-.647,2.368-1.228,5.291-1.79,8.119-.869,4.372-1.767,8.892-2.976,11.791-1.415,3.394-5.193,8.506-11.23,15.2l-.209.232A.4.4,0,0,1,995.1,725.836Z" transform="translate(-994.697 -668.668)" fill="#684436"/>
      </g>
      <g id="그룹_16213" data-name="그룹 16213" transform="translate(79.623 65.052)">
        <path id="패스_1786" data-name="패스 1786" d="M1210.266,679.643a.393.393,0,0,1-.191-.049.4.4,0,0,1-.158-.542c.289-.527.568-1.056.845-1.583,1.717-3.259,3.338-6.337,6.852-8.189.913-.481,1.578-.791,2.165-1.064a21.944,21.944,0,0,0,2.489-1.3,4.9,4.9,0,0,0,2.362-2.613,1,1,0,0,0-.178-.834c-.525-.7-4.269.519-6.069,1.1-.777.253-1.449.471-1.955.6a.4.4,0,1,1-.2-.773c.482-.124,1.143-.339,1.907-.588,3.448-1.122,6.151-1.895,6.954-.825a1.808,1.808,0,0,1,.324,1.464,5.5,5.5,0,0,1-2.73,3.143,22.9,22.9,0,0,1-2.567,1.347c-.579.269-1.234.574-2.129,1.047-3.295,1.736-4.861,4.708-6.518,7.854-.28.531-.561,1.064-.851,1.595A.4.4,0,0,1,1210.266,679.643Z" transform="translate(-1209.867 -662.475)" fill="#684436"/>
      </g>
      <g id="그룹_16214" data-name="그룹 16214" transform="translate(83.793 65.466)">
        <path id="패스_1787" data-name="패스 1787" d="M1241.851,685.1a.4.4,0,0,1-.321-.636,24.419,24.419,0,0,0,2.1-3.614,14.532,14.532,0,0,1,3.978-5.47c.7-.542,1.559-1.081,2.471-1.652,1.753-1.1,3.74-2.341,4.68-3.75.96-1.439,1.3-2.713.859-3.246-.393-.477-1.49-.4-2.935.2a.4.4,0,0,1-.307-.737c2.359-.982,3.4-.525,3.859.032.7.848.4,2.378-.811,4.2-1.036,1.552-3.1,2.844-4.921,3.984-.9.56-1.74,1.089-2.405,1.606a13.9,13.9,0,0,0-3.755,5.2,25.084,25.084,0,0,1-2.171,3.727A.4.4,0,0,1,1241.851,685.1Z" transform="translate(-1241.452 -665.614)" fill="#684436"/>
      </g>
      <g id="그룹_16215" data-name="그룹 16215" transform="translate(85.485 68.91)">
        <path id="패스_1788" data-name="패스 1788" d="M1255.358,717.29a.939.939,0,0,1-.556-.175c-1.918-1.356,1.84-11.041,2.541-12.23,1.35-2.288,3.641-4.178,5.663-5.845a21.226,21.226,0,0,0,2.927-2.688,4.416,4.416,0,0,0,1.261-3.108,1.129,1.129,0,0,0-.583-.8.4.4,0,0,1,.4-.693,1.934,1.934,0,0,1,.97,1.341c.2,1.025-.29,2.323-1.417,3.754a21.59,21.59,0,0,1-3.047,2.811c-1.971,1.625-4.2,3.468-5.483,5.634-1.244,2.109-3.792,10.448-2.768,11.172.028.019.668.412,3.474-2.936a.4.4,0,0,1,.612.513C1257.5,716.248,1256.229,717.29,1255.358,717.29Z" transform="translate(-1254.263 -691.697)" fill="#684436"/>
      </g>
      <g id="그룹_16216" data-name="그룹 16216" transform="translate(44.528 179.15)">
        <path id="패스_1789" data-name="패스 1789" d="M945.09,1548.821a155.957,155.957,0,0,0-1,17.595h.8a154.929,154.929,0,0,1,1-17.52c.355-3.8.691-7.384.751-10.008a49.11,49.11,0,0,0-1-11.932.4.4,0,1,0-.785.144,48.45,48.45,0,0,1,.986,11.77C945.778,1541.466,945.444,1545.039,945.09,1548.821Z" transform="translate(-944.063 -1526.629)" fill="#684436"/>
      </g>
      <g id="그룹_16217" data-name="그룹 16217" transform="translate(151.103 173.285)">
        <path id="패스_1790" data-name="패스 1790" d="M1754.394,1527.866h.8c-.419-5.963-1.181-10.769-1.865-15.07-.9-5.678-1.612-10.162-1.129-14.843.313-3.028.6-5.439.848-7.583.32-2.732.6-5.091.816-7.724a.4.4,0,0,0-.364-.431.406.406,0,0,0-.431.364c-.218,2.62-.494,4.973-.814,7.7-.252,2.146-.535,4.56-.848,7.593-.5,4.785.224,9.316,1.135,15.051C1753.219,1517.192,1753.976,1521.961,1754.394,1527.866Z" transform="translate(-1751.245 -1482.215)" fill="#684436"/>
      </g>
      <g id="그룹_16218" data-name="그룹 16218" transform="translate(93.786 74.488)">
        <path id="패스_1791" data-name="패스 1791" d="M1323.335,748.14q-.188,0-.375-.012c-3.2-.206-5.217-3.043-5.738-4.783-.5-1.678,1.268-6.132,2.762-7.662,1.567-1.607,6.13-2.583,8.037-.746.794.764,3.044,4.526,2.955,7.487a5.2,5.2,0,0,1-1.961,3.288A9.009,9.009,0,0,1,1323.335,748.14Zm1.656-13.406a6.939,6.939,0,0,0-4.436,1.507c-1.423,1.458-2.96,5.57-2.568,6.875a6.074,6.074,0,0,0,5.024,4.215,7.973,7.973,0,0,0,5.466-2.21,4.6,4.6,0,0,0,1.7-2.721c.08-2.684-2-6.209-2.71-6.888h0A3.555,3.555,0,0,0,1324.991,734.734Z" transform="translate(-1317.135 -733.942)" fill="#684436"/>
      </g>
      <g id="그룹_16219" data-name="그룹 16219" transform="translate(74.324 110.586)">
        <path id="패스_1792" data-name="패스 1792" d="M1170.8,1115.689a113.293,113.293,0,0,1,.737-23.442,107.183,107.183,0,0,1,3.68-15.565,117.844,117.844,0,0,0,3.614-14.855,104.523,104.523,0,0,0,1.291-14.69c.108-2.808.23-5.992.5-10.049.26-3.849.754-7.088,1.231-10.22.945-6.2,1.76-11.548.389-19.2a.4.4,0,1,0-.786.14c1.347,7.523.541,12.814-.393,18.941-.48,3.148-.976,6.4-1.239,10.286-.275,4.069-.4,7.258-.505,10.072a102.5,102.5,0,0,1-1.28,14.59,117.2,117.2,0,0,1-3.593,14.76,109.4,109.4,0,0,0-3.7,15.672,114.012,114.012,0,0,0-.746,23.561Z" transform="translate(-1169.735 -1007.338)" fill="#684436"/>
      </g>
      <g id="그룹_16220" data-name="그룹 16220" transform="translate(114.377 110.978)">
        <path id="패스_1793" data-name="패스 1793" d="M1476.079,1042.426a134.181,134.181,0,0,1,3.142,14.824c1.1,8.236,1.467,17.147,1.824,25.765.491,11.831,1,24.038,3.361,35.251h.815c-2.379-11.194-2.886-23.428-3.377-35.284-.358-8.636-.728-17.566-1.831-25.838a134.972,134.972,0,0,0-3.159-14.913c-.934-3.713-1.9-7.552-2.588-11.341-.707-3.89-.289-7.71.154-11.754a64.246,64.246,0,0,0,.545-8.438.4.4,0,0,0-.4-.39h-.009a.4.4,0,0,0-.39.408,63.55,63.55,0,0,1-.54,8.333c-.449,4.1-.874,7.979-.146,11.985C1474.173,1034.848,1475.142,1038.7,1476.079,1042.426Z" transform="translate(-1473.087 -1010.308)" fill="#684436"/>
      </g>
      <g id="그룹_16221" data-name="그룹 16221" transform="translate(34.549 118.44)">
        <path id="패스_1794" data-name="패스 1794" d="M868.882,1115.572a.4.4,0,0,1-.279-.685c6.827-6.661,8.927-11.133,10.78-15.078a42.02,42.02,0,0,1,2.353-4.524,45.525,45.525,0,0,1,3.172-4.427c1.552-1.969,2.578-3.269,3.039-5.849.242-1.352-.5-3.519-1.288-5.814-1.539-4.489-3.454-10.076,1.41-12.335a.4.4,0,1,1,.336.724c-4.212,1.957-2.5,6.948-.991,11.352.821,2.4,1.6,4.657,1.319,6.213-.5,2.776-1.629,4.214-3.2,6.2a44.845,44.845,0,0,0-3.122,4.355,41.46,41.46,0,0,0-2.308,4.44c-1.882,4.007-4.015,8.548-10.945,15.31A.4.4,0,0,1,868.882,1115.572Z" transform="translate(-868.483 -1066.823)" fill="#684436"/>
      </g>
      <g id="그룹_16222" data-name="그룹 16222" transform="translate(40.449 130.257)">
        <path id="패스_1795" data-name="패스 1795" d="M914.355,1187.42a1.248,1.248,0,0,1-1.122-.574.4.4,0,1,1,.674-.427.462.462,0,0,0,.448.2h0c2.178-.008,8.146-5.605,11.2-10.509,3.55-5.692,5.459-8,7.3-8.82s4.108-.522,6.291-.232c2.455.329,4.576.612,5.543-.75,1.66-2.336.384-5.021-1.095-8.131-.2-.423-.4-.852-.6-1.285a.4.4,0,0,1,.726-.332c.2.429.4.854.6,1.274,1.52,3.2,2.956,6.218,1.024,8.937-1.247,1.753-3.7,1.427-6.3,1.078-2.073-.276-4.217-.564-5.86.171-1.672.746-3.489,2.974-6.943,8.513-2.987,4.79-9.179,10.875-11.878,10.885Z" transform="translate(-913.171 -1156.33)" fill="#684436"/>
      </g>
      <g id="그룹_16223" data-name="그룹 16223" transform="translate(7.144 117.929)">
        <path id="패스_1796" data-name="패스 1796" d="M661.323,1114.235a.4.4,0,0,1-.378-.529c3.883-11.331,8.351-14.446,14.007-18.391,1.845-1.287,3.754-2.618,5.809-4.358a107.211,107.211,0,0,0,14.58-15.045c.8-.962,1.62-1.943,2.482-2.958,5.474-6.442,8.968-10.334,11.271-9.973a.4.4,0,0,1-.122.789c-1.884-.279-5.557,3.838-10.541,9.7-.859,1.011-1.676,1.99-2.477,2.951a107.933,107.933,0,0,1-14.678,15.143c-2.083,1.764-4.008,3.1-5.868,4.4-5.537,3.861-9.91,6.911-13.708,17.995A.4.4,0,0,1,661.323,1114.235Z" transform="translate(-660.924 -1062.959)" fill="#684436"/>
      </g>
      <g id="그룹_16224" data-name="그룹 16224" transform="translate(5.117 139.14)">
        <path id="패스_1797" data-name="패스 1797" d="M655.916,1286.155c-3.216,0-6.806-1.215-10.241-5.07a.4.4,0,0,1,.6-.532c7.343,8.242,15.506,3.679,18.579,1.961.432-.242.772-.432,1.019-.538,5.366-2.3,13.91-10.535,17.673-15.427a184.869,184.869,0,0,0,17.768-27.052,20.616,20.616,0,0,1,3.615-4.5,40.512,40.512,0,0,0,8.025-11.178.4.4,0,0,1,.713.36,41.211,41.211,0,0,1-8.165,11.373,20.013,20.013,0,0,0-3.487,4.323,185.527,185.527,0,0,1-17.837,27.157c-3.816,4.961-12.507,13.324-17.992,15.675-.208.089-.532.271-.944.5C663.44,1284.217,659.976,1286.155,655.916,1286.155Z" transform="translate(-645.574 -1223.604)" fill="#684436"/>
      </g>
      <g id="그룹_16225" data-name="그룹 16225" transform="translate(148.411 119.062)">
        <path id="패스_1798" data-name="패스 1798" d="M1750.6,1119.827a.4.4,0,0,1-.282-.117c-6.626-6.626-8.55-10.828-10.248-14.537a37.9,37.9,0,0,0-2.294-4.466,44.757,44.757,0,0,0-3.12-4.352c-1.569-1.99-2.7-3.427-3.2-6.206-.268-1.5.472-3.609,1.329-6.057,1.636-4.673,3.489-9.969-1.667-11.78a.4.4,0,1,1,.265-.753c5.908,2.076,3.828,8.021,2.156,12.8-.785,2.243-1.527,4.363-1.3,5.652.46,2.581,1.487,3.882,3.04,5.852a45.5,45.5,0,0,1,3.171,4.424,38.733,38.733,0,0,1,2.341,4.557c1.67,3.647,3.562,7.78,10.087,14.3a.4.4,0,0,1-.282.682Z" transform="translate(-1730.854 -1071.536)" fill="#684436"/>
      </g>
      <g id="그룹_16226" data-name="그룹 16226" transform="translate(130.194 131.694)">
        <path id="패스_1799" data-name="패스 1799" d="M1625.9,1197.806c-3.87,0-9.99-6.367-13.613-12.53-3.478-5.911-4.167-6.15-6.451-6.942-1.638-.568-3.641-.308-5.577-.057-2.615.34-5.089.66-6.375-1.151-1.955-2.75-.688-5.437.78-8.547.175-.37.353-.749.531-1.136a.4.4,0,0,1,.725.332c-.179.391-.359.772-.534,1.145-1.416,3-2.535,5.374-.851,7.744,1.01,1.421,3.146,1.143,5.622.821,2.028-.264,4.124-.535,5.941.094,2.577.894,3.395,1.372,6.877,7.292,3.636,6.184,9.827,12.527,13.222,12.119a.394.394,0,0,1,.444.348.4.4,0,0,1-.349.444A3.206,3.206,0,0,1,1625.9,1197.806Z" transform="translate(-1592.883 -1167.211)" fill="#684436"/>
      </g>
      <g id="그룹_16227" data-name="그룹 16227" transform="translate(148.162 118.841)">
        <path id="패스_1800" data-name="패스 1800" d="M1777.079,1121.136a.4.4,0,0,1-.377-.27c-3.8-11.085-8.17-14.134-13.708-18-1.86-1.3-3.784-2.639-5.868-4.4a107.916,107.916,0,0,1-14.679-15.145c-.8-.961-1.616-1.938-2.475-2.95-3.989-4.694-8.5-9.991-10.541-9.7a.4.4,0,0,1-.455-.334.4.4,0,0,1,.334-.455c2.322-.347,5.8,3.532,11.271,9.972.861,1.013,1.678,1.994,2.48,2.956a107.272,107.272,0,0,0,14.582,15.047c2.054,1.739,3.963,3.07,5.809,4.357,5.657,3.945,10.124,7.06,14.006,18.392a.4.4,0,0,1-.248.507A.394.394,0,0,1,1777.079,1121.136Z" transform="translate(-1728.971 -1069.862)" fill="#684436"/>
      </g>
      <g id="그룹_16228" data-name="그룹 16228" transform="translate(130.565 140.049)">
        <path id="패스_1801" data-name="패스 1801" d="M1653.755,1293.833c-4,0-7.419-2.245-9.339-3.507a10.4,10.4,0,0,0-1.2-.734c-5.485-2.351-14.176-10.713-17.991-15.674a185.546,185.546,0,0,1-17.836-27.157,20.045,20.045,0,0,0-3.488-4.323,41.212,41.212,0,0,1-8.163-11.373.4.4,0,1,1,.713-.36,40.515,40.515,0,0,0,8.025,11.178,20.632,20.632,0,0,1,3.615,4.5,184.966,184.966,0,0,0,17.769,27.052c3.763,4.892,12.307,13.127,17.673,15.426a10.5,10.5,0,0,1,1.328.8c3.131,2.058,10.462,6.879,17.545-1.072a.4.4,0,0,1,.6.532C1659.837,1292.665,1656.642,1293.833,1653.755,1293.833Z" transform="translate(-1595.69 -1230.486)" fill="#684436"/>
      </g>
      <g id="그룹_16229" data-name="그룹 16229" transform="translate(90.261 102.843)">
        <path id="패스_1802" data-name="패스 1802" d="M1302.012,952.764a19.258,19.258,0,0,1-11.413-3.348.4.4,0,0,1,.473-.643c5.741,4.224,14.923,3.774,20.647,1.209a.4.4,0,0,1,.327.728A25.121,25.121,0,0,1,1302.012,952.764Z" transform="translate(-1290.436 -948.695)" fill="#684436"/>
      </g>
      <g id="그룹_16230" data-name="그룹 16230" transform="translate(71.238 0)">
        <path id="패스_1803" data-name="패스 1803" d="M1157.253,187.791c.517.657,2.606-.6,2.906-1.067.419-.649-3.781-12.074-4.537-13.43s-6.807.287-6.17,1.478S1156.735,187.134,1157.253,187.791Z" transform="translate(-1149.002 -172.388)" fill="#f7d77e" fill-rule="evenodd"/>
        <path id="패스_1804" data-name="패스 1804" d="M1155.079,185.772a.942.942,0,0,1-.784-.338h0c-.581-.738-7.287-12.044-7.84-13.078-.164-.306-.262-.915.919-1.561,1.606-.878,5.222-1.607,5.952-.3.374.671,5.172,12.837,4.524,13.841a4.661,4.661,0,0,1-2.7,1.434Zm-3.619-15.192a7.47,7.47,0,0,0-1.363.141c-1.76.332-2.9,1.009-2.938,1.268.68,1.262,7.286,12.346,7.763,12.951h0c.013.016.076.037.193.033a4.3,4.3,0,0,0,2.031-1.028c.029-1.168-3.636-11.48-4.517-13.061C1152.529,170.706,1152.115,170.58,1151.46,170.58Z" transform="translate(-1146.358 -169.783)" fill="#684436"/>
      </g>
      <g id="그룹_16231" data-name="그룹 16231" transform="translate(59.63 4.411)">
        <path id="패스_1805" data-name="패스 1805" d="M1074.29,222.056c.716.452,2.761-1.451,2.646-1.925-.311-1.285-9.92-14.131-10.685-13.905-.832.245-4.968,4.57-4.833,5.055C1061.655,212.14,1073.573,221.6,1074.29,222.056Z" transform="translate(-1061.021 -205.823)" fill="#f7d77e" fill-rule="evenodd"/>
        <path id="패스_1806" data-name="패스 1806" d="M1071.973,219.894a.869.869,0,0,1-.474-.13h0c-.121-.076-12.725-9.854-13.045-11.006-.266-.962,4.488-5.363,5.105-5.545a.582.582,0,0,1,.461.08c1.564.9,10.432,12.9,10.725,14.114.184.76-1.405,1.913-1.421,1.924A2.479,2.479,0,0,1,1071.973,219.894ZM1059.258,208.6c.827,1.13,11.5,9.752,12.666,10.489l-.213.338.213-.338c.017.01.126.027.365-.074a4.05,4.05,0,0,0,1.676-1.5c-.308-1.214-8.939-12.576-10.278-13.5A24.161,24.161,0,0,0,1059.258,208.6Z" transform="translate(-1058.443 -203.193)" fill="#684436"/>
      </g>
      <g id="그룹_16232" data-name="그룹 16232" transform="translate(56.464 16.227)">
        <path id="패스_1807" data-name="패스 1807" d="M1048.822,305.863c.557.164,1.631-1.66,1.36-2.052-.345-.5-9.853-7.819-10.913-8.093-.477-.123-2.259,4.8-1.815,5.563C1037.707,301.718,1048.265,305.7,1048.822,305.863Z" transform="translate(-1036.998 -295.316)" fill="#f7d77e" fill-rule="evenodd"/>
        <path id="패스_1808" data-name="패스 1808" d="M1046.366,303.644a.656.656,0,0,1-.188-.027h0c-.107-.031-11.218-4.106-11.6-4.763-.527-.907.975-5,1.612-5.836a.619.619,0,0,1,.649-.315c1.216.314,10.848,7.828,11.141,8.252.41.594-.417,1.77-.513,1.9C1047.09,303.376,1046.714,303.644,1046.366,303.644Zm.036-.793h0Zm-11.146-4.438c.952.617,10.289,4.16,11.114,4.427a2.639,2.639,0,0,0,.926-1.459,118.422,118.422,0,0,0-10.507-7.843C1036.26,294.257,1035.079,297.7,1035.256,298.413Z" transform="translate(-1034.467 -292.687)" fill="#684436"/>
      </g>
      <g id="그룹_16233" data-name="그룹 16233" transform="translate(152.805 135.349)">
        <path id="패스_1809" data-name="패스 1809" d="M1766.033,1199.222a1.317,1.317,0,0,1-.37-.054,2.4,2.4,0,0,1-1.471-1.8,1.961,1.961,0,0,1,.593-1.963,1.491,1.491,0,0,1,2.218-.044,2.689,2.689,0,0,1-.052,3.459A1.283,1.283,0,0,1,1766.033,1199.222Zm-.052-3.535a1.071,1.071,0,0,0-.674.321h0a1.2,1.2,0,0,0-.334,1.189,1.651,1.651,0,0,0,.917,1.2.47.47,0,0,0,.5-.147,1.881,1.881,0,0,0,.032-2.352A.583.583,0,0,0,1765.981,1195.687Zm-.936.019h0Z" transform="translate(-1764.136 -1194.891)" fill="#684436"/>
      </g>
      <g id="그룹_16234" data-name="그룹 16234" transform="translate(48.363 135.833)">
        <path id="패스_1810" data-name="패스 1810" d="M974.368,1202.867a1.077,1.077,0,0,1-.449-.1,1.62,1.62,0,0,1-.807-1.512,3.543,3.543,0,0,1,1.319-2.419h0a1.1,1.1,0,0,1,1.208-.167,1.723,1.723,0,0,1,.861,1.567,3.3,3.3,0,0,1-1.149,2.222A1.555,1.555,0,0,1,974.368,1202.867Zm.8-3.509a.378.378,0,0,0-.234.1h0a2.809,2.809,0,0,0-1.023,1.778c.012.455.18.733.341.807.2.09.456-.088.6-.2a2.52,2.52,0,0,0,.855-1.617.959.959,0,0,0-.413-.836A.274.274,0,0,0,975.168,1199.359Zm-.485-.209h0Z" transform="translate(-973.112 -1198.561)" fill="#684436"/>
      </g>
    </g>
    <text id="화이팅_" data-name="화이팅 !!" transform="translate(368 360)" fill="#3a4759" font-size="18" font-family="AppleSDGothicNeoSB00"><tspan x="0" y="0">화이팅 !!</tspan></text>
  </g>
</svg>
