<svg xmlns="http://www.w3.org/2000/svg" width="190.666" height="214.65" viewBox="0 0 190.666 214.65">
  <g id="그룹_16312" data-name="그룹 16312" transform="translate(-176.703 -115)">
    <path id="패스_1811" data-name="패스 1811" d="M1084.167,704.593l29.329-3.418,2.393,1.094,1.777,5.4a42.387,42.387,0,0,1,2.6,4.17,2.048,2.048,0,0,1-.137,1.777,147.1,147.1,0,0,1,17.023,16.408c5.264,6.153,9.5,12.579,10.939,19.826,2.051,10.323-3.077,19.758-7.589,26.526-3.282,4.991-6.153,8.819-6.153,8.819a66.389,66.389,0,0,1-2.256,7.383c-1.5,3.828-3.555,7.452-5.264,16.066-.478,2.393-1.026,5.743-1.436,8.409-.479,3.282-2.53,9.844-2.94,13.126-.342,2.734-.41,6.153-.479,8.34-.137,4.991-.205,10.8-.205,10.8s-12.579,4.854-35.14,4.854-55.171-4.922-55.171-4.922.957-5.538,2.8-14.015,4.58-19.962,4.58-19.962l3.282-24.2,1.231-15.724s-1.026,1.777-4.786,4.239-10.118,5.674-10.118,5.674l-3.008,3.829s-9.161-1.5-13.742-6.153c-13.878-14.015-10.391-18.732-10.391-18.732l16.749-6.836-.342-1.778,1.231.274.82,3.213a15.916,15.916,0,0,1,3.9-6.631c3.76-3.965,10.186-9.434,12.989-13.6,1.777-2.6,5.059-6.973,8.614-11.622,4.1-5.333,8.477-10.938,12.169-13.331,4.375-2.871,9.913-3.555,13.878-4.239,5.4-.889,9.434-1.846,9.434-1.846Z" transform="translate(-781.442 -524.527)" fill="#f7c667"/>
    <path id="패스_1812" data-name="패스 1812" d="M1498.244,379.113c3.213-6.836,11.9-10.186,20.715-9.981,6.631.137,14.357,3.213,14.357,3.213l8.546,18.185a5.191,5.191,0,0,1,2.6,3.35,10.383,10.383,0,0,1-.889,5.469,6.408,6.408,0,0,1-5.128,3.9,43.663,43.663,0,0,0,.068,8.2,37.5,37.5,0,0,0,1.914,8.067s.205,1.778-5.674,8.136c-4.033,4.307-11.759,6.495-15.724,9.708-1.983,1.641-2.188,7.452-2.188,7.452a8.3,8.3,0,0,1-5.2-.068c-2.256-.957-4.239-3.965-4.239-3.965a22.624,22.624,0,0,0,.41-4.17c-.137-1.983-.547-3.281.068-5.4a12.523,12.523,0,0,1,4.17-6.221l-1.572-5.128s-3.965-1.846-7.52-9.5a85.406,85.406,0,0,1-5.538-18.39C1496.33,386.565,1496.74,382.258,1498.244,379.113Z" transform="translate(-1207.278 -239.383)" fill="#ffedde"/>
    <path id="패스_1813" data-name="패스 1813" d="M724.824,503.884c1.641-2.8,6.221,1.231,10.323,5.538,6.563,6.837,13.195,15.519,13.195,15.519s7.11,2.256,7.657,9.776a49.6,49.6,0,0,1-.342,8.135c-.478,3.623-1.162,6.563-1.026,10.255a73.77,73.77,0,0,0,.957,9.776c.957,5.606,2.6,11.417,3.829,15.929,1.367,4.991,2.256,8.341,2.256,8.341s-5.059,4.17-9.3,5.879a12.281,12.281,0,0,1-7.589.684,35.983,35.983,0,0,1,2.051,3.35c1.367,2.6,3.35,6.221,10.6,10.8A117.368,117.368,0,0,0,775,616.823c7.178,2.94,13.878,4.922,13.878,4.922s-2.461,2.119-2.94,7.657c-.479,5.606,1.025,14.7,1.025,14.7l-.342,3.692s-5.537-3.213-13.947-8.751c-6.9-4.581-15.929-11.144-24.27-15.656a40.765,40.765,0,0,0-6.7-2.94c-3.828-1.3-7.247-1.641-10.46-2.735a25.366,25.366,0,0,1-5.264-2.735c-6.768-4.444-6.495-5.538-7.179-7.315a10.523,10.523,0,0,1-.752-4.717,18.587,18.587,0,0,1-1.5-4.649,4.474,4.474,0,0,1,.889-3.145,5,5,0,0,1,.479-6.495s-2.666-1.572-6.29-3.829a79.258,79.258,0,0,1-8.341-5.743c-1.572-1.367-1.367-2.393-.957-2.871.82-.889,2.188-1.231,4.034-.615,3.418,1.231,8.751,4.17,12.853,6.426,4.17,2.325,7.11,4.034,7.11,4.034s5.674-.752,7.247-.342c1.231.274,3.076,1.709,4.649,2.735a22.322,22.322,0,0,0,2.8,1.572s.547-19.142-2.461-32.747c-1.094-5.2-3.35-7.862-5.674-10.46a39.3,39.3,0,0,1-4.17-5.674c-2.256-4.307.41-5.538.41-5.538s-.547-3.555.547-5.2,3.76-1.367,3.76-1.367-1.5-2.119-.615-3.828,4.033-1.982,4.17-3.076c.273-2.119-2.256-4.717-4.854-7.725C728.31,510.31,723.8,505.593,724.824,503.884Z" transform="translate(-524.783 -354.309)" fill="#ffedde"/>
    <path id="패스_1814" data-name="패스 1814" d="M1455.834,273.834a32.2,32.2,0,0,1,17.912-6.495,29.918,29.918,0,0,1,11.964,1.914c2.188.82,3.965,3.281,5.811,5.059,1.436,1.367,3.145,2.119,4.239,3.145,9.092,8.34,3.076,26.32,3.076,26.32a5.5,5.5,0,0,0-2.461-.684c-1.777,0-4.444.274-6.153-1.025-2.6-1.914-4.307-7.247-4.307-7.247a10.2,10.2,0,0,1-4.034-1.094c-4.238-2.119-5.743-7.247-12.853-6.9-4.922.205-13.536,3.076-15.451,6.426-2.529,4.375-.41,10.6-.41,10.6a8.33,8.33,0,0,1-3.828-2.256c-1.641-1.573-3.555-4.444-3.828-6.768-.547-4.376,1.709-8.682,4.649-13.263C1451.869,278.961,1453.783,275.474,1455.834,273.834Z" transform="translate(-1163.159 -151.946)" fill="#e2b27f"/>
    <path id="패스_1815" data-name="패스 1815" d="M1551.012,877.333s2.051,3.077,4.375,4.034a7.808,7.808,0,0,0,5.128-.137s.137,5.674-4.376,12.648c-3.9,6.016-7.93,13.126-7.93,13.126a56.7,56.7,0,0,1-.205-12.921A136.626,136.626,0,0,1,1551.012,877.333Z" transform="translate(-1251.022 -675.8)" fill="#fff"/>
    <path id="패스_1816" data-name="패스 1816" d="M1032.25,1346.765l4.512,2.6s-.615,1.846-1.641,2.051-.41-.547-2.324-1.3a6.779,6.779,0,0,1-1.983-.889c-.479-.479-.137-.683.273-1.094C1031.566,1347.517,1032.25,1346.765,1032.25,1346.765Z" transform="translate(-806.914 -1078.917)" fill="#c9ac8e"/>
    <path id="패스_1817" data-name="패스 1817" d="M1089.6,1243.684a5,5,0,0,1,1.914.547,16.181,16.181,0,0,1,2.6,1.5l-.752,3.008-4.991-2.461Z" transform="translate(-856.541 -990.398)" fill="#c9ac8e"/>
    <path id="패스_1818" data-name="패스 1818" d="M1037.031,1265.549a1.269,1.269,0,0,1,1.23-.957,12.652,12.652,0,0,1,2.461-1.709,5.113,5.113,0,0,1,2.256-.479l1.162-1.3,5.264,2.8-.479,1.846s1.026,3.623-.205,5.811c-1.231,2.256-4.717,3.145-4.717,3.145l-1.367,1.162-5.128-2.94.205-1.709a14.773,14.773,0,0,1-.615-2.94,3.979,3.979,0,0,1,.342-1.983S1036.963,1265.959,1037.031,1265.549Z" transform="translate(-812.448 -1005.358)" fill="#ffdda5"/>
    <path id="패스_1819" data-name="패스 1819" d="M1046.267,1283.1a4.924,4.924,0,1,1,4.922,5.059A4.976,4.976,0,0,1,1046.267,1283.1Z" transform="translate(-820.384 -1019.905)" fill="#fff7ea"/>
    <g id="그룹_16311" data-name="그룹 16311" transform="translate(176.703 115)">
      <g id="그룹_16237" data-name="그룹 16237" transform="translate(60.229 141.131)">
        <path id="패스_1820" data-name="패스 1820" d="M1151.446,1275.544h-.137a167.727,167.727,0,0,1-26.594-10.938.413.413,0,1,1,.342-.752,168.7,168.7,0,0,0,26.457,10.87.432.432,0,0,1,.273.547A.312.312,0,0,1,1151.446,1275.544Z" transform="translate(-1124.484 -1263.829)" fill="#2f3541"/>
      </g>
      <g id="그룹_16238" data-name="그룹 16238" transform="translate(23.953 116.16)">
        <path id="패스_1821" data-name="패스 1821" d="M899.685,1110a.251.251,0,0,1-.205-.068,26.533,26.533,0,0,1-10.733-11.349,13.088,13.088,0,0,0-2.188-3.282,18.978,18.978,0,0,0-5.127-4.033,11.829,11.829,0,0,0-1.23-.752,21.821,21.821,0,0,0-4.239-2.461,11.953,11.953,0,0,0-4.239-.068,16.49,16.49,0,0,1-3.692,0,.416.416,0,0,1,.137-.821,19.49,19.49,0,0,0,3.487,0,13.449,13.449,0,0,1,4.512.137,25.45,25.45,0,0,1,4.375,2.53c.41.273.82.479,1.231.752a20.325,20.325,0,0,1,5.264,4.239,12.7,12.7,0,0,1,2.256,3.486,28.374,28.374,0,0,0,4.717,6.631,26.714,26.714,0,0,0,5.743,4.376.369.369,0,0,1,.137.547C899.958,1109.936,899.822,1110,899.685,1110Z" transform="translate(-867.69 -1087.058)" fill="#2f3541"/>
      </g>
      <g id="그룹_16239" data-name="그룹 16239" transform="translate(0 105.767)">
        <path id="패스_1822" data-name="패스 1822" d="M720.307,1031.789a.411.411,0,0,1-.273-.068,100.286,100.286,0,0,0-10.46-7.178c-1.367-.82-2.6-1.572-3.692-2.324l-1.846-1.231c-2.871-1.846-5.606-3.555-5.879-5.2a1.43,1.43,0,0,1,.273-1.162c1.641-2.188,4.922-.889,9.024,1.094,2.461,1.162,4.512,2.324,6.905,3.692,1.914,1.094,4.034,2.324,6.768,3.76,6.29,3.282,7.042,3.828,7.11,3.828a.39.39,0,0,1-.479.615c-.068,0-.82-.547-6.973-3.829-2.735-1.436-4.854-2.666-6.768-3.76-2.393-1.367-4.444-2.529-6.837-3.692-4.444-2.051-6.836-2.871-8-1.3a.736.736,0,0,0-.137.547c.2,1.231,3.008,3.076,5.538,4.649.615.41,1.3.82,1.846,1.231,1.094.752,2.393,1.5,3.692,2.324a104.262,104.262,0,0,1,10.6,7.178.362.362,0,0,1,.069.547C720.512,1031.721,720.375,1031.789,720.307,1031.789Z" transform="translate(-698.132 -1013.491)" fill="#2f3541"/>
      </g>
      <g id="그룹_16240" data-name="그룹 16240" transform="translate(14.676 119.444)">
        <path id="패스_1823" data-name="패스 1823" d="M808.634,1124.227a.356.356,0,0,1-.274-.137,43.626,43.626,0,0,1-3.35-4.239c-.41-.547-.82-1.094-1.162-1.573-1.914-2.529-2.666-4.717-.547-7.794a.4.4,0,0,1,.684.41c-1.914,2.735-1.3,4.512.479,6.836.342.479.752,1.026,1.162,1.641a44.39,44.39,0,0,0,3.281,4.17.51.51,0,0,1,0,.615C808.839,1124.158,808.7,1124.227,808.634,1124.227Z" transform="translate(-802.024 -1110.308)" fill="#2f3541"/>
      </g>
      <g id="그룹_16241" data-name="그룹 16241" transform="translate(14.682 125.816)">
        <path id="패스_1824" data-name="패스 1824" d="M806.962,1167.405a.523.523,0,0,1-.342-.137,57.251,57.251,0,0,1-3.418-4.922c-1.162-2.119-1.709-4.991-.273-6.768a.39.39,0,0,1,.615.478c-1.162,1.436-.615,4.034.342,5.88a35.3,35.3,0,0,0,3.35,4.786.356.356,0,0,1-.068.547C807.1,1167.405,807.03,1167.405,806.962,1167.405Z" transform="translate(-802.067 -1155.414)" fill="#2f3541"/>
      </g>
      <g id="그룹_16242" data-name="그룹 16242" transform="translate(92.976 73.646)">
        <path id="패스_1825" data-name="패스 1825" d="M1381.208,904.962c-5.059,0-12.784-2.735-24.68-8.683a.413.413,0,1,1,.342-.752c14.151,7.042,22.492,9.64,27.073,8.272,4.649-1.436,15.382-7.383,22.287-13.058,7.042-5.743,30.9-26.184,42.455-47.1,11.485-20.851-1.846-35.071-11.622-45.463l-.205-.205c-1.641-1.709-3.418-3.35-5.332-5.059-2.119-1.914-4.307-3.9-6.358-6.085a.435.435,0,0,1,.615-.615,74.015,74.015,0,0,0,6.29,6.016c1.914,1.709,3.692,3.35,5.4,5.127l.205.2c9.913,10.6,23.518,25.09,11.759,46.42-11.622,21.057-35.55,41.566-42.66,47.309-6.973,5.674-17.844,11.759-22.56,13.194A8.423,8.423,0,0,1,1381.208,904.962Z" transform="translate(-1356.297 -786.109)" fill="#2f3541"/>
      </g>
      <g id="그룹_16243" data-name="그룹 16243" transform="translate(95.855 154.88)">
        <path id="패스_1826" data-name="패스 1826" d="M1404.453,1369.379a.52.52,0,0,1-.273-.136c-3.76-3.487-7.452-3.829-12.579-4.375a66,66,0,0,1-14.63-2.871.432.432,0,1,1,.274-.821,61.834,61.834,0,0,0,14.425,2.872c5.059.547,9.093.957,13.058,4.58a.432.432,0,0,1,0,.615A.356.356,0,0,1,1404.453,1369.379Z" transform="translate(-1376.678 -1361.157)" fill="#2f3541"/>
      </g>
      <g id="그룹_16244" data-name="그룹 16244" transform="translate(16.085 132.885)">
        <path id="패스_1827" data-name="패스 1827" d="M843.246,1227.124a.251.251,0,0,1-.205-.068,30.321,30.321,0,0,0-6.153-2.735c-3.145-1.025-5.606-1.572-7.589-2.051a21.809,21.809,0,0,1-5.743-1.777c-5.948-3.077-11.759-6.7-11.554-14.63a.41.41,0,0,1,.82,0c-.205,7.452,5.332,10.939,11.075,13.878a22.043,22.043,0,0,0,5.538,1.709,57.464,57.464,0,0,1,7.657,2.051,38.681,38.681,0,0,1,6.289,2.8.369.369,0,0,1,.137.547A.25.25,0,0,1,843.246,1227.124Z" transform="translate(-811.998 -1205.452)" fill="#2f3541"/>
      </g>
      <g id="그룹_16245" data-name="그룹 16245" transform="translate(51.843 156.878)">
        <path id="패스_1828" data-name="패스 1828" d="M1098.213,1397.11a.251.251,0,0,1-.205-.068c-1.025-.615-2.051-1.231-3.213-1.914-6.153-3.76-13.536-8.682-20.031-12.921-3.487-2.256-6.7-4.375-9.435-6.153a.4.4,0,0,1,.41-.684c2.735,1.778,6.016,3.9,9.434,6.153,6.495,4.307,13.947,9.161,20.031,12.921,1.094.684,2.188,1.3,3.145,1.914a.369.369,0,0,1,.137.547C1098.486,1397.042,1098.349,1397.11,1098.213,1397.11Z" transform="translate(-1065.121 -1375.299)" fill="#2f3541"/>
      </g>
      <g id="그룹_16246" data-name="그룹 16246" transform="translate(153.693 51.462)">
        <path id="패스_1829" data-name="패스 1829" d="M1788.927,643.082a.426.426,0,0,1-.41-.273,33.869,33.869,0,0,1-2.393-13.331.41.41,0,1,1,.82,0,32.123,32.123,0,0,0,2.324,13.057.408.408,0,0,1-.273.547Z" transform="translate(-1786.107 -629.067)" fill="#2f3541"/>
      </g>
      <g id="그룹_16247" data-name="그룹 16247" transform="translate(62.766 67.783)">
        <path id="패스_1830" data-name="패스 1830" d="M1142.875,794.119h-.137a.465.465,0,0,1-.274-.547c1.3-3.487,3.35-5.264,5.948-7.452.957-.82,1.983-1.709,3.145-2.735,3.35-3.213,6.153-7.042,9.434-11.485.752-1.025,1.572-2.119,2.393-3.281.684-.957,1.367-1.846,2.051-2.8a98.085,98.085,0,0,1,11.007-13.126c4.375-4.307,10.6-5.333,17.091-6.358,2.8-.479,5.743-.957,8.614-1.709.205-.068.479.068.479.273.068.205-.068.479-.273.479-2.94.752-5.879,1.23-8.682,1.709-6.426,1.025-12.443,1.982-16.681,6.153a88.376,88.376,0,0,0-10.938,13.057c-.684.889-1.367,1.846-2.051,2.8-.821,1.094-1.641,2.188-2.393,3.282-3.282,4.444-6.085,8.34-9.5,11.622-1.162,1.094-2.188,1.983-3.145,2.8-2.6,2.188-4.512,3.76-5.675,7.11A.413.413,0,0,1,1142.875,794.119Z" transform="translate(-1142.447 -744.605)" fill="#2f3541"/>
      </g>
      <g id="그룹_16248" data-name="그룹 16248" transform="translate(62.918 123.311)">
        <path id="패스_1831" data-name="패스 1831" d="M1148.378,1150.466a.394.394,0,0,1-.41-.41,19.419,19.419,0,0,0-3.281-9.913c-.342-.615-.752-1.231-1.094-1.846a.4.4,0,1,1,.684-.41l1.025,1.846a20.435,20.435,0,0,1,3.418,10.255c.068.205-.137.41-.342.479Z" transform="translate(-1143.521 -1137.679)" fill="#2f3541"/>
      </g>
      <g id="그룹_16249" data-name="그룹 16249" transform="translate(40.736 55.528)">
        <path id="패스_1832" data-name="패스 1832" d="M1005.95,720.166a.462.462,0,0,1-.41-.273c-.41-1.436-.821-2.8-1.231-4.239-1.983-7.042-4.1-14.288-4.922-19.347-1.026-6.495-1.573-11.827-.479-16.818.957-4.376,1.367-11.212.41-14.152a11.925,11.925,0,0,0-5.811-6.495c-1.641-.684-3.145,1.025-4.1,2.188a1.8,1.8,0,0,0-.342.41c-1.094,1.162-2.051,3.076-1.709,4.034a1.194,1.194,0,0,0,.957.684c2.393.41,4.444-.615,7.246-2.6a.39.39,0,0,1,.479.615c-2.871,2.051-5.2,3.281-7.862,2.8a1.826,1.826,0,0,1-1.572-1.23c-.479-1.5.82-3.692,1.846-4.854.137-.137.205-.273.342-.41,1.094-1.231,2.94-3.35,5.059-2.393a12.622,12.622,0,0,1,6.221,6.973c.957,3.077.547,10.05-.41,14.562-1.025,4.854-.547,10.118.479,16.544a191.327,191.327,0,0,0,4.922,19.279c.41,1.436.82,2.872,1.231,4.239.068.205-.068.479-.274.479Z" transform="translate(-986.5 -657.849)" fill="#2f3541"/>
      </g>
      <g id="그룹_16250" data-name="그룹 16250" transform="translate(22.987 33.265)">
        <path id="패스_1833" data-name="패스 1833" d="M883.628,536.913c-1.231,0-2.735-.889-4.649-2.119a46.047,46.047,0,0,1-6.29-4.785c-2.871-2.53-4.58-4.239-4.1-6.563.273-1.3,1.5-1.846,2.666-2.393,1.5-.684,2.051-1.026,1.572-1.983-1.572-3.418-4.649-6.7-7.11-9.3-1.094-1.162-2.119-2.256-2.871-3.213a7.883,7.883,0,0,1-1.982-3.692,2.385,2.385,0,0,1,1.025-2.393c.684-.342,1.914-.479,4.034,1.162,5.537,4.376,12.921,12.374,19.279,20.92a.39.39,0,1,1-.615.479c-6.29-8.477-13.6-16.476-19.074-20.783-1.367-1.025-2.461-1.435-3.145-1.094a1.548,1.548,0,0,0-.547,1.573,7.124,7.124,0,0,0,1.777,3.281c.752.889,1.777,1.982,2.871,3.145,2.53,2.666,5.674,5.948,7.315,9.5.82,1.777-.752,2.461-1.983,3.076-.957.479-1.983.957-2.188,1.778-.342,1.778.82,3.145,3.828,5.811a51.022,51.022,0,0,0,6.221,4.717c1.709,1.162,3.623,2.324,4.649,1.914a1.388,1.388,0,0,0,.752-1.094c.205-.684-.479-1.846-1.846-3.487a.39.39,0,1,1,.615-.479c1.709,1.914,2.325,3.213,2.051,4.239a2.172,2.172,0,0,1-1.3,1.641A7.85,7.85,0,0,1,883.628,536.913Z" transform="translate(-860.853 -500.258)" fill="#2f3541"/>
      </g>
      <g id="그룹_16251" data-name="그룹 16251" transform="translate(38.033 56.176)">
        <path id="패스_1834" data-name="패스 1834" d="M971.058,667.023a.356.356,0,0,1-.273-.137,18.2,18.2,0,0,1-3.35-3.829.4.4,0,0,1,.684-.41,18.846,18.846,0,0,0,3.213,3.623.51.51,0,0,1,0,.616A.273.273,0,0,1,971.058,667.023Z" transform="translate(-967.363 -662.44)" fill="#2f3541"/>
      </g>
      <g id="그룹_16252" data-name="그룹 16252" transform="translate(25.935 65.914)">
        <path id="패스_1835" data-name="패스 1835" d="M895.192,786.52h0a.441.441,0,0,1-.41-.41c.137-16.544-1.094-29.671-3.145-35.14a26.042,26.042,0,0,0-5.606-8.683c-2.461-2.735-4.307-6.085-4.307-7.657a3.425,3.425,0,0,1,1.025-2.8,2.807,2.807,0,0,1,2.393-.342c.752.2,10.939,5.264,12.443,7.794a1.3,1.3,0,0,1,.2.957,2.451,2.451,0,0,1-1.436,1.641c-3.076,1.231-9.776-2.6-10.118-2.8a.4.4,0,0,1,.41-.684c1.846,1.094,7.11,3.623,9.366,2.735a1.713,1.713,0,0,0,.957-1.094c.41-1.5-10.8-7.452-12.032-7.794a1.781,1.781,0,0,0-1.709.205,2.644,2.644,0,0,0-.752,2.119c0,1.162,1.641,4.307,4.1,7.11a27.825,27.825,0,0,1,5.811,8.887c2.119,5.606,3.35,18.8,3.213,35.482C895.6,786.383,895.4,786.52,895.192,786.52Z" transform="translate(-881.724 -731.377)" fill="#2f3541"/>
      </g>
      <g id="그룹_16253" data-name="그룹 16253" transform="translate(83.635 98.224)">
        <path id="패스_1836" data-name="패스 1836" d="M1290.587,1013.482h0a.394.394,0,0,1-.41-.41c.205-6.153,1.231-14.835,2.324-24.133,1.231-10.391,2.461-21.125,2.6-28.44a.441.441,0,0,1,.41-.41h0a.441.441,0,0,1,.41.41c-.068,7.384-1.367,18.117-2.6,28.509-1.094,9.229-2.119,17.98-2.324,24.064A.441.441,0,0,1,1290.587,1013.482Z" transform="translate(-1290.177 -960.089)" fill="#2f3541"/>
      </g>
      <g id="그룹_16254" data-name="그룹 16254" transform="translate(72.765 177.869)">
        <path id="패스_1837" data-name="패스 1837" d="M1213.64,1556.023h0a.5.5,0,0,1-.41-.479c1.094-7.452,3.35-16.476,4.444-20.783l.342-1.367c.137-.615.342-1.3.547-2.051.479-1.777,1.094-4.033,1.709-7.11a.416.416,0,1,1,.82.137c-.615,3.077-1.231,5.332-1.709,7.178-.2.752-.41,1.436-.547,2.051l-.342,1.367c-1.094,4.307-3.281,13.263-4.444,20.646A.441.441,0,0,1,1213.64,1556.023Z" transform="translate(-1213.23 -1523.891)" fill="#2f3541"/>
      </g>
      <g id="그룹_16255" data-name="그룹 16255" transform="translate(163.213 145.104)">
        <path id="패스_1838" data-name="패스 1838" d="M1853.906,1356.986h0c-.273,0-.41-.205-.41-.479.137-1.641.137-4.922.137-8.409,0-3.828,0-7.725.205-9.571a59.9,59.9,0,0,1,1.983-9.229c.342-1.367.752-2.735,1.094-4.1a42.337,42.337,0,0,0,.82-4.854,41,41,0,0,1,1.709-8.341c.684-2.325,1.573-4.58,2.461-6.973a104.349,104.349,0,0,0,4.17-12.784.39.39,0,0,1,.752.205,94.359,94.359,0,0,1-4.239,12.853c-.889,2.393-1.778,4.649-2.461,6.9a44.2,44.2,0,0,0-1.641,8.2,46.19,46.19,0,0,1-.82,4.922c-.342,1.367-.684,2.8-1.094,4.17a58.246,58.246,0,0,0-1.983,9.093c-.2,1.777-.2,5.743-.2,9.5,0,3.487,0,6.837-.137,8.477A.319.319,0,0,1,1853.906,1356.986Z" transform="translate(-1853.496 -1291.953)" fill="#2f3541"/>
      </g>
      <g id="그룹_16256" data-name="그룹 16256" transform="translate(120.895 109.941)">
        <path id="패스_1839" data-name="패스 1839" d="M1554.341,1091.482h0c-.273,0-.41-.205-.41-.479.342-2.734,1.709-3.965,3.213-5.264a11.858,11.858,0,0,0,3.623-4.649,59.1,59.1,0,0,1,8.409-14.562c3.35-4.581,5.948-8,8.2-11.075,3.487-4.649,6.016-7.93,8.819-12.237a.446.446,0,0,1,.547-.137.379.379,0,0,1,.137.547c-2.871,4.239-5.333,7.588-8.819,12.237-2.256,3.008-4.854,6.495-8.2,11.075-4.17,5.743-6.153,9.093-8.272,14.357a12.612,12.612,0,0,1-3.828,4.99c-1.435,1.231-2.666,2.325-2.939,4.717C1554.683,1091.345,1554.546,1091.482,1554.341,1091.482Z" transform="translate(-1553.931 -1043.039)" fill="#2f3541"/>
      </g>
      <g id="그룹_16257" data-name="그룹 16257" transform="translate(116.638 50.692)">
        <path id="패스_1840" data-name="패스 1840" d="M1542.208,642.025c-4.034,0-8.2-2.051-11.554-5.674a34.782,34.782,0,0,1-6.836-12.169.432.432,0,1,1,.82-.274,33.524,33.524,0,0,0,6.7,11.827c3.35,3.623,7.521,5.537,11.485,5.4,4.649-.205,12.853-4.717,15.587-13.536a.432.432,0,1,1,.82.273c-2.8,9.229-11.417,13.878-16.339,14.152Z" transform="translate(-1523.8 -623.617)" fill="#2f3541"/>
      </g>
      <g id="그룹_16258" data-name="그룹 16258" transform="translate(153.628 35.805)">
        <path id="패스_1841" data-name="패스 1841" d="M1786.414,531.773H1786a.416.416,0,0,1,.137-.82c2.871.273,5.469-3.145,6.084-6.495a4.926,4.926,0,0,0-1.709-4.854,3.412,3.412,0,0,0-3.76,0,.4.4,0,1,1-.41-.684,4.116,4.116,0,0,1,4.649.068,5.7,5.7,0,0,1,2.051,5.674C1792.293,528.15,1789.558,531.773,1786.414,531.773Z" transform="translate(-1785.648 -518.236)" fill="#2f3541"/>
      </g>
      <g id="그룹_16259" data-name="그룹 16259" transform="translate(128.986 41.181)">
        <path id="패스_1842" data-name="패스 1842" d="M1613.3,565.684a.251.251,0,0,1-.205-.068c-2.461-1.573-1.983-2.8-1.5-4.1a5.089,5.089,0,0,0-.205-4.649.413.413,0,0,1,.752-.342,5.706,5.706,0,0,1,.205,5.264c-.479,1.23-.684,1.914,1.162,3.145a.407.407,0,0,1-.205.752Z" transform="translate(-1611.207 -556.293)" fill="#2f3541"/>
      </g>
      <g id="그룹_16260" data-name="그룹 16260" transform="translate(132.9 33.249)">
        <path id="패스_1843" data-name="패스 1843" d="M1639.352,502.153c-.137,0-.205-.068-.342-.137a.356.356,0,0,1,.068-.547c2.188-1.914,6.974-1.367,8.478-.752a.413.413,0,1,1-.342.752c-1.436-.615-5.811-1.026-7.657.615C1639.489,502.084,1639.42,502.153,1639.352,502.153Z" transform="translate(-1638.914 -500.143)" fill="#2f3541"/>
      </g>
      <g id="그룹_16261" data-name="그룹 16261" transform="translate(117.1 36.07)">
        <path id="패스_1844" data-name="패스 1844" d="M1527.447,522.448a.354.354,0,0,1-.273-.137.509.509,0,0,1,0-.615,7.736,7.736,0,0,1,7.11-1.231.39.39,0,1,1-.2.752,6.964,6.964,0,0,0-6.358,1.094C1527.652,522.448,1527.584,522.448,1527.447,522.448Z" transform="translate(-1527.071 -520.115)" fill="#2f3541"/>
      </g>
      <g id="그룹_16262" data-name="그룹 16262" transform="translate(154.186 40.931)">
        <path id="패스_1845" data-name="패스 1845" d="M1790.008,557.667a.251.251,0,0,1-.205-.069.369.369,0,0,1-.137-.547,8.458,8.458,0,0,1,2.393-2.461.4.4,0,0,1,.41.684,6.439,6.439,0,0,0-2.119,2.256C1790.35,557.6,1790.145,557.667,1790.008,557.667Z" transform="translate(-1789.595 -554.519)" fill="#2f3541"/>
      </g>
      <g id="그룹_16263" data-name="그룹 16263" transform="translate(112.232 24.97)">
        <path id="패스_1846" data-name="패스 1846" d="M1494.1,455.858a.433.433,0,0,1-.41-.342c-.137-.41-2.734-10.6.684-13.878a.435.435,0,0,1,.615.615c-2.393,2.324-1.367,9.571-.41,13.058.068.2-.068.479-.274.479C1494.165,455.858,1494.165,455.858,1494.1,455.858Z" transform="translate(-1492.613 -441.536)" fill="#2f3541"/>
      </g>
      <path id="패스_1847" data-name="패스 1847" d="M1672.867,537.829a1.755,1.755,0,0,0-1.983-1.436,1.867,1.867,0,0,0-1.094,2.256,1.755,1.755,0,0,0,1.982,1.436A1.81,1.81,0,0,0,1672.867,537.829Z" transform="translate(-1532.488 -497.989)" fill="#343b4b"/>
      <g id="그룹_16264" data-name="그룹 16264" transform="translate(126.244 52.801)">
        <path id="패스_1848" data-name="패스 1848" d="M1594.582,644.321s2.8,6.563,7.657,5.2c4.444-1.231,4.786-7.383,4.786-7.383s-3.555.957-6.7,1.5C1597.248,644.115,1594.582,644.321,1594.582,644.321Z" transform="translate(-1594.189 -641.626)" fill="#fff"/>
        <path id="패스_1849" data-name="패스 1849" d="M1598.551,647.051c-4.307,0-6.7-5.606-6.7-5.674a.436.436,0,0,1,0-.41.376.376,0,0,1,.342-.205,51.972,51.972,0,0,0,5.743-.684c3.077-.547,6.631-1.5,6.631-1.5a.3.3,0,0,1,.342.068.523.523,0,0,1,.137.342c0,.273-.41,6.495-5.059,7.794A3.571,3.571,0,0,1,1598.551,647.051Zm-5.674-5.469c.752,1.5,3.213,5.469,6.9,4.444,3.35-.957,4.239-4.991,4.444-6.495-1.162.274-3.76.957-6.153,1.367A52.047,52.047,0,0,1,1592.877,641.582Z" transform="translate(-1591.8 -638.545)" fill="#2f3541"/>
      </g>
      <g id="그룹_16265" data-name="그룹 16265" transform="translate(146.681 30.76)">
        <path id="패스_1850" data-name="패스 1850" d="M1741.724,487.433h-.068c-2.871-.547-4.17-2.393-5.128-4.307a.413.413,0,0,1,.752-.342c1.026,1.982,2.256,3.418,4.581,3.9a.514.514,0,0,1,.342.478A.867.867,0,0,1,1741.724,487.433Z" transform="translate(-1736.473 -482.524)" fill="#2f3541"/>
      </g>
      <g id="그룹_16266" data-name="그룹 16266" transform="translate(154.503 9.595)">
        <path id="패스_1851" data-name="패스 1851" d="M1796.177,360.209h-.137a.465.465,0,0,1-.273-.547c4.444-11.827,1.367-22.355-3.76-26.252a.39.39,0,0,1,.479-.615c5.469,4.17,8.614,14.835,4.034,27.209C1796.519,360.072,1796.382,360.209,1796.177,360.209Z" transform="translate(-1791.843 -332.699)" fill="#2f3541"/>
      </g>
      <path id="패스_1852" data-name="패스 1852" d="M1554.3,559.123a1.755,1.755,0,0,0-1.982-1.436,1.867,1.867,0,0,0-1.094,2.256,1.617,1.617,0,1,0,3.076-.82Z" transform="translate(-1430.671 -516.275)" fill="#343b4b"/>
      <g id="그룹_16267" data-name="그룹 16267" transform="translate(110.91 0)">
        <path id="패스_1853" data-name="패스 1853" d="M1483.667,277.748a.252.252,0,0,1-.205-.068.369.369,0,0,1-.137-.547c4.786-8.409,14.494-11.007,18.39-11.759,7.793-1.436,17.228-.478,20.714,4.991a.4.4,0,1,1-.684.41c-2.8-4.444-10.8-6.29-19.826-4.58-3.829.684-13.263,3.213-17.843,11.348A.413.413,0,0,1,1483.667,277.748Z" transform="translate(-1483.254 -264.776)" fill="#2f3541"/>
      </g>
      <g id="그룹_16268" data-name="그룹 16268" transform="translate(105.281 16.5)">
        <path id="패스_1854" data-name="패스 1854" d="M1448.352,400.816a.251.251,0,0,1-.205-.068,10.866,10.866,0,0,1-4.649-7.589c-.342-2.666.069-6.768,4.17-11.417a.362.362,0,0,1,.547-.068.424.424,0,0,1,.068.547c-3.077,3.487-4.444,7.247-3.965,10.8a9.937,9.937,0,0,0,4.307,6.973.379.379,0,0,1,.137.547A.494.494,0,0,1,1448.352,400.816Z" transform="translate(-1443.403 -381.578)" fill="#2f3541"/>
      </g>
      <g id="그룹_16269" data-name="그룹 16269" transform="translate(69.739 135.319)">
        <path id="패스_1855" data-name="패스 1855" d="M1192.238,1233.444a.434.434,0,0,1-.41-.342.389.389,0,0,1,.274-.479c3.008-.752,12.032-6.153,14.972-9.776a.39.39,0,1,1,.615.478c-3.145,3.828-12.306,9.3-15.382,10.05A.067.067,0,0,1,1192.238,1233.444Z" transform="translate(-1191.81 -1222.684)" fill="#2f3541"/>
      </g>
      <g id="그룹_16270" data-name="그룹 16270" transform="translate(27.088 59.451)">
        <path id="패스_1856" data-name="패스 1856" d="M890.58,692.741a.434.434,0,0,1-.41-.342,12.617,12.617,0,0,1-.273-2.94,4.792,4.792,0,0,1,1.572-3.213,2.724,2.724,0,0,1,2.393-.547,6.448,6.448,0,0,1,2.188.957.4.4,0,0,1-.41.684,7.518,7.518,0,0,0-1.914-.889,1.884,1.884,0,0,0-1.709.41,3.832,3.832,0,0,0-1.3,2.666,9.465,9.465,0,0,0,.205,2.735.389.389,0,0,1-.273.479Z" transform="translate(-889.887 -685.622)" fill="#2f3541"/>
      </g>
      <g id="그룹_16271" data-name="그룹 16271" transform="translate(40.342 67.521)">
        <path id="패스_1857" data-name="패스 1857" d="M985.712,749.115A7.293,7.293,0,0,1,984,748.91a.39.39,0,1,1,.205-.752c1.846.479,3.281.068,3.623-.615.479-1.094-1.5-2.871-2.666-3.965l-.137-.068a.438.438,0,0,1,.547-.684l.137.068c1.573,1.367,3.624,3.213,2.871,4.922C988.241,748.637,987.079,749.115,985.712,749.115Z" transform="translate(-983.711 -742.751)" fill="#2f3541"/>
      </g>
      <g id="그룹_16272" data-name="그룹 16272" transform="translate(126.073 65.185)">
        <path id="패스_1858" data-name="패스 1858" d="M1594.431,737.718a.461.461,0,0,1-.41-.273c0-.068-2.53-8-3.418-10.665a.432.432,0,1,1,.82-.273c.889,2.666,3.418,10.6,3.418,10.665a.465.465,0,0,1-.274.547Z" transform="translate(-1590.585 -726.215)" fill="#2f3541"/>
      </g>
      <g id="그룹_16273" data-name="그룹 16273" transform="translate(110.845 62.451)">
        <path id="패스_1859" data-name="패스 1859" d="M1483.2,801.424h0a.5.5,0,0,1-.41-.479c3.555-21.467,7.11-35.755,10.46-42.386,1.641-3.213,3.487-6.221,5.127-8.819,2.8-4.444,5.2-8.272,5.606-11.9.2-1.436.273-2.666.342-3.76.205-2.461.342-4.17,1.231-5.538,1.709-2.529,4.649-4.034,8.135-5.811,5.811-2.94,12.442-6.29,15.314-15.587a.432.432,0,1,1,.82.274c-2.939,9.639-10.05,13.194-15.724,16.134-3.35,1.709-6.29,3.213-7.862,5.538-.752,1.162-.889,2.8-1.094,5.127-.068,1.094-.2,2.393-.342,3.828-.478,3.76-2.939,7.725-5.742,12.237a92.748,92.748,0,0,0-5.059,8.751c-3.35,6.563-6.836,20.783-10.391,42.181A.584.584,0,0,1,1483.2,801.424Z" transform="translate(-1482.79 -706.857)" fill="#2f3541"/>
      </g>
      <g id="그룹_16274" data-name="그룹 16274" transform="translate(101.821 189.149)">
        <path id="패스_1860" data-name="패스 1860" d="M1419.318,1628.286h0a.394.394,0,0,1-.41-.41,209.244,209.244,0,0,1,3.35-23.176l.137-.615a.416.416,0,0,1,.82.137l-.137.615a209.657,209.657,0,0,0-3.281,23.108A.514.514,0,0,1,1419.318,1628.286Z" transform="translate(-1418.908 -1603.743)" fill="#2f3541"/>
      </g>
      <g id="그룹_16275" data-name="그룹 16275" transform="translate(119.671 70.091)">
        <path id="패스_1861" data-name="패스 1861" d="M1546.152,807.6a.383.383,0,0,1-.41-.342c-.068-.41-1.026-10.938,0-16.339.615-3.076,1.162-5.879,1.777-8.546.41-2.051.82-3.965,1.231-6.016a14.458,14.458,0,0,0,.068-3.829c-.273-3.145-.547-6.358,4.444-11.485a.435.435,0,0,1,.615.615c-4.717,4.854-4.512,7.725-4.239,10.8a13.842,13.842,0,0,1-.068,4.1c-.41,1.983-.82,3.965-1.231,6.016-.547,2.666-1.162,5.469-1.777,8.546-1.026,5.332,0,16,0,16.134.068.069-.137.274-.41.342Z" transform="translate(-1545.271 -760.944)" fill="#2f3541"/>
      </g>
      <g id="그룹_16276" data-name="그룹 16276" transform="translate(123.096 86.068)">
        <path id="패스_1862" data-name="패스 1862" d="M1576.882,879.359a8.088,8.088,0,0,1-7.315-4.717.413.413,0,1,1,.752-.342c2.393,4.717,6.9,4.649,8.614,3.9a.413.413,0,0,1,.342.752A7.542,7.542,0,0,1,1576.882,879.359Z" transform="translate(-1569.511 -874.039)" fill="#2f3541"/>
      </g>
      <g id="그룹_16277" data-name="그룹 16277" transform="translate(134.481 61.22)">
        <path id="패스_1863" data-name="패스 1863" d="M1665.305,731.389c-1.3,0-2.735-2.188-4.923-5.674q-.923-1.538-1.846-2.871c-1.982-2.871-3.828-3.35-7.93-2.188-.205.068-.479-.068-.479-.273-.068-.205.068-.479.273-.479,4.444-1.3,6.631-.615,8.819,2.53.615.82,1.231,1.846,1.846,2.871,1.436,2.256,3.282,5.4,4.239,5.264.684-.068,1.5-1.914,2.393-4.033a73.192,73.192,0,0,1,3.486-6.973,60.644,60.644,0,0,1,4.1-6.084c1.23-1.709,2.119-2.872,2.119-3.623,0-.342-.274-.752-.752-1.5a22.576,22.576,0,0,1-2.051-3.555,13,13,0,0,1-1.026-2.8c-.479-1.641-.821-2.6-2.6-3.076a.39.39,0,0,1,.205-.752c2.256.615,2.6,1.846,3.145,3.623a15.393,15.393,0,0,0,1.026,2.735,24.194,24.194,0,0,0,1.983,3.418,3.86,3.86,0,0,1,.889,1.914c0,1.025-.82,2.188-2.256,4.1-1.094,1.5-2.461,3.418-4.034,6.016a65.619,65.619,0,0,0-3.486,6.9c-1.231,2.735-1.983,4.375-3.077,4.512Z" transform="translate(-1650.11 -698.146)" fill="#2f3541"/>
      </g>
      <g id="그룹_16278" data-name="그룹 16278" transform="translate(110.893 65.108)">
        <path id="패스_1864" data-name="패스 1864" d="M1484.106,746.271a1.164,1.164,0,0,1-.479-.068c-.342-.068-.41-.342-.478-.41-.137-.547.41-1.162,1.572-2.6a39.637,39.637,0,0,0,3.623-4.717c.615-1.025,1.231-2.051,1.778-3.076a32.124,32.124,0,0,1,7.383-9.639.39.39,0,0,1,.479.615c-3.828,3.281-5.469,6.29-7.247,9.434-.547,1.025-1.162,2.051-1.777,3.076a42.164,42.164,0,0,1-3.692,4.854,16.272,16.272,0,0,0-1.367,1.709c.889.068,2.53-1.162,4.17-2.324,2.8-2.119,6.016-4.444,7.93-2.051a.39.39,0,1,1-.615.478c-1.3-1.641-3.624-.137-6.768,2.188C1486.841,745.109,1485.337,746.271,1484.106,746.271Z" transform="translate(-1483.128 -725.666)" fill="#2f3541"/>
      </g>
      <g id="그룹_16279" data-name="그룹 16279" transform="translate(92.181 3.777)">
        <path id="패스_1865" data-name="패스 1865" d="M1351.081,308.295h0c-.273,0-.41-.2-.41-.478.615-6.084,3.213-11.28,8.135-16.2a.435.435,0,0,1,.615.615c-4.786,4.786-7.315,9.776-7.93,15.724A.443.443,0,0,1,1351.081,308.295Z" transform="translate(-1350.671 -291.511)" fill="#2f3541"/>
      </g>
      <g id="그룹_16280" data-name="그룹 16280" transform="translate(92.906 2.759)">
        <path id="패스_1866" data-name="패스 1866" d="M1361.779,290.074a.376.376,0,0,1-.342-.205c-1.025-1.436-5.469-4.785-5.469-4.854a.39.39,0,0,1,.479-.615c.2.137,4.58,3.487,5.674,4.991a.414.414,0,0,1-.068.547C1361.984,290.074,1361.916,290.074,1361.779,290.074Z" transform="translate(-1355.804 -284.304)" fill="#2f3541"/>
      </g>
      <g id="그룹_16281" data-name="그룹 16281" transform="translate(90.659 9.604)">
        <path id="패스_1867" data-name="패스 1867" d="M1345.522,335.858a.251.251,0,0,1-.205-.068l-.615-.342a21.847,21.847,0,0,0-4.512-1.914.39.39,0,1,1,.2-.752,27.954,27.954,0,0,1,4.649,1.983l.615.342a.431.431,0,0,1,.2.547A.376.376,0,0,1,1345.522,335.858Z" transform="translate(-1339.899 -332.763)" fill="#2f3541"/>
      </g>
      <g id="그룹_16282" data-name="그룹 16282" transform="translate(89.652 15.638)">
        <path id="패스_1868" data-name="패스 1868" d="M1337.209,376.639h-.069a17.853,17.853,0,0,0-3.965-.342.41.41,0,1,1,0-.82,24.875,24.875,0,0,1,4.1.342.515.515,0,0,1,.342.479A.433.433,0,0,1,1337.209,376.639Z" transform="translate(-1332.765 -375.477)" fill="#2f3541"/>
      </g>
      <g id="그룹_16283" data-name="그룹 16283" transform="translate(48.695 142.723)">
        <path id="패스_1869" data-name="패스 1869" d="M1048.245,1286.04h-.2a5.432,5.432,0,0,1-5.2-5.674h0a5.823,5.823,0,0,1,1.709-3.828,5.236,5.236,0,0,1,3.9-1.436,5.307,5.307,0,0,1,3.76,1.777,5.522,5.522,0,0,1,1.436,3.9,5.823,5.823,0,0,1-1.709,3.828A5.339,5.339,0,0,1,1048.245,1286.04Zm-4.58-5.606a4.693,4.693,0,0,0,4.375,4.854,4.478,4.478,0,0,0,3.282-1.23,4.749,4.749,0,0,0,1.5-3.213,4.638,4.638,0,0,0-1.231-3.35,4.746,4.746,0,0,0-3.213-1.5,4.478,4.478,0,0,0-3.281,1.23,4.4,4.4,0,0,0-1.436,3.213Z" transform="translate(-1042.838 -1275.096)" fill="#2f3541"/>
      </g>
      <g id="그룹_16284" data-name="그룹 16284" transform="translate(47.594 140.31)">
        <path id="패스_1870" data-name="패스 1870" d="M1040.937,1273.695a.251.251,0,0,1-.205-.068l-5.2-3.008a.417.417,0,0,1-.205-.479,13.083,13.083,0,0,0,.342-1.436,6.072,6.072,0,0,1-.615-3.076h0a6.6,6.6,0,0,1,5.88-6.29,6.591,6.591,0,0,0,.957-1.162.532.532,0,0,1,.547-.137l5.333,2.871a.458.458,0,0,1,.205.547,8.643,8.643,0,0,0-.615,1.573,6.656,6.656,0,0,1,.684,3.145,6.464,6.464,0,0,1-5.674,6.221,12.413,12.413,0,0,0-1.162,1.094A.366.366,0,0,1,1040.937,1273.695Zm-4.717-3.623,4.649,2.666c.957-1.094,1.3-1.162,1.435-1.162a5.778,5.778,0,0,0,4.991-5.469,4.852,4.852,0,0,0-.615-2.8c-.069-.137-.205-.342.479-1.914l-4.718-2.461c-.889,1.23-1.162,1.23-1.3,1.23a5.745,5.745,0,0,0-5.264,5.469,5.319,5.319,0,0,0,.547,2.735C1036.493,1268.567,1036.63,1268.772,1036.219,1270.071Z" transform="translate(-1035.044 -1258.012)" fill="#2f3541"/>
      </g>
      <g id="그룹_16285" data-name="그룹 16285" transform="translate(46.599 152.382)">
        <path id="패스_1871" data-name="패스 1871" d="M1032.834,1349.065a2.853,2.853,0,0,1-1.367-.684,5.685,5.685,0,0,0-.82-.547l-1.231-.615c-.752-.342-1.23-.547-1.367-.957a.585.585,0,0,1,0-.479,3.318,3.318,0,0,1,.615-.889,3.726,3.726,0,0,0,.684-1.162.413.413,0,0,1,.752.342,4.76,4.76,0,0,1-.82,1.367,2.457,2.457,0,0,0-.479.684,5.2,5.2,0,0,0,.889.479c.41.205.82.41,1.3.683a10.132,10.132,0,0,1,.889.615,3.451,3.451,0,0,0,.889.547c.479-.205,1.162-1.367,1.436-1.777a.4.4,0,0,1,.684.41,5.335,5.335,0,0,1-1.846,2.12C1032.971,1349,1032.9,1349.065,1032.834,1349.065Z" transform="translate(-1027.998 -1343.472)" fill="#2f3541"/>
      </g>
      <g id="그룹_16286" data-name="그룹 16286" transform="translate(54.827 137.759)">
        <path id="패스_1872" data-name="패스 1872" d="M1091.467,1245.885a.252.252,0,0,1-.205-.068.431.431,0,0,1-.2-.547,16.137,16.137,0,0,0,.752-2.393c0-.137-.547-.41-.889-.615-.205-.137-.479-.205-.684-.342l-.274-.205a10.434,10.434,0,0,0-1.983-.957v.137a6.8,6.8,0,0,1-1.025,2.324.39.39,0,1,1-.615-.478,4.793,4.793,0,0,0,.889-2.051c0-.137.068-.205.068-.274a.616.616,0,0,1,.41-.41c.615-.2,1.5.273,2.735.957l.273.205c.205.137.41.205.615.342.752.342,1.5.752,1.367,1.5a14.159,14.159,0,0,1-.82,2.6A.494.494,0,0,1,1091.467,1245.885Z" transform="translate(-1086.244 -1239.958)" fill="#2f3541"/>
      </g>
      <g id="그룹_16287" data-name="그룹 16287" transform="translate(47.48 143.719)">
        <path id="패스_1873" data-name="패스 1873" d="M1034.911,1284.783a.251.251,0,0,1-.205-.068,1.175,1.175,0,0,1-.2-1.709c.41-.752,1.094-1.026,1.641-.752a.413.413,0,0,1-.342.752c-.137-.069-.342.137-.547.41-.137.274-.205.547-.068.615a.369.369,0,0,1,.137.547A.591.591,0,0,1,1034.911,1284.783Z" transform="translate(-1034.237 -1282.15)" fill="#2f3541"/>
      </g>
      <g id="그룹_16288" data-name="그룹 16288" transform="translate(53.555 147.583)">
        <path id="패스_1874" data-name="패스 1874" d="M1077.854,1310.869a.687.687,0,1,1,.615-.684A.631.631,0,0,1,1077.854,1310.869Zm0-.889c-.069,0-.205.068-.205.136a.172.172,0,0,0,.342,0C1078.06,1310.117,1077.991,1309.98,1077.854,1309.98Z" transform="translate(-1077.239 -1309.502)" fill="#2f3541"/>
      </g>
      <g id="그룹_16289" data-name="그룹 16289" transform="translate(53.692 145.532)">
        <path id="패스_1875" data-name="패스 1875" d="M1078.755,1297.923a.394.394,0,0,1-.41-.41l-.137-2.119a.41.41,0,1,1,.82,0l.137,2.119a.394.394,0,0,1-.41.41Z" transform="translate(-1078.208 -1294.983)" fill="#2f3541"/>
      </g>
      <g id="그룹_16290" data-name="그룹 16290" transform="translate(50.752 147.857)">
        <path id="패스_1876" data-name="패스 1876" d="M1057.807,1312.53a.383.383,0,0,1-.41-.342.514.514,0,0,1,.342-.479l3.076-.273a.416.416,0,0,1,.137.821l-3.145.273Z" transform="translate(-1057.397 -1311.436)" fill="#2f3541"/>
      </g>
      <g id="그룹_16291" data-name="그룹 16291" transform="translate(52.064 151.698)">
        <path id="패스_1877" data-name="패스 1877" d="M1067.084,1340.123h-.137a.378.378,0,0,1-.205-.547l.274-.683a.413.413,0,1,1,.752.342l-.273.684A.584.584,0,0,1,1067.084,1340.123Z" transform="translate(-1066.687 -1338.632)" fill="#2f3541"/>
      </g>
      <g id="그룹_16292" data-name="그룹 16292" transform="translate(54.088 151.808)">
        <path id="패스_1878" data-name="패스 1878" d="M1081.576,1341a.433.433,0,0,1-.41-.342l-.137-.752c-.068-.205.137-.41.342-.478s.41.137.479.342l.137.752a.385.385,0,0,1-.41.479Z" transform="translate(-1081.016 -1339.411)" fill="#2f3541"/>
      </g>
      <g id="그룹_16293" data-name="그룹 16293" transform="translate(56.05 151.036)">
        <path id="패스_1879" data-name="패스 1879" d="M1095.758,1335.341a.354.354,0,0,1-.273-.137l-.479-.547a.435.435,0,0,1,.615-.615l.479.547a.51.51,0,0,1,0,.615A.441.441,0,0,1,1095.758,1335.341Z" transform="translate(-1094.904 -1333.94)" fill="#2f3541"/>
      </g>
      <g id="그룹_16294" data-name="그룹 16294" transform="translate(57.221 149.404)">
        <path id="패스_1880" data-name="패스 1880" d="M1104.174,1323.506a.251.251,0,0,1-.205-.068l-.547-.273a.413.413,0,0,1,.342-.752l.547.273a.431.431,0,0,1,.205.547A.349.349,0,0,1,1104.174,1323.506Z" transform="translate(-1103.191 -1322.386)" fill="#2f3541"/>
      </g>
      <g id="그룹_16295" data-name="그룹 16295" transform="translate(57.575 147.16)">
        <path id="패스_1881" data-name="패스 1881" d="M1106.121,1307.473a.434.434,0,0,1-.41-.342c-.068-.2.137-.41.342-.479l.684-.137c.205-.068.41.137.479.342s-.137.41-.342.478l-.752.137Z" transform="translate(-1105.697 -1306.503)" fill="#2f3541"/>
      </g>
      <g id="그룹_16296" data-name="그룹 16296" transform="translate(56.967 145.048)">
        <path id="패스_1882" data-name="패스 1882" d="M1101.81,1292.856a.522.522,0,0,1-.342-.137.413.413,0,0,1,.068-.547l.752-.547a.39.39,0,1,1,.478.615l-.752.547A.25.25,0,0,1,1101.81,1292.856Z" transform="translate(-1101.394 -1291.551)" fill="#2f3541"/>
      </g>
      <g id="그룹_16297" data-name="그룹 16297" transform="translate(55.51 143.728)">
        <path id="패스_1883" data-name="패스 1883" d="M1091.52,1283.6a.411.411,0,0,1-.273-.068.362.362,0,0,1-.068-.547l.479-.615a.39.39,0,1,1,.615.479l-.478.615C1091.794,1283.536,1091.657,1283.6,1091.52,1283.6Z" transform="translate(-1091.083 -1282.21)" fill="#2f3541"/>
      </g>
      <g id="그룹_16298" data-name="그룹 16298" transform="translate(53.332 143.122)">
        <path id="패스_1884" data-name="패스 1884" d="M1076.226,1279.372a.434.434,0,0,1-.411-.342l-.137-.615a.39.39,0,0,1,.752-.205l.137.615a.389.389,0,0,1-.273.479A.067.067,0,0,1,1076.226,1279.372Z" transform="translate(-1075.661 -1277.918)" fill="#2f3541"/>
      </g>
      <g id="그룹_16299" data-name="그룹 16299" transform="translate(51.341 143.631)">
        <path id="패스_1885" data-name="패스 1885" d="M1062.349,1283.084a.376.376,0,0,1-.342-.2l-.41-.752a.431.431,0,0,1,.205-.547.378.378,0,0,1,.547.205l.41.752a.431.431,0,0,1-.205.547Z" transform="translate(-1061.572 -1281.525)" fill="#2f3541"/>
      </g>
      <g id="그룹_16300" data-name="그룹 16300" transform="translate(49.808 145.477)">
        <path id="패스_1886" data-name="패스 1886" d="M1051.8,1295.673h-.137l-.683-.274a.413.413,0,1,1,.342-.752l.684.273a.378.378,0,0,1,.205.547A.487.487,0,0,1,1051.8,1295.673Z" transform="translate(-1050.717 -1294.593)" fill="#2f3541"/>
      </g>
      <g id="그룹_16301" data-name="그룹 16301" transform="translate(49.042 147.446)">
        <path id="패스_1887" data-name="패스 1887" d="M1046.46,1309.354h-.752a.441.441,0,0,1-.41-.411.394.394,0,0,1,.41-.41h.684a.441.441,0,0,1,.41.41A.319.319,0,0,1,1046.46,1309.354Z" transform="translate(-1045.298 -1308.533)" fill="#2f3541"/>
      </g>
      <g id="그룹_16302" data-name="그룹 16302" transform="translate(49.261 149.237)">
        <path id="패스_1888" data-name="패스 1888" d="M1047.242,1322.427a.389.389,0,0,1-.137-.752l.752-.41a.378.378,0,0,1,.547.2.431.431,0,0,1-.2.547l-.752.41Z" transform="translate(-1046.845 -1321.21)" fill="#2f3541"/>
      </g>
      <g id="그룹_16303" data-name="그룹 16303" transform="translate(50.444 150.625)">
        <path id="패스_1889" data-name="패스 1889" d="M1055.6,1332.37a.355.355,0,0,1-.273-.137.51.51,0,0,1,0-.615l.479-.478a.435.435,0,1,1,.615.615l-.479.479A.376.376,0,0,1,1055.6,1332.37Z" transform="translate(-1055.22 -1331.036)" fill="#2f3541"/>
      </g>
      <g id="그룹_16304" data-name="그룹 16304" transform="translate(83.946 151.185)">
        <path id="패스_1890" data-name="패스 1890" d="M1302.117,1369.2a6.212,6.212,0,0,1-2.871-1.162c-.205-.136-.479-.273-.752-.478a5.863,5.863,0,0,0-2.256-.752,3.781,3.781,0,0,1-2.666-1.367c-.684-.889-.547-2.735-.205-5.879a47.8,47.8,0,0,0-.41-6.769,61.211,61.211,0,0,1-.547-8.682c.342-4.717,1.641-7.589,4.034-8.888,1.025-.547,1.982,0,2.94.547.342.205.752.41,1.094.615a4.432,4.432,0,0,0,1.436.342c1.3.273,3.008.547,3.965,2.324a.4.4,0,0,1-.683.41c-.752-1.436-2.12-1.641-3.35-1.914a9.591,9.591,0,0,1-1.641-.41c-.41-.2-.82-.41-1.162-.615-.957-.547-1.5-.889-2.119-.547-2.119,1.162-3.281,3.828-3.623,8.272a58.286,58.286,0,0,0,.547,8.545,34.651,34.651,0,0,1,.41,6.974c-.273,2.256-.478,4.512.068,5.264a2.907,2.907,0,0,0,2.188,1.026,7.035,7.035,0,0,1,2.53.889,7.132,7.132,0,0,1,.752.479c1.5.889,2.188,1.3,3.145.889a.413.413,0,1,1,.342.752A8.715,8.715,0,0,1,1302.117,1369.2Z" transform="translate(-1292.379 -1334.998)" fill="#2f3541"/>
      </g>
      <g id="그룹_16305" data-name="그룹 16305" transform="translate(91.75 154.598)">
        <path id="패스_1891" data-name="패스 1891" d="M1349.9,1389.743a.355.355,0,0,1-.273-.137c-4.1-4.033-1.162-25.705,2.188-30.286a.39.39,0,0,1,.615.478c-3.555,4.786-5.811,25.706-2.256,29.192a.51.51,0,0,1,0,.615A.355.355,0,0,1,1349.9,1389.743Z" transform="translate(-1347.619 -1359.157)" fill="#2f3541"/>
      </g>
      <g id="그룹_16306" data-name="그룹 16306" transform="translate(42.872 116.587)">
        <path id="패스_1892" data-name="패스 1892" d="M1004.37,1098.586a7.158,7.158,0,0,1-2.461-.41.432.432,0,0,1-.273-.547.465.465,0,0,1,.547-.274c5.538,1.914,15.245-4.649,17.091-7.11a.39.39,0,0,1,.615.478C1018.18,1093.185,1010.318,1098.586,1004.37,1098.586Z" transform="translate(-1001.618 -1090.081)" fill="#2f3541"/>
      </g>
      <g id="그룹_16307" data-name="그룹 16307" transform="translate(47.057 115.707)">
        <path id="패스_1893" data-name="패스 1893" d="M1033.5,1100.006a4.128,4.128,0,0,1-2.051-.479.4.4,0,0,1,.41-.684c3.145,1.709,10.6-2.734,13.058-4.991,1.572-1.436,2.461-2.256,2.461-2.8,0-.41-.342-.889-1.025-1.641a4.593,4.593,0,0,1-1.094-2.871c-.137-1.094-.273-1.641-1.162-1.914a.39.39,0,0,1,.205-.752c1.436.342,1.641,1.5,1.777,2.6a3.981,3.981,0,0,0,.889,2.393c.82.889,1.3,1.572,1.23,2.256-.068.889-.889,1.709-2.735,3.35C1043.417,1096.314,1037.469,1100.006,1033.5,1100.006Z" transform="translate(-1031.245 -1083.854)" fill="#2f3541"/>
      </g>
      <g id="그룹_16308" data-name="그룹 16308" transform="translate(117.783 17.047)">
        <path id="패스_1894" data-name="패스 1894" d="M1532.76,391.151a.349.349,0,0,1-.342-.274,4.589,4.589,0,0,1,.752-5.264.39.39,0,1,1,.615.479,3.772,3.772,0,0,0-.684,4.444.431.431,0,0,1-.205.547C1532.9,391.151,1532.828,391.151,1532.76,391.151Z" transform="translate(-1531.904 -385.45)" fill="#2f3541"/>
      </g>
      <g id="그룹_16309" data-name="그룹 16309" transform="translate(123.561 15.262)">
        <path id="패스_1895" data-name="패스 1895" d="M1573.214,379.341h0c-.273,0-.41-.205-.41-.479.547-4.17,4.991-6.358,8.888-6.016a11.955,11.955,0,0,1,4.444,1.572,22.049,22.049,0,0,0,2.324,1.026,10.551,10.551,0,0,0,7.794-.137.413.413,0,1,1,.342.752,11.5,11.5,0,0,1-8.409.137,19.4,19.4,0,0,1-2.461-1.094,12.12,12.12,0,0,0-4.17-1.436c-3.487-.342-7.52,1.641-7.93,5.264A.441.441,0,0,1,1573.214,379.341Z" transform="translate(-1572.804 -372.812)" fill="#2f3541"/>
      </g>
      <g id="그룹_16310" data-name="그룹 16310" transform="translate(138.096 23.61)">
        <path id="패스_1896" data-name="패스 1896" d="M1684.269,436.584a11.291,11.291,0,0,1-8.477-4.034.39.39,0,1,1,.615-.478,9.9,9.9,0,0,0,9.571,3.555c.205-.068.41.068.479.342.068.205-.068.41-.342.478A16.754,16.754,0,0,1,1684.269,436.584Z" transform="translate(-1675.696 -431.908)" fill="#2f3541"/>
      </g>
    </g>
  </g>
</svg>
