<?xml version="1.0" encoding="utf-8"?>
<!-- Generator: Adobe Illustrator 25.0.1, SVG Export Plug-In . SVG Version: 6.00 Build 0)  -->
<svg version="1.1" id="레이어_1" xmlns="http://www.w3.org/2000/svg" xmlns:xlink="http://www.w3.org/1999/xlink" x="0px"
	 y="0px" viewBox="0 0 60.8 60.8" style="enable-background:new 0 0 60.8 60.8;" xml:space="preserve">
<style type="text/css">
	.st0{filter:url(#타원_6);}
	.st1{fill:#F7C667;}
	.st2{fill:#FFFFFF;}
</style>
<filter  filterUnits="userSpaceOnUse" height="105.372" id="타원_6" width="105.372" x="0" y="0">
	<feOffset  dy="5" input="SourceAlpha"></feOffset>
	<feGaussianBlur  result="blur" stdDeviation="8"></feGaussianBlur>
	<feFlood  flood-opacity="0.102"></feFlood>
	<feComposite  in2="blur" operator="in"></feComposite>
	<feComposite  in="SourceGraphic" operator="over"></feComposite>
</filter>
<g id="그룹_16181" transform="translate(-137 -740)">
	<g transform="matrix(1, 0, 0, 1, 137, 740)" class="st0">
		<circle id="타원_6-2_1_" class="st1" cx="30.4" cy="30" r="28.7"/>
	</g>
	<g id="그룹_16030" transform="translate(3.992 4.691)">
		<path id="사각형_6" class="st2" d="M163.1,755.6L163.1,755.6c1.5,0,2.7,1.2,2.7,2.7V772c0,1.5-1.2,2.7-2.7,2.7l0,0
			c-1.5,0-2.7-1.2-2.7-2.7v-13.7C160.3,756.9,161.6,755.6,163.1,755.6z"/>
		<path id="사각형_7" class="st2" d="M172.8,765.2L172.8,765.2c0,1.5-1.2,2.7-2.7,2.7h-13.7c-1.5,0-2.7-1.2-2.7-2.7l0,0
			c0-1.5,1.2-2.7,2.7-2.7h13.7C171.6,762.5,172.8,763.7,172.8,765.2z"/>
	</g>
</g>
</svg>
