<?xml version="1.0" encoding="utf-8"?>
<!-- Generator: Adobe Illustrator 25.0.1, SVG Export Plug-In . SVG Version: 6.00 Build 0)  -->
<svg version="1.1" id="레이어_1" xmlns="http://www.w3.org/2000/svg" xmlns:xlink="http://www.w3.org/1999/xlink" x="0px"
	 y="0px" viewBox="0 0 28.6 33.4" style="enable-background:new 0 0 28.6 33.4;" xml:space="preserve">
<style type="text/css">
	.st0{fill:#19273B;stroke:#19273B;}
	.st1{fill:#FF958F;}
</style>
<path id="패스_988" class="st0" d="M14.1,3.4c4.9,0,8.9,4,8.9,8.9c0,0,0,0,0,0c0,4.8,0,9.2,2.9,12.2c0.5,0.5,0.5,1.3,0,1.8
	c-0.2,0.2-0.6,0.4-0.9,0.4h-6.5l0.1,0.6c0,2.4-2.1,4.4-4.5,4.4c-2.4,0-4.3-2-4.4-4.4l0.1-0.6H3.2c-0.7,0-1.3-0.6-1.3-1.3
	c0-0.3,0.1-0.7,0.4-0.9c1.3-1.2,2.1-2.8,2.5-4.5c0.4-2.5,0.5-5.1,0.4-7.7C5.2,7.4,9.2,3.4,14.1,3.4C14.1,3.4,14.1,3.4,14.1,3.4z
	 M14.1,4.7c-4.2,0-7.6,3.4-7.6,7.6l0,0c0,3.8,0.5,9.3-3.3,13.1H25c-3.8-3.8-3.3-9.3-3.3-13.1C21.7,8.1,18.3,4.7,14.1,4.7
	C14.1,4.7,14.1,4.7,14.1,4.7z M17.2,26.6H11l-0.1,0.6c0,1.7,1.4,3.2,3.2,3.2s3.2-1.4,3.2-3.2L17.2,26.6z"/>
<circle class="st1" cx="21" cy="6.6" r="4"/>
</svg>
