<svg xmlns="http://www.w3.org/2000/svg" width="230.129" height="182.455" viewBox="0 0 230.129 182.455">
  <g id="그룹_16184" data-name="그룹 16184" transform="translate(53.852 -330)">
    <path id="패스_1206" data-name="패스 1206" d="M402.923,169.312c-3.361-12.26,3.5-22.13,12.345-22.13,7.355,0,24.585,11.387,33.891,12.942,1.268.212,2.21,1.759,2.21,3.243,0,1.559-.507,7.849-4.272,8.5-1.407.243-1.489,4.825-1.395,7,.135,3.093,1.814,9.634,7.88,11.8,13.827,4.933-17.06,30.742-22.32,30.742-3.5,0-9.439-9.941-13.578-18.541-1.782-3.7-.19-6.681-2.947-9.3a31.7,31.7,0,0,1-7.386-9.908C406.551,182.053,403.33,170.793,402.923,169.312Z" transform="translate(-340.793 204.183)" fill="#fde1d3" fill-rule="evenodd"/>
    <path id="패스_1207" data-name="패스 1207" d="M398.664,149.243c-.548-1.023-2.594-2.485-3.325-4.64s-1.79-4.019-1.936-6.613-.182-4.421-.146-5.335-.95-1.973-1.206-3.069a8.361,8.361,0,0,1-.4-3.654,8.231,8.231,0,0,1,1.608-3.727,14.219,14.219,0,0,0,2.046-4.348,25.641,25.641,0,0,1,3.325-6.905c1.5-1.9,5.919-5.554,7.636-6.248s4.6-1.9,6.5-1.937,5.627.11,7.307-.146a40.027,40.027,0,0,1,7.052.292,19.187,19.187,0,0,1,5.846,1.608c2.009.986,5.845,3.471,6.868,5.371a26.073,26.073,0,0,1,2.7,6.8,22.892,22.892,0,0,0,1.243,4.567c.694,1.791.073,3.91.292,5.517a60.677,60.677,0,0,1,.073,6.284c0,1.389-.366.877-1.243,1.461s-4.2,2.448-5.773,2.485-3.629.3-5.91-1.184-3.152-2.885-4.755-3.675-2.78-1.245-5.291-2.435-6.142-3.544-7.229-3.834-4.242-.421-5.487.166-2.238,3.128-3.433,3.253a5.481,5.481,0,0,0-3.749,2.378c-1.229,1.6-2.058,2.1-2.336,3.295s-1.975,3.769-.936,9.068C398.211,145.055,399.212,150.266,398.664,149.243Z" transform="translate(-334.786 229.757)" fill="#e29b80" fill-rule="evenodd"/>
    <path id="패스_1208" data-name="패스 1208" d="M326.856,285.848a47.275,47.275,0,0,1,1.715-5.686c.833-1.961,2.745-8.284,3.284-10.392s1.764-6.519,2.353-8.382,1.324-4.8,2.3-5.98a47.867,47.867,0,0,1,6.176-5.637c1.275-.784,4.9-3.088,6.862-4.019s7.01-3.186,8.578-3.823,6.868-2.826,8.764-3.879,2.282-2.142,3.265-1.263a19.8,19.8,0,0,0,3.546,2.949c1.334.7,1.65,1.088,2,2.036a10.684,10.684,0,0,1,.667,3.476c-.035,1.018-.667,1.72.106,3.054a27.533,27.533,0,0,0,3.3,4.388c.912.913,2.387,2.422,3.546,3.827s1.966,3.37,2.492,2.317a11.581,11.581,0,0,1,2.563-3.511,85.068,85.068,0,0,1,6.776-5.9c2.106-1.615,4-3.089,6.6-4.95s4.081-2.7,5.469-4.485a18.3,18.3,0,0,0,2.535-3.5c.567-1.218.419-1.338-.638-1.878a11.67,11.67,0,0,1-3.677-3.127,10.531,10.531,0,0,1-1.975-3.928c-.5-1.688-1.065-3.483-.081-2.777s3.17,1.213,4.895,1.656a11,11,0,0,1,4.615,1.982,7.481,7.481,0,0,1,2.411,3.357c.5,1.485.379,2.609,1.5,3.163s9.007,3.379,11.356,4.207,7.01,2.076,9.768,3.246a88.835,88.835,0,0,1,8.155,4.175,23.783,23.783,0,0,1,5.246,3.55,34.4,34.4,0,0,1,5.008,6.26,44.037,44.037,0,0,1,3.712,8.41,81.914,81.914,0,0,1,2.424,10.707c.475,2.569,1.009,6.889,1.821,10.042s3.827,15.055,4.69,18.189,3.332,14.228,3.843,17.527a69.145,69.145,0,0,1,.548,13.159,52.9,52.9,0,0,1-1.661,6.735l-41.514-2.5Z" transform="translate(-297.716 159.819)" fill="#f7c667" fill-rule="evenodd"/>
    <path id="패스_1209" data-name="패스 1209" d="M253.192,435.416s-2.073-.351-3.753-.54-5.475-.618-6.937-1.277-6.025-2.792-7.886-3.826-7.337-4.066-10.057-5.745-8.257-4.911-10.826-6.711-5.831-3.786-7.047-4.692-2.239-1.076-1.081-1.851a6.593,6.593,0,0,0,2.522-2.652,20.682,20.682,0,0,0,1.459-4.172c.226-1.512.768-1.944,1.811-2.184s7.279-1.266,8.526-1.372,2.378,1.064,3.167,1.372a30.515,30.515,0,0,0,5.72,1.606c2.427.383,8.4,1.194,10.57,1.439s4.836.683,6.3.847a8.2,8.2,0,0,1,2.325.565Z" transform="translate(-227.966 59.132)" fill="#f7c667" fill-rule="evenodd"/>
    <path id="패스_1210" data-name="패스 1210" d="M149.164,254.013c-6.65-25.924-15.285-59.674-15.285-59.674s20.962,3.051,26.216,2.6,4.068-.9,5.141,1.865,38.138,85.146,38.138,85.146-15.594-2.712-21.809-1.92-21.81,3.9-22.94,4.18-1.413-1.243-1.921-2.938c-.074-.248-.616-2.327-1.485-5.7C153.842,272.24,149.164,254.013,149.164,254.013Z" transform="translate(-187.168 177.169)" fill="#fff" fill-rule="evenodd"/>
    <path id="패스_1211" data-name="패스 1211" d="M171.259,372.445a44.325,44.325,0,0,1-4.326-2.192c-1.506-.912-5.59-3.147-7.172-3.984a76.788,76.788,0,0,1-7.472-4.665c-1.43-1.138-3.147-2.247-3.866-3.85s-.939-3.04-1.524-3.992-1.069-.941-1.5-2.347-.308-2.372-.8-3.295a5,5,0,0,1-.911-2.526c0-.981.489-1.372,1.172-2.351a9.374,9.374,0,0,0,1.659-3.5c.231-1.282.294-1.69,1.2-2.442a7.833,7.833,0,0,1,3.268-1.618,34.452,34.452,0,0,1,4.456-.208,15.118,15.118,0,0,1,3.081-.018,1.5,1.5,0,0,1,1.493,1.607c.086.985-.2,2.413-1.031,2.679s-2.39.757-1.47.867a49.935,49.935,0,0,1,5.012,1.209,11.569,11.569,0,0,1,3.216,1.255c.764.494,1.463,1.411,1.125,2.06s-1.026,1.123-.152,1.575a13.853,13.853,0,0,1,2.946,1.865c.554.6,1.209,1.133.764,1.868s-1.521,1.123-1.814,1.543.277.624-.144,1.435a3.65,3.65,0,0,1-2.078,2.126,18.581,18.581,0,0,1-4.049,1.036c-1.322.239-1.884.661-1.565,1.891s2.277,7.9,2.277,7.9.022.792,1.138.551,6.6-1.325,8.138-1.656,2.477.061,2.242.926-1.1,4.392-2.364,5.828C171.908,372.362,172.133,372.841,171.259,372.445Z" transform="translate(-192.785 96.375)" fill="#fde1d3" fill-rule="evenodd"/>
    <path id="패스_1212" data-name="패스 1212" d="M298.439,367.639l109.154.813a1.067,1.067,0,0,1,1.068,1.067l5.734,63.413A1.068,1.068,0,0,1,413.327,434L309.5,431.461a1.068,1.068,0,0,1-1.067-1.067l-11.058-61.687A1.068,1.068,0,0,1,298.439,367.639Z" transform="translate(-280.825 77.893)" fill="#d7cbcb" fill-rule="evenodd"/>
    <path id="패스_1213" data-name="패스 1213" d="M570,507.119l12.779-8.374a3.233,3.233,0,0,0,.326-2.229,11.547,11.547,0,0,0-2.61-.49l-11.366-.326Z" transform="translate(-436.506 4.532)" fill="#d7cbcb" fill-rule="evenodd"/>
    <g id="그룹_442" data-name="그룹 442" transform="translate(63.163 375.747)">
      <path id="패스_1214" data-name="패스 1214" d="M428.086,231.4a14.632,14.632,0,0,1-2.533-.223c-8.559-1.5-18.022-11.755-19.043-26.315a.563.563,0,0,1,1.122-.079c.97,13.825,10.158,23.89,18.115,25.287,9.649,1.691,18.444-7.245,21.393-21.734a.562.562,0,1,1,1.1.224C445.419,222.431,437.337,231.4,428.086,231.4Z" transform="translate(-406.508 -204.264)" fill="#723f3b"/>
    </g>
    <g id="그룹_443" data-name="그룹 443" transform="translate(79.016 373.304)">
      <path id="패스_1215" data-name="패스 1215" d="M445.568,209.218a.56.56,0,0,1-.293-.082,3.431,3.431,0,0,1-1.651-2.322,2.626,2.626,0,0,1,.933-1.783,3.1,3.1,0,0,0,.571-.753,5.518,5.518,0,0,0-.445-4.883.562.562,0,1,1,.967-.575,6.612,6.612,0,0,1,.533,5.848,3.736,3.736,0,0,1-.792,1.117c-.293.323-.658.726-.645.965a2.365,2.365,0,0,0,1.115,1.425.563.563,0,0,1-.294,1.042Z" transform="translate(-443.622 -198.545)" fill="#723f3b"/>
    </g>
    <path id="패스_1216" data-name="패스 1216" d="M465.644,201.232a1.239,1.239,0,1,1,1.289,1.444A1.386,1.386,0,0,1,465.644,201.232Z" transform="translate(-377.22 174.124)" fill="#6a3b35" fill-rule="evenodd"/>
    <g id="그룹_444" data-name="그룹 444" transform="translate(105.308 363.885)">
      <path id="패스_1217" data-name="패스 1217" d="M505.737,189.328a.562.562,0,0,1-.027-1.124A3.115,3.115,0,0,0,507.972,187c1.46-1.732,2.055-5.075,1.786-7.306a2.449,2.449,0,0,0-1.248-2.014,1.176,1.176,0,0,0-1.235.393.563.563,0,1,1-.775-.815,2.276,2.276,0,0,1,2.392-.637,3.5,3.5,0,0,1,1.984,2.939c.293,2.436-.324,6.125-2.043,8.166a4.2,4.2,0,0,1-3.066,1.605Z" transform="translate(-505.175 -176.494)" fill="#723f3b"/>
    </g>
    <g id="그룹_445" data-name="그룹 445" transform="translate(106.12 368.595)">
      <path id="패스_1218" data-name="패스 1218" d="M507.638,191.745a.563.563,0,0,1-.49-.839c.182-.322.327-.629.469-.927a6.657,6.657,0,0,1,1.58-2.313.562.562,0,0,1,.754.834,5.575,5.575,0,0,0-1.318,1.962c-.152.32-.31.651-.5,1A.562.562,0,0,1,507.638,191.745Z" transform="translate(-507.076 -187.521)" fill="#723f3b"/>
    </g>
    <path id="패스_1219" data-name="패스 1219" d="M426.156,206.318A1.238,1.238,0,1,1,427.4,207.8,1.386,1.386,0,0,1,426.156,206.318Z" transform="translate(-354.6 171.191)" fill="#6a3b35" fill-rule="evenodd"/>
    <g id="그룹_446" data-name="그룹 446" transform="translate(104.365 381.872)">
      <path id="패스_1220" data-name="패스 1220" d="M510.323,231.957a.563.563,0,0,1-.251-.059c-4.315-2.158-7.1-7.155-7.1-12.731a.563.563,0,0,1,1.125,0c0,5.153,2.544,9.755,6.481,11.724a.563.563,0,0,1-.252,1.066Z" transform="translate(-502.968 -218.604)" fill="#723f3b"/>
    </g>
    <g id="그룹_447" data-name="그룹 447" transform="translate(77.038 400.204)">
      <path id="패스_1221" data-name="패스 1221" d="M440.661,267.953a.562.562,0,0,1-.562-.562,9.536,9.536,0,0,0-1.048-5.056.562.562,0,1,1,1.006-.5,10.56,10.56,0,0,1,1.167,5.559A.562.562,0,0,1,440.661,267.953Z" transform="translate(-438.99 -261.52)" fill="#723f3b"/>
    </g>
    <g id="그룹_448" data-name="그룹 448" transform="translate(28.624 396.048)">
      <path id="패스_1222" data-name="패스 1222" d="M326.211,301.633a.563.563,0,0,1-.531-.748c.743-2.129,1.758-5.449,2.653-8.378.423-1.386.819-2.679,1.142-3.705.478-1.515.895-3.083,1.3-4.6.48-1.8.977-3.671,1.584-5.482.22-.656.422-1.348.629-2.053.737-2.513,1.573-5.362,3.448-7.323,5.742-6,13.147-9.12,20.307-12.134a107.465,107.465,0,0,0,11.423-5.345.563.563,0,0,1,.555.979,108.386,108.386,0,0,1-11.542,5.4c-7.379,3.106-14.35,6.04-19.93,11.875-1.686,1.763-2.446,4.355-3.181,6.863-.211.719-.418,1.424-.642,2.094-.6,1.777-1.088,3.626-1.564,5.414-.407,1.527-.827,3.107-1.313,4.647-.323,1.023-.717,2.313-1.14,3.7-.9,2.939-1.917,6.271-2.667,8.421A.563.563,0,0,1,326.211,301.633Z" transform="translate(-325.649 -251.791)" fill="#723f3b"/>
    </g>
    <g id="그룹_449" data-name="그룹 449" transform="translate(76.138 400.623)">
      <path id="패스_1223" data-name="패스 1223" d="M448.208,281.264a.56.56,0,0,1-.461-.24,49.862,49.862,0,0,0-3.783-4.554c-3.48-3.877-7.079-7.886-7.079-13.406a.563.563,0,0,1,1.126,0c0,5.09,3.452,8.936,6.791,12.655a51.293,51.293,0,0,1,3.867,4.661.562.562,0,0,1-.138.783A.555.555,0,0,1,448.208,281.264Z" transform="translate(-436.885 -262.501)" fill="#723f3b"/>
    </g>
    <g id="그룹_450" data-name="그룹 450" transform="translate(87.515 387.042)">
      <path id="패스_1224" data-name="패스 1224" d="M464.082,263.315a.556.556,0,0,1-.154-.022.562.562,0,0,1-.387-.695c.66-2.308,2.612-4.081,4.335-5.645.261-.237.516-.469.761-.7,1.519-1.418,3.069-2.688,4.792-4.083.839-.678,1.692-1.337,2.547-1.995l1.078-.834c.461-.358.951-.667,1.424-.965.332-.208.661-.415.977-.638,2.347-1.656,8.581-6.056,8.812-10.2a4.776,4.776,0,0,0-1.894-3.917,10.829,10.829,0,0,0-2.565-1.533c-.223-.107-.445-.214-.665-.324a.563.563,0,0,1,.5-1.006c.214.107.431.212.649.317a11.849,11.849,0,0,1,2.824,1.706,5.9,5.9,0,0,1,2.271,4.821c-.233,4.15-5.086,8.086-9.288,11.051-.332.234-.678.453-1.026.671a16.04,16.04,0,0,0-1.333.9l-1.082.837c-.847.653-1.694,1.305-2.526,1.979-1.706,1.381-3.24,2.638-4.732,4.031-.248.232-.507.467-.772.707-1.612,1.464-3.438,3.122-4.01,5.121A.563.563,0,0,1,464.082,263.315Z" transform="translate(-463.52 -230.706)" fill="#723f3b"/>
    </g>
    <g id="그룹_451" data-name="그룹 451" transform="translate(89.897 416.482)">
      <path id="패스_1225" data-name="패스 1225" d="M483.768,308.795a.575.575,0,0,1-.111-.011,8.212,8.212,0,0,1-4.62-2.281,21.154,21.154,0,0,1-1.641-2.086c-2.154-2.974-3.766-4.782-6.442-2.869a3.212,3.212,0,0,0-.649.752c-.067.093-.132.185-.2.273a.562.562,0,0,1-.9-.674c.061-.081.12-.165.181-.25a4.079,4.079,0,0,1,.913-1.017c3.784-2.706,6.225.665,8.007,3.125a20.368,20.368,0,0,0,1.547,1.973,7.084,7.084,0,0,0,4.023,1.95.563.563,0,0,1-.11,1.114Z" transform="translate(-469.095 -299.63)" fill="#723f3b"/>
    </g>
    <g id="그룹_452" data-name="그룹 452" transform="translate(104.536 396.948)">
      <path id="패스_1226" data-name="패스 1226" d="M503.93,282.685a.563.563,0,0,1-.563-.563c0-2.2,1.567-4.773,2.711-6.65l.367-.606a72.092,72.092,0,0,1,5.511-7.911c2.691-3.364,5.939-8.744,6.712-12.605a.563.563,0,0,1,1.1.221c-.814,4.068-4.071,9.5-6.937,13.087a71.049,71.049,0,0,0-5.425,7.787l-.371.612c-1.075,1.764-2.547,4.18-2.547,6.065A.563.563,0,0,1,503.93,282.685Z" transform="translate(-503.367 -253.898)" fill="#723f3b"/>
    </g>
    <g id="그룹_453" data-name="그룹 453" transform="translate(105.329 384.22)">
      <path id="패스_1227" data-name="패스 1227" d="M520.162,237.747a.559.559,0,0,1-.4-.165,10.608,10.608,0,0,1-2.317-4.434,10.238,10.238,0,0,0-1.68-3.534c-1.6-1.868-3.833-2.458-6.2-3.082a20.943,20.943,0,0,1-4.034-1.366.563.563,0,0,1,.5-1.006,19.781,19.781,0,0,0,3.819,1.285c2.425.641,4.934,1.3,6.763,3.438a11.211,11.211,0,0,1,1.893,3.912,9.614,9.614,0,0,0,2.046,3.993.562.562,0,0,1-.4.96Z" transform="translate(-505.225 -224.101)" fill="#723f3b"/>
    </g>
    <g id="그룹_454" data-name="그룹 454" transform="translate(71.818 417.36)">
      <path id="패스_1228" data-name="패스 1228" d="M427.332,306.709a.563.563,0,0,1,0-1.126,10.64,10.64,0,0,0,4.025-.753,10.8,10.8,0,0,0,2.365-1.454c1.674-1.242,3.405-2.526,6.227-.986a4.862,4.862,0,0,1,1.322,1.025l.128.129a.562.562,0,1,1-.8.794l-.132-.132a3.76,3.76,0,0,0-1.061-.83c-2.19-1.194-3.377-.315-5.019.9a11.648,11.648,0,0,1-2.617,1.6A11.916,11.916,0,0,1,427.332,306.709Z" transform="translate(-426.769 -301.685)" fill="#723f3b"/>
    </g>
    <g id="그룹_455" data-name="그룹 455" transform="translate(71.818 397.427)">
      <path id="패스_1229" data-name="패스 1229" d="M427.331,278.653a.563.563,0,0,1-.5-.814c1.378-2.755.909-5.879.456-8.9-.174-1.158-.353-2.355-.426-3.513a38.277,38.277,0,0,1,1.18-9.981.562.562,0,1,1,1.091.273,37.507,37.507,0,0,0-1.149,9.638c.07,1.109.238,2.23.416,3.416.479,3.194.974,6.5-.562,9.57A.562.562,0,0,1,427.331,278.653Z" transform="translate(-426.769 -255.019)" fill="#723f3b"/>
    </g>
    <g id="그룹_456" data-name="그룹 456" transform="translate(85.733 420.169)">
      <path id="패스_1230" data-name="패스 1230" d="M459.911,334.1a.5.5,0,0,1-.063,0,.563.563,0,0,1-.5-.621,80.175,80.175,0,0,0,.31-9.11c-.008-2.11-.017-4.291.094-6.439s.418-4.268.715-6.325c.137-.946.274-1.892.393-2.843a.562.562,0,0,1,1.116.139c-.12.958-.258,1.912-.395,2.864-.294,2.033-.6,4.134-.706,6.223-.109,2.117-.1,4.282-.092,6.376a81.066,81.066,0,0,1-.317,9.24A.563.563,0,0,1,459.911,334.1Z" transform="translate(-459.348 -308.262)" fill="#723f3b"/>
    </g>
    <g id="그룹_457" data-name="그룹 457" transform="translate(118.568 394.175)">
      <path id="패스_1231" data-name="패스 1231" d="M592.156,353.241a.542.542,0,0,1-.159-.023.562.562,0,0,1-.381-.7c3.3-11.2-.946-27.018-4.694-40.977-1.721-6.411-3.347-12.468-4.252-17.894q-.205-1.235-.4-2.454c-1.414-8.7-2.749-16.923-8.3-24.064l-.355-.459a14.8,14.8,0,0,0-2.861-3.084,60.189,60.189,0,0,0-11.506-6.929,102.71,102.71,0,0,0-10.078-3.506,82.745,82.745,0,0,1-12.637-4.679.562.562,0,0,1,.5-1.006,81.967,81.967,0,0,0,12.466,4.611,103.448,103.448,0,0,1,10.19,3.547,61.079,61.079,0,0,1,11.716,7.048,15.844,15.844,0,0,1,3.1,3.314l.35.454c5.731,7.368,7.088,15.726,8.526,24.575q.2,1.217.4,2.45c.9,5.372,2.515,11.4,4.228,17.787,3.787,14.1,8.078,30.087,4.687,41.588A.564.564,0,0,1,592.156,353.241Z" transform="translate(-536.217 -247.406)" fill="#723f3b"/>
    </g>
    <g id="그룹_458" data-name="그룹 458" transform="translate(137.123 448.343)">
      <path id="패스_1232" data-name="패스 1232" d="M583.07,406.352a.5.5,0,0,1-.08-.006.562.562,0,0,1-.478-.636c.461-3.236-.944-9.075-1.872-12.939-.2-.834-.384-1.6-.531-2.255a24.273,24.273,0,0,1,2.436-16.014.562.562,0,0,1,.975.56,23.056,23.056,0,0,0-2.313,15.208c.147.652.328,1.41.527,2.237,1.006,4.183,2.383,9.911,1.892,13.36A.562.562,0,0,1,583.07,406.352Z" transform="translate(-579.657 -374.221)" fill="#723f3b"/>
    </g>
    <g id="그룹_459" data-name="그룹 459" transform="translate(130.404 478.037)">
      <path id="패스_1233" data-name="패스 1233" d="M568.233,447.244a14.127,14.127,0,0,1-3.9-.526.563.563,0,0,1,.307-1.082c3.679,1.045,7.089.217,10.7-.66,1.468-.357,2.987-.726,4.539-.965a32.053,32.053,0,0,1,12.619.942.562.562,0,1,1-.271,1.091,30.989,30.989,0,0,0-12.177-.922c-1.5.232-3,.595-4.444.946A31.291,31.291,0,0,1,568.233,447.244Z" transform="translate(-563.929 -443.738)" fill="#723f3b"/>
    </g>
    <g id="그룹_460" data-name="그룹 460" transform="translate(-12.396 459.379)">
      <path id="패스_1234" data-name="패스 1234" d="M276.934,408.371a.8.8,0,0,1-.108-.008c-2.01-.288-4.691-.587-7.529-.9-8.24-.918-18.495-2.061-23.955-4.092a.64.64,0,0,1-.391-.85.719.719,0,0,1,.913-.365c5.289,1.969,15.442,3.1,23.6,4.008,2.85.317,5.542.617,7.576.908a.662.662,0,0,1,.588.745A.69.69,0,0,1,276.934,408.371Z" transform="translate(-244.9 -402.107)" fill="#723f3b"/>
    </g>
    <g id="그룹_461" data-name="그룹 461" transform="translate(-24.04 461.983)">
      <path id="패스_1235" data-name="패스 1235" d="M251.2,439.268a.647.647,0,0,1-.075,0l-.227-.031a70.011,70.011,0,0,1-9.952-1.816A29.282,29.282,0,0,1,235.58,435c-.628-.336-1.262-.674-1.917-1a229.025,229.025,0,0,1-20.016-11.722l-.4-.256c-1.767-1.115-3.516-2.31-5.208-3.465-.955-.651-1.908-1.3-2.866-1.941-2.967-1.935-2.967-1.935-2.711-2.448.189-.379.63-.43,1.019-.476.071-.008.136-.015.18-.024a3.112,3.112,0,0,0,1.319-.976,15.229,15.229,0,0,0,2.621-6.11.562.562,0,1,1,1.091.272,16.263,16.263,0,0,1-2.849,6.558,4.251,4.251,0,0,1-1.611,1.234c.369.249.866.578,1.513,1l.059.038c.953.636,1.91,1.289,2.868,1.942,1.683,1.149,3.424,2.338,5.174,3.443l.405.256a228.676,228.676,0,0,0,19.917,11.667c.665.332,1.307.675,1.944,1.016a28.361,28.361,0,0,0,5.167,2.332,69.22,69.22,0,0,0,9.774,1.778l.228.03a.563.563,0,0,1-.074,1.12Z" transform="translate(-202.355 -406.154)" fill="#723f3b"/>
    </g>
    <g id="그룹_462" data-name="그룹 462" transform="translate(-46.455 449.53)">
      <path id="패스_1236" data-name="패스 1236" d="M174.484,396.7a.556.556,0,0,1-.178-.029,22.816,22.816,0,0,1-4.737-2.482c-.97-.608-1.886-1.183-2.823-1.652a85.252,85.252,0,0,1-10.507-6.159c-.195-.136-.393-.27-.592-.4a14.427,14.427,0,0,1-3.2-2.653,10.894,10.894,0,0,1-1.718-3.491,16.709,16.709,0,0,0-.8-2.013.562.562,0,0,1,1.006-.5,17.8,17.8,0,0,1,.853,2.146,9.89,9.89,0,0,0,1.526,3.148,13.588,13.588,0,0,0,2.956,2.435c.2.138.4.273.6.41a84.158,84.158,0,0,0,10.368,6.079c.986.492,1.968,1.109,2.918,1.7a22.042,22.042,0,0,0,4.495,2.368.563.563,0,0,1-.178,1.1Z" transform="translate(-149.878 -376.999)" fill="#723f3b"/>
    </g>
    <g id="그룹_465" data-name="그룹 465" transform="translate(-46.822 431.206)">
      <path id="패스_1239" data-name="패스 1239" d="M149.589,340.593a.563.563,0,0,1-.563-.563l0-.334a4.676,4.676,0,0,1,.451-2.56c1.86-2.922,6.778-3.208,9.391-2.92a6.031,6.031,0,0,0,1.107-.047,4.4,4.4,0,0,1,2.322.175,2.824,2.824,0,0,1,1.406,2.483,2.655,2.655,0,0,1-1.152,2.461c-1.5.9-3.793.884-5.464.874l-.513,0c-.821,0-1.658.036-2.468.071s-1.663.073-2.5.073a.563.563,0,0,1,0-1.126c.812,0,1.645-.036,2.45-.071.822-.036,1.672-.073,2.517-.073l.519,0c1.54.011,3.65.023,4.878-.713a1.585,1.585,0,0,0,.607-1.453,1.742,1.742,0,0,0-.785-1.521,3.78,3.78,0,0,0-1.709-.061,6.751,6.751,0,0,1-1.34.046c-2.193-.243-6.752-.053-8.318,2.407a3.927,3.927,0,0,0-.275,1.939l0,.35A.562.562,0,0,1,149.589,340.593Z" transform="translate(-149.019 -334.1)" fill="#723f3b"/>
    </g>
    <g id="그룹_466" data-name="그룹 466" transform="translate(-44.44 436.356)">
      <path id="패스_1240" data-name="패스 1240" d="M169.7,353.881a16,16,0,0,1-2.346-.233c-.486-.073-.945-.142-1.372-.175-.872-.067-1.774-.171-2.646-.272a30.562,30.562,0,0,0-5.9-.3,3.876,3.876,0,0,0-.924.258,3.971,3.971,0,0,1-1.354.321.563.563,0,0,1,0-1.126,3.156,3.156,0,0,0,.969-.252,4.681,4.681,0,0,1,1.215-.323,31.293,31.293,0,0,1,6.125.308c.862.1,1.753.2,2.6.268.466.036.945.108,1.451.184,1.517.227,3.086.463,4.24-.307a1.443,1.443,0,0,0,.776-1.277,2.144,2.144,0,0,0-1.465-1.548,28.748,28.748,0,0,0-10.013-2.12.563.563,0,0,1,0-1.126,29.924,29.924,0,0,1,10.43,2.2,3.212,3.212,0,0,1,2.166,2.476,2.485,2.485,0,0,1-1.271,2.33A4.712,4.712,0,0,1,169.7,353.881Z" transform="translate(-154.597 -346.158)" fill="#723f3b"/>
    </g>
    <g id="그룹_467" data-name="그룹 467" transform="translate(-42.784 442.763)">
      <path id="패스_1241" data-name="패스 1241" d="M159.036,367.754a.563.563,0,0,1,0-1.126,52.535,52.535,0,0,0,5.243-.356,53.9,53.9,0,0,1,5.411-.364,22.463,22.463,0,0,1,2.7.217,14.91,14.91,0,0,0,3.638.147,4.83,4.83,0,0,0,.857-.247l.259-.089c.467-.156,1.251-.49,1.251-.984,0-.8-1.654-2.139-3.339-2.7a.562.562,0,1,1,.356-1.067c1.656.552,4.107,2.131,4.107,3.767,0,.629-.35,1.494-2.02,2.051l-.243.084a5.528,5.528,0,0,1-1.088.3,15.811,15.811,0,0,1-3.913-.146,21.339,21.339,0,0,0-2.563-.208,53.07,53.07,0,0,0-5.3.358A53.465,53.465,0,0,1,159.036,367.754Z" transform="translate(-158.473 -361.156)" fill="#723f3b"/>
    </g>
    <g id="그룹_468" data-name="그룹 468" transform="translate(-38.969 447.73)">
      <path id="패스_1242" data-name="패스 1242" d="M167.967,380.173a.563.563,0,0,1-.092-1.117,11.4,11.4,0,0,0,2.14-.658,14.854,14.854,0,0,1,1.929-.631,13.6,13.6,0,0,1,2.7-.374c2.555-.088,5.628-.676,6.592-2.063a1.923,1.923,0,0,0,.164-1.8.562.562,0,0,1,1.067-.355,3.013,3.013,0,0,1-.308,2.8c-1.47,2.115-5.718,2.485-7.477,2.545a12.445,12.445,0,0,0-2.484.346,13.841,13.841,0,0,0-1.783.587,12.452,12.452,0,0,1-2.354.715A.581.581,0,0,1,167.967,380.173Z" transform="translate(-167.405 -372.784)" fill="#723f3b"/>
    </g>
    <g id="그룹_469" data-name="그룹 469" transform="translate(69.723 354.727)">
      <path id="패스_1243" data-name="패스 1243" d="M422.429,160.046a.563.563,0,0,1-.534-.74c1.14-3.421,4.926-4.125,7.083-4.241a13.154,13.154,0,0,1,5.333,1.217c.682.259,1.325.5,1.968.7a14.212,14.212,0,0,0,8.885.232.563.563,0,0,1,.355,1.067,15.284,15.284,0,0,1-9.565-.222c-.68-.205-1.372-.468-2.043-.723a12.31,12.31,0,0,0-4.873-1.144c-1.87.1-5.147.684-6.075,3.472A.563.563,0,0,1,422.429,160.046Z" transform="translate(-421.866 -155.054)" fill="#723f3b"/>
    </g>
    <g id="그룹_470" data-name="그룹 470" transform="translate(87.569 359.803)">
      <path id="패스_1244" data-name="패스 1244" d="M476.757,174.619c-2.868,0-5.063-1.742-7.192-3.431-1.769-1.4-3.44-2.73-5.467-3.136a.562.562,0,1,1,.221-1.1c2.292.458,4.15,1.932,5.946,3.357,2.266,1.8,4.4,3.494,7.258,3.139a6.929,6.929,0,0,0,2.725-1.622c.168-.136.328-.265.478-.381a.562.562,0,0,1,.691.888c-.144.112-.3.237-.461.369a7.48,7.48,0,0,1-3.293,1.863A7.254,7.254,0,0,1,476.757,174.619Z" transform="translate(-463.646 -166.937)" fill="#723f3b"/>
    </g>
    <g id="그룹_471" data-name="그룹 471" transform="translate(65.644 345.242)">
      <path id="패스_1245" data-name="패스 1245" d="M414.4,147.585a.562.562,0,0,1-.311-.094c-1.569-1.046-1.846-3.66-1.762-5.039a12.5,12.5,0,0,1,5.14-9.49.563.563,0,0,1,.675.9,11.259,11.259,0,0,0-4.692,8.658c-.075,1.234.2,3.326,1.263,4.035a.563.563,0,0,1-.313,1.031Z" transform="translate(-412.316 -132.848)" fill="#723f3b"/>
    </g>
    <g id="그룹_472" data-name="그룹 472" transform="translate(61.219 364.798)">
      <path id="패스_1246" data-name="패스 1246" d="M403.024,187.65a.563.563,0,0,1-.545-.426c-.58-2.322-.816-5.885.036-8.223a.562.562,0,1,1,1.057.385c-.823,2.259-.452,5.762,0,7.565a.564.564,0,0,1-.546.7Z" transform="translate(-401.957 -178.63)" fill="#723f3b"/>
    </g>
    <g id="그룹_473" data-name="그룹 473" transform="translate(90.308 332.008)">
      <path id="패스_1247" data-name="패스 1247" d="M492.02,125.148a.563.563,0,0,1-.251-.059c-3.019-1.51-3.9-5.224-4.684-8.5a25.472,25.472,0,0,0-1.1-3.807c-2.319-5.507-8.362-9.35-15.4-9.789a.563.563,0,0,1,.07-1.123c7.457.466,13.88,4.578,16.363,10.476a26.116,26.116,0,0,1,1.161,3.983c.759,3.186,1.543,6.481,4.093,7.756a.563.563,0,0,1-.252,1.066Z" transform="translate(-470.058 -101.866)" fill="#723f3b"/>
    </g>
    <g id="그룹_474" data-name="그룹 474" transform="translate(108.683 355.914)">
      <path id="패스_1248" data-name="패스 1248" d="M513.715,166.772a.563.563,0,0,1-.563-.563c0-.657.049-1.453.1-2.3a17.619,17.619,0,0,0-.148-5.344.562.562,0,1,1,1.068-.351c.468,1.422.327,3.729.2,5.763-.05.825-.1,1.6-.1,2.227A.563.563,0,0,1,513.715,166.772Z" transform="translate(-513.076 -157.832)" fill="#723f3b"/>
    </g>
    <g id="그룹_475" data-name="그룹 475" transform="translate(57.755 362.276)">
      <path id="패스_1249" data-name="패스 1249" d="M397.471,186.838a.562.562,0,0,1-.483-.273c-2.542-4.236-3.112-9.555-3.143-13.271a.562.562,0,1,1,1.125-.009c.042,5.055,1.1,9.566,2.982,12.7a.562.562,0,0,1-.193.771A.555.555,0,0,1,397.471,186.838Z" transform="translate(-393.846 -172.727)" fill="#723f3b"/>
    </g>
    <g id="그룹_476" data-name="그룹 476" transform="translate(59.246 330)">
      <path id="패스_1250" data-name="패스 1250" d="M404.161,129.536c-3.152,0-5.49-3.685-6.224-6.009-1.958-6.2,1.192-13.4,4.947-17.47a22.892,22.892,0,0,1,14.851-7.02c.8-.05,1.641-.034,2.533-.018,2.686.053,5.461.1,7.256-1.691a.563.563,0,1,1,.8.8c-2.133,2.132-5.289,2.073-8.073,2.02-.867-.017-1.685-.032-2.442.016a21.725,21.725,0,0,0-14.093,6.66c-3.654,3.959-6.442,10.853-4.7,16.369.665,2.106,2.762,5.222,5.151,5.222a.563.563,0,0,1,0,1.125Z" transform="translate(-397.337 -97.164)" fill="#723f3b"/>
    </g>
    <g id="그룹_477" data-name="그룹 477" transform="translate(56.287 350.663)">
      <path id="패스_1251" data-name="패스 1251" d="M398.178,160.128a7.509,7.509,0,0,1-7.041-4.894,8.8,8.8,0,0,1,1.6-9.529.562.562,0,0,1,.795.795,7.667,7.667,0,0,0-1.36,8.3,6.417,6.417,0,0,0,6,4.2.563.563,0,1,1,0,1.125Z" transform="translate(-390.412 -145.54)" fill="#723f3b"/>
    </g>
    <g id="그룹_478" data-name="그룹 478" transform="translate(15.984 444.969)">
      <path id="패스_1252" data-name="패스 1252" d="M412.573,433.807l-103.844-2.539a1.628,1.628,0,0,1-1.615-1.575l-11.05-61.643a.513.513,0,0,1-.009-.1,1.632,1.632,0,0,1,1.63-1.63h0l109.154.813a1.631,1.631,0,0,1,1.626,1.63l5.731,63.363A1.64,1.64,0,0,1,412.573,433.807Zm-115.391-65.9,11.047,61.629a.513.513,0,0,1,.009.1.506.506,0,0,0,.5.5l103.844,2.538a.5.5,0,0,0,.491-.5l-5.731-63.363a.522.522,0,0,0-.508-.555l-109.159-.813A.5.5,0,0,0,297.182,367.91Z" transform="translate(-296.055 -366.321)" fill="#723f3b"/>
    </g>
    <g id="그룹_479" data-name="그룹 479" transform="translate(132.066 499.67)">
      <path id="패스_1253" data-name="패스 1253" d="M569.251,506.928a.563.563,0,0,1-.309-1.033l12.649-8.289a2.9,2.9,0,0,0,.3-1.442,20.211,20.211,0,0,0-2.2-.332l-11.323-.324a.562.562,0,0,1-.546-.578.58.58,0,0,1,.578-.546l11.366.326c2.879.3,2.986.544,3.109.826a3.663,3.663,0,0,1-.342,2.715.572.572,0,0,1-.191.211l-12.779,8.374A.559.559,0,0,1,569.251,506.928Zm12.785-10.718Z" transform="translate(-567.817 -494.384)" fill="#723f3b"/>
    </g>
    <g id="그룹_480" data-name="그룹 480" transform="translate(133.207 500.648)">
      <path id="패스_1254" data-name="패스 1254" d="M571.054,505.847a.562.562,0,0,1-.3-1.038l12.779-8.048a.563.563,0,1,1,.6.952l-12.779,8.048A.558.558,0,0,1,571.054,505.847Z" transform="translate(-570.491 -496.674)" fill="#723f3b"/>
    </g>
    <g id="그룹_481" data-name="그룹 481" transform="translate(-53.852 370.945)">
      <path id="패스_1255" data-name="패스 1255" d="M157.586,286.056c-1.2,0-1.627-1.484-2.009-2.81-.053-.185-.109-.375-.166-.567-.074-.246-.575-2.17-1.491-5.717a.563.563,0,0,1,1.09-.281c1.136,4.4,1.431,5.515,1.479,5.675.059.2.115.39.169.579.445,1.545.676,2.076,1.077,1.974,1.15-.287,16.786-3.4,23-4.192,5.364-.684,17.311,1.155,20.935,1.749-4.349-9.666-36.7-81.592-37.718-84.214-.179-.463-.3-.838-.393-1.14a1.993,1.993,0,0,0-.273-.672,6.892,6.892,0,0,0-1.751.092c-.563.061-1.266.137-2.152.213-4.723.4-21.506-1.914-25.511-2.483,1.355,5.294,9.034,35.306,15.075,58.858a.562.562,0,1,1-1.089.279c-6.651-25.924-15.285-59.675-15.285-59.675a.562.562,0,0,1,.626-.7c.209.03,20.96,3.034,26.087,2.6.875-.076,1.571-.151,2.127-.211,2.234-.242,2.7-.292,3.219,1.36.089.284.2.637.369,1.072,1.056,2.723,37.756,84.3,38.126,85.119a.563.563,0,0,1-.61.785c-.155-.027-15.584-2.691-21.641-1.917-6.186.787-21.732,3.883-22.874,4.168A1.743,1.743,0,0,1,157.586,286.056Z" transform="translate(-132.562 -193.022)" fill="#723f3b"/>
    </g>
    <g id="그룹_482" data-name="그룹 482" transform="translate(67.522 370.327)">
      <path id="패스_1256" data-name="패스 1256" d="M417.275,193.783a.563.563,0,0,1-.313-1.03,6.36,6.36,0,0,1,6.086-.669.562.562,0,0,1-.5,1.006,5.285,5.285,0,0,0-4.959.6A.56.56,0,0,1,417.275,193.783Z" transform="translate(-416.712 -191.574)" fill="#723f3b"/>
    </g>
    <g id="그룹_483" data-name="그룹 483" transform="translate(85.085 367.492)">
      <path id="패스_1257" data-name="패스 1257" d="M458.394,187.264a.563.563,0,0,1-.252-1.066c1.972-.986,3.929-1.791,6.177-.828a.563.563,0,0,1-.443,1.034c-1.806-.774-3.438-.1-5.231.8A.563.563,0,0,1,458.394,187.264Z" transform="translate(-457.83 -184.937)" fill="#723f3b"/>
    </g>
    <g id="그룹_484" data-name="그룹 484" transform="translate(78.628 389.105)">
      <path id="패스_1258" data-name="패스 1258" d="M446.168,238.919a7.606,7.606,0,0,1-3.12-.677.562.562,0,1,1,.457-1.028c2.511,1.116,5.139.616,8.269-1.574a.562.562,0,1,1,.645.921A11.157,11.157,0,0,1,446.168,238.919Z" transform="translate(-442.714 -235.538)" fill="#723f3b"/>
    </g>
  </g>
</svg>
