<svg xmlns="http://www.w3.org/2000/svg" width="25.376" height="29.236" viewBox="0 0 25.376 29.236">
  <path id="패스_1660" data-name="패스 1660" d="M12.13,0a8.859,8.859,0,0,1,8.861,8.861c0,4.757-.045,9.222,2.932,12.2a1.266,1.266,0,0,1-.9,2.161H16.5l.064.633a4.431,4.431,0,0,1-8.861,0l.064-.633H1.231a1.266,1.266,0,0,1-.9-2.161,9.284,9.284,0,0,0,2.512-4.535,45.331,45.331,0,0,0,.42-7.665A8.859,8.859,0,0,1,12.13,0Zm0,1.266a7.6,7.6,0,0,0-7.6,7.6c0,3.8.495,9.3-3.3,13.094H23.024c-3.8-3.8-3.3-9.3-3.3-13.094A7.59,7.59,0,0,0,12.13,1.266Zm3.1,21.956H9.03l-.064.633a3.165,3.165,0,0,0,6.33,0Z" transform="translate(0.558 0.5)" fill="#19273b" stroke="#19273b" stroke-width="1"/>
</svg>
