<svg xmlns="http://www.w3.org/2000/svg" xmlns:xlink="http://www.w3.org/1999/xlink" width="93" height="102.372" viewBox="0 0 93 102.372">
  <defs>
    <clipPath id="clip-path">
      <circle id="타원_11" data-name="타원 11" cx="36.5" cy="36.5" r="36.5" fill="#7b4e4e"/>
    </clipPath>
    <filter id="타원_6" x="30" y="39.372" width="63" height="63" filterUnits="userSpaceOnUse">
      <feOffset dy="5" input="SourceAlpha"/>
      <feGaussianBlur stdDeviation="8" result="blur"/>
      <feFlood flood-opacity="0.102"/>
      <feComposite operator="in" in2="blur"/>
      <feComposite in="SourceGraphic"/>
    </filter>
  </defs>
  <g id="그룹_16185" data-name="그룹 16185" transform="translate(-298 -148)">
    <g id="마스크_그룹_1" data-name="마스크 그룹 1" transform="translate(298 148)" clip-path="url(#clip-path)">
      <g id="그룹_16177" data-name="그룹 16177" transform="translate(-19 -3)">
        <g id="그룹_16176" data-name="그룹 16176" transform="translate(0 0)">
          <rect id="사각형_6192" data-name="사각형 6192" width="111" height="76" fill="#f7c667"/>
        </g>
        <g id="그룹_16175" data-name="그룹 16175" transform="translate(24.174 8.222)">
          <path id="패스_1713" data-name="패스 1713" d="M731.783,1350.343s-.046-1.475-.081-3.646c-.043-2.6.195-5.833.195-5.833a5.362,5.362,0,0,0,1.76-.6,4.012,4.012,0,0,0,1.759-2.583,4.062,4.062,0,0,0-.17-3.292,2.454,2.454,0,0,0-2.613-1.51,1.981,1.981,0,0,1-1.814-.307c-1.424-1.425-1.826-2.523-3.384-4.08a34,34,0,0,0-8.64-5.94c-1.283-.667-2.557-1.506-4.117-1.35-1.692.169-2.978,1.2-4.32,2.092a19.057,19.057,0,0,1-3.1,1.53s-.232,1.589-.346,2.317c-.415,2.626.155,3.342.491,6.25.218,1.9.353,4.576.719,6.923a18.806,18.806,0,0,0,1.719,5.74,17.321,17.321,0,0,0,2.781,3.867,6.883,6.883,0,0,0,2.782,1.554l.114,2.328c2.427,2.022,5.516,1.9,8.329,1.129,1.012-.276,1.99-.876,2.967-1.129C728.28,1353.426,731.783,1350.343,731.783,1350.343Z" transform="translate(-690.599 -1312.7)" fill="#ffefe9" fill-rule="evenodd"/>
          <path id="패스_1714" data-name="패스 1714" d="M592.977,1565.579s-2.223-8.667-3.146-10.031a15.428,15.428,0,0,0-5.016-4.99c-2.792-1.693-6.223-3.4-9.076-4.843-1.692-.859-5.266-3.122-5.266-3.122l-.8-1.477-1.695-2.1a36.388,36.388,0,0,1-1.779-3.476,2.3,2.3,0,0,0-1.031-.989l.687,3.06c-.116,1.044-1.048,1.981-1.686,2.779-1.695,2.118-5.888,4.2-7.181,6.619a8.461,8.461,0,0,0-.875,4.059,11.514,11.514,0,0,1-2.029,5.3c-.009.014-1.826,2.414-1.826,2.414s-.526-4.054-.712-5.477a41.539,41.539,0,0,0-1.826-5.939c-.64-1.988-1.114-4.211-1.114-4.211l.372-6.065-.867-.279s-.3.558-.705,1.465a15.223,15.223,0,0,1-.721,2.186,12.231,12.231,0,0,1-2.566,3.126c-3.723,2.62-10.492,2.643-13.585,6.158a19.379,19.379,0,0,0-3.744,6.994c-.565,1.5-2.538,9.035-2.538,9.035Z" transform="translate(-524.042 -1498.184)" fill="#fff" fill-rule="evenodd"/>
          <path id="패스_1715" data-name="패스 1715" d="M748.916,1544.869l.55,1.941a7.865,7.865,0,0,1-1.529,2.574c-1.838,1.829-4.036,3.315-5.007,4.286s-2.237,1.746-2.583,2.826a40.161,40.161,0,0,0-.656,4.319,19.857,19.857,0,0,1-1.162,3.338,32.678,32.678,0,0,1-2.556,3.656,9.309,9.309,0,0,1-.543-2.048,18.441,18.441,0,0,1-.136-2.449,11.8,11.8,0,0,0-.939-4.3c-.516-1.635-1.335-3.689-1.792-5.445a14.617,14.617,0,0,1-.343-2.353l.453-2.945s2.011,1.024,2.265,1.1a11.81,11.81,0,0,0,5.533.1,19.613,19.613,0,0,0,6.309-2.912C747.516,1545.921,748.916,1544.869,748.916,1544.869Z" transform="translate(-707.709 -1507.151)" fill="#898989" fill-rule="evenodd"/>
          <path id="패스_1716" data-name="패스 1716" d="M722.953,1278.993l1.288-4.717a3.619,3.619,0,0,0,1.281-.968,3.252,3.252,0,0,0,.524-1.633,5.648,5.648,0,0,0-.587-2.692,12.722,12.722,0,0,0-2.214-3.572c-.768-.808-1.349-.871-2.2-1.648-.927-.843-1.521-1.3-2.423-2.11a11.269,11.269,0,0,0-2.5-1.422,19.01,19.01,0,0,0-16.69,1.054,13.586,13.586,0,0,0-2.833,2.964,27.186,27.186,0,0,0-2.262,2.469,11.09,11.09,0,0,0-1.473,5.427,8.109,8.109,0,0,0,.642,3.573,7.632,7.632,0,0,0,2.261,2.354s-.3-1.566-.3-1.684a22.231,22.231,0,0,1,0-3.715c.011-.06.461-2.054.461-2.054s.763,2.265.877,2.492c.764,1.529,1.862,2.019,3.392,2.63,1.1.442,3.281-.712,3.281-.712a8.167,8.167,0,0,0,2.856.373,4.92,4.92,0,0,0,2.415-1.3,16.7,16.7,0,0,0,4.1.838,3.492,3.492,0,0,0,1.987-.97s2.15,4.2,4.071,4.971a2.592,2.592,0,0,0,2.106.04A2.854,2.854,0,0,1,722.953,1278.993Z" transform="translate(-679.159 -1258.453)" fill="#e8c3a8" fill-rule="evenodd"/>
          <g id="그룹_16145" data-name="그룹 16145" transform="translate(15.998 11.756)">
            <path id="패스_1717" data-name="패스 1717" d="M921.739,1354.833a.293.293,0,0,0,.077-.01.3.3,0,0,0,.214-.369c-.514-1.943-.572-6.621.044-7.813a.3.3,0,0,0-.536-.277c-.7,1.347-.649,6.136-.091,8.244A.3.3,0,0,0,921.739,1354.833Z" transform="translate(-921.023 -1346.201)" fill="#4f352f"/>
          </g>
          <g id="그룹_16146" data-name="그룹 16146" transform="translate(16.888 24.602)">
            <path id="패스_1718" data-name="패스 1718" d="M777.178,1459.375a10.927,10.927,0,0,0,1.813-.156,11.51,11.51,0,0,0,7.9-5.2.3.3,0,1,0-.523-.3,10.886,10.886,0,0,1-7.476,4.9,8.114,8.114,0,0,1-6.826-1.654c-3.069-2.673-5.017-8.445-4.91-12.159a.3.3,0,0,0-.293-.311.309.309,0,0,0-.31.293c-.11,3.852,1.92,9.846,5.118,12.631A8.246,8.246,0,0,0,777.178,1459.375Z" transform="translate(-766.546 -1444.501)" fill="#4f352f"/>
          </g>
          <g id="그룹_16147" data-name="그룹 16147" transform="translate(23.147 30.208)">
            <path id="패스_1719" data-name="패스 1719" d="M821.394,1489.739c2.04,0,4.306-.623,5.306-1.849a.3.3,0,1,0-.468-.382c-1.011,1.239-3.958,1.94-6.3,1.5a.3.3,0,0,0-.111.593A8.6,8.6,0,0,0,821.394,1489.739Z" transform="translate(-819.573 -1487.398)" fill="#4f352f"/>
          </g>
          <g id="그룹_16148" data-name="그룹 16148" transform="translate(23.383 22.151)">
            <path id="패스_1720" data-name="패스 1720" d="M862.023,1430.827a.3.3,0,0,0,.045-.6.862.862,0,0,1-.714-.943,1.637,1.637,0,0,1,.234-.588,2.9,2.9,0,0,0,.333-.815,2.633,2.633,0,0,0-.408-2,.3.3,0,1,0-.5.334,2.034,2.034,0,0,1,.319,1.546,2.344,2.344,0,0,1-.272.649,2.143,2.143,0,0,0-.305.818,1.467,1.467,0,0,0,1.225,1.6A.321.321,0,0,0,862.023,1430.827Z" transform="translate(-860.746 -1425.744)" fill="#4f352f"/>
          </g>
          <g id="그룹_16149" data-name="그룹 16149" transform="translate(27.794 17.289)">
            <path id="패스_1721" data-name="패스 1721" d="M811.036,1389.587a.3.3,0,0,0,.194-.071,3.393,3.393,0,0,1,2.77-.131.3.3,0,0,0,.27-.54,3.88,3.88,0,0,0-3.429.209.3.3,0,0,0,.194.532Z" transform="translate(-810.735 -1388.546)" fill="#4f352f"/>
          </g>
          <g id="그룹_16150" data-name="그룹 16150" transform="translate(18.386 18.277)">
            <path id="패스_1722" data-name="패스 1722" d="M887.346,1397.143a.3.3,0,0,0,.161-.047,2.567,2.567,0,0,1,2.279-.223.3.3,0,1,0,.191-.573,3.146,3.146,0,0,0-2.792.285.3.3,0,0,0,.161.557Z" transform="translate(-887.044 -1396.103)" fill="#4f352f"/>
          </g>
          <path id="패스_1723" data-name="패스 1723" d="M814.7,1420.8a.769.769,0,1,0-.769.771A.77.77,0,0,0,814.7,1420.8Z" transform="translate(-783.521 -1398.622)" fill="#412d28" fill-rule="evenodd"/>
          <path id="패스_1724" data-name="패스 1724" d="M893.318,1428.231a.769.769,0,1,0-.769.771A.771.771,0,0,0,893.318,1428.231Z" transform="translate(-872.412 -1405.085)" fill="#412d28" fill-rule="evenodd"/>
          <g id="그룹_16151" data-name="그룹 16151" transform="translate(36.404 16.677)">
            <path id="패스_1725" data-name="패스 1725" d="M746.347,1387.191a.3.3,0,0,0,0-.6,4.657,4.657,0,0,1-3.113-2.554.3.3,0,1,0-.545.258A5.175,5.175,0,0,0,746.347,1387.191Z" transform="translate(-742.659 -1383.861)" fill="#4f352f"/>
          </g>
          <g id="그룹_16152" data-name="그룹 16152" transform="translate(40.999 19.971)">
            <path id="패스_1726" data-name="패스 1726" d="M705.163,1417.517h.012a4.014,4.014,0,0,0,3.29-2.23,5.215,5.215,0,0,0,.157-4.975,2.452,2.452,0,0,0-1.79-1.227,2.231,2.231,0,0,0-1.9.632.3.3,0,0,0,.426.427,1.616,1.616,0,0,1,1.39-.461,1.845,1.845,0,0,1,1.346.924,4.6,4.6,0,0,1-.157,4.387,3.425,3.425,0,0,1-2.788,1.921.3.3,0,0,0,.012.6Z" transform="translate(-704.845 -1409.063)" fill="#4f352f"/>
          </g>
          <g id="그룹_16153" data-name="그룹 16153" transform="translate(41.134 23.088)">
            <path id="패스_1727" data-name="패스 1727" d="M724.079,1434.883a.3.3,0,0,0,.274-.177,2.809,2.809,0,0,1,.939-1.2.3.3,0,1,0-.18-.576,3.142,3.142,0,0,0-1.308,1.527.3.3,0,0,0,.15.4A.306.306,0,0,0,724.079,1434.883Z" transform="translate(-723.777 -1432.915)" fill="#4f352f"/>
          </g>
          <g id="그룹_16154" data-name="그룹 16154" transform="translate(40.699 29.091)">
            <path id="패스_1728" data-name="패스 1728" d="M731.335,1489.923a.3.3,0,0,0,.288-.392c-1.05-3.351-.6-9.646-.55-10.352a.3.3,0,1,0-.6-.046c-.055.719-.509,7.12.575,10.578A.3.3,0,0,0,731.335,1489.923Z" transform="translate(-730.331 -1478.853)" fill="#4f352f"/>
          </g>
          <g id="그룹_16155" data-name="그룹 16155" transform="translate(24.265 38.6)">
            <path id="패스_1729" data-name="패스 1729" d="M859.2,1558.38a.3.3,0,0,0,.3-.26,55.236,55.236,0,0,0,.338-6.205.3.3,0,1,0-.6,0,54.521,54.521,0,0,1-.332,6.121.3.3,0,0,0,.257.34A.357.357,0,0,0,859.2,1558.38Z" transform="translate(-858.902 -1551.613)" fill="#4f352f"/>
          </g>
          <g id="그룹_16156" data-name="그룹 16156" transform="translate(34.736 9.048)">
            <path id="패스_1730" data-name="패스 1730" d="M774.944,1332.945a.3.3,0,0,0,.251-.134c1.231-1.847,1.048-4.981.516-7.1a.3.3,0,0,0-.585.146c.541,2.162.617,5.048-.433,6.623a.3.3,0,0,0,.251.469Z" transform="translate(-774.643 -1325.48)" fill="#4f352f"/>
          </g>
          <g id="그룹_16157" data-name="그룹 16157" transform="translate(23.594 8.809)">
            <path id="패스_1731" data-name="패스 1731" d="M806.612,1331.6a.3.3,0,0,0,0-.6c-4.39-.04-7.476-3.876-8.785-7.149a.3.3,0,1,0-.559.224c1.378,3.446,4.651,7.485,9.339,7.528Z" transform="translate(-797.249 -1323.656)" fill="#4f352f"/>
          </g>
          <g id="그룹_16158" data-name="그룹 16158" transform="translate(20.6 9.26)">
            <path id="패스_1732" data-name="패스 1732" d="M855.259,1335.187a.3.3,0,0,0,.011-.6c-1.093-.041-4.675-.68-4.9-7.192a.315.315,0,0,0-.312-.291.3.3,0,0,0-.291.312c.2,5.588,2.96,7.679,5.483,7.774Z" transform="translate(-849.764 -1327.1)" fill="#4f352f"/>
          </g>
          <g id="그룹_16159" data-name="그룹 16159" transform="translate(16.549 8.988)">
            <path id="패스_1733" data-name="패스 1733" d="M883.834,1333.745a.3.3,0,0,0,.009-.6,5.061,5.061,0,0,1-3.862-1.624c-1.152-1.332-1.617-3.52-1.312-6.159a.3.3,0,0,0-.6-.07c-.324,2.81.192,5.161,1.455,6.623a5.64,5.64,0,0,0,4.3,1.833Z" transform="translate(-877.975 -1325.022)" fill="#4f352f"/>
          </g>
          <g id="그룹_16160" data-name="그룹 16160" transform="translate(13.374 6.977)">
            <path id="패스_1734" data-name="패스 1734" d="M928.64,1321.562a.3.3,0,0,0,.215-.513c-2.059-2.088-2.032-7.973.814-10.906a.3.3,0,1,0-.432-.421c-3.109,3.2-3.093,9.437-.812,11.75A.3.3,0,0,0,928.64,1321.562Z" transform="translate(-926.799 -1309.632)" fill="#4f352f"/>
          </g>
          <g id="그룹_16161" data-name="그룹 16161" transform="translate(43.374 15.171)">
            <path id="패스_1735" data-name="패스 1735" d="M706.024,1377.967a.3.3,0,0,0,.281-.192,17.448,17.448,0,0,0,1.263-5.115.3.3,0,0,0-.279-.323.311.311,0,0,0-.323.279,16.875,16.875,0,0,1-1.223,4.939.3.3,0,0,0,.171.391A.3.3,0,0,0,706.024,1377.967Z" transform="translate(-705.722 -1372.337)" fill="#4f352f"/>
          </g>
          <g id="그룹_16162" data-name="그룹 16162" transform="translate(42.53 5.761)">
            <path id="패스_1736" data-name="패스 1736" d="M694.668,1309.656a.3.3,0,0,0,.232-.109,3.292,3.292,0,0,0,.569-2.746,11.4,11.4,0,0,0-4.1-6.428.3.3,0,0,0-.316.514,10.842,10.842,0,0,1,3.816,6.012,2.721,2.721,0,0,1-.438,2.263.3.3,0,0,0,.232.494Z" transform="translate(-690.914 -1300.329)" fill="#4f352f"/>
          </g>
          <g id="그룹_16163" data-name="그룹 16163" transform="translate(17.066 0)">
            <path id="패스_1737" data-name="패스 1737" d="M739.431,1262.519a.3.3,0,0,0,.274-.177,9.809,9.809,0,0,1,2.966-3.023c5.382-3.848,15.339-3.131,19.728,1.419a.3.3,0,1,0,.435-.418c-4.569-4.738-14.922-5.49-20.514-1.493a10.764,10.764,0,0,0-3.164,3.265.3.3,0,0,0,.274.427Z" transform="translate(-739.13 -1256.245)" fill="#4f352f"/>
          </g>
          <g id="그룹_16164" data-name="그룹 16164" transform="translate(41.484 2.532)">
            <path id="패스_1738" data-name="패스 1738" d="M725.822,1278.255a.3.3,0,0,0,.213-.088,1.63,1.63,0,0,0,.4-1.5,1.358,1.358,0,0,0-.726-1.023.3.3,0,0,0-.219.562.831.831,0,0,1,.355.584,1.045,1.045,0,0,1-.238.952.3.3,0,0,0,.213.516Z" transform="translate(-725.3 -1275.62)" fill="#4f352f"/>
          </g>
          <g id="그룹_16165" data-name="그룹 16165" transform="translate(43.393 10.447)">
            <path id="패스_1739" data-name="패스 1739" d="M709.005,1340.883a.3.3,0,0,0,.211-.087,4.1,4.1,0,0,0,.464-4.475.3.3,0,0,0-.505.33,3.521,3.521,0,0,1-.382,3.716.3.3,0,0,0,.211.517Z" transform="translate(-708.704 -1336.185)" fill="#4f352f"/>
          </g>
          <g id="그룹_16166" data-name="그룹 16166" transform="translate(27.187 37.983)">
            <path id="패스_1740" data-name="패스 1740" d="M729.82,1576.823a.3.3,0,0,0,.3-.252,7.584,7.584,0,0,0-.262-2.829,6.476,6.476,0,0,1-.236-2.541,6.123,6.123,0,0,1,1.483-2.5c.11-.134.218-.265.322-.395a17.623,17.623,0,0,0,2.4-4.561,9.249,9.249,0,0,0,.445-2.673,5.749,5.749,0,0,1,.828-3.206,21.1,21.1,0,0,1,3.715-3.48,22.663,22.663,0,0,0,4.008-3.78c.594-.792,1.829-2.44.644-3.626a.3.3,0,0,0-.426.427c.752.753.032,1.859-.7,2.838a22.264,22.264,0,0,1-3.9,3.671,21.866,21.866,0,0,0-3.821,3.588,6.291,6.291,0,0,0-.947,3.528,8.815,8.815,0,0,1-.407,2.5,17.047,17.047,0,0,1-2.3,4.4c-.1.128-.208.257-.316.388a6.65,6.65,0,0,0-1.609,2.764,6.991,6.991,0,0,0,.238,2.788,7.156,7.156,0,0,1,.256,2.6.3.3,0,0,0,.248.347A.266.266,0,0,0,729.82,1576.823Z" transform="translate(-728.961 -1546.894)" fill="#4f352f"/>
          </g>
          <g id="그룹_16167" data-name="그룹 16167" transform="translate(24.003 41.215)">
            <path id="패스_1741" data-name="패스 1741" d="M837.647,1591.246a.3.3,0,0,0,.131-.03.3.3,0,0,0,.141-.4,8.327,8.327,0,0,1-.608-3.429,14.525,14.525,0,0,0-.2-2.228,39.372,39.372,0,0,0-1.5-5.1,39.832,39.832,0,0,1-1.454-4.917,4.475,4.475,0,0,1,.276-3.076.3.3,0,1,0-.54-.27,5.094,5.094,0,0,0-.328,3.464,40.292,40.292,0,0,0,1.475,4.994,38.9,38.9,0,0,1,1.475,5.022,14.057,14.057,0,0,1,.188,2.136,8.9,8.9,0,0,0,.668,3.668A.3.3,0,0,0,837.647,1591.246Z" transform="translate(-833.419 -1571.624)" fill="#4f352f"/>
          </g>
          <g id="그룹_16168" data-name="그룹 16168" transform="translate(32.743 36.119)">
            <path id="패스_1742" data-name="패스 1742" d="M702.919,1551.382a.733.733,0,0,0,.428-.124c1.172-.817,3.494-5.4,3.947-6.316a22.738,22.738,0,0,1,1.354-2.351,4.124,4.124,0,0,0,.815-1.761c.1-.914-.9-1.989-1.637-2.773-.153-.163-.287-.306-.384-.422a10.267,10.267,0,0,1-1.269-2.3c-.53-1.176-1.03-2.286-1.827-2.667a.3.3,0,0,0-.26.544c.6.286,1.076,1.345,1.537,2.37a10.69,10.69,0,0,0,1.357,2.444c.1.122.244.273.405.446.579.619,1.549,1.656,1.478,2.294a3.71,3.71,0,0,1-.722,1.5,23.263,23.263,0,0,0-1.387,2.408c-1.318,2.648-2.989,5.557-3.753,6.09-.122.088-.88-.061-1.888-1.5a12.809,12.809,0,0,1-.834-1.485,10.076,10.076,0,0,0-1.255-2.063,2.242,2.242,0,0,0-3.233-.5.3.3,0,1,0,.38.468,1.662,1.662,0,0,1,2.4.434,9.7,9.7,0,0,1,1.169,1.936,13.3,13.3,0,0,0,.878,1.559C701.507,1550.877,702.348,1551.382,702.919,1551.382Z" transform="translate(-695.68 -1532.635)" fill="#4f352f"/>
          </g>
          <g id="그룹_16169" data-name="그룹 16169" transform="translate(20.393 38.392)">
            <path id="패스_1743" data-name="패스 1743" d="M857.664,1565.662a.531.531,0,0,0,.108-.011c.661-.141,1.291-1.538,2.246-4.98a1.283,1.283,0,0,1,.515-.8.9.9,0,0,1,.714,0,.3.3,0,0,0,.2-.57,1.462,1.462,0,0,0-1.191.038,1.77,1.77,0,0,0-.8,1.128c-1.03,3.711-1.552,4.451-1.761,4.578-.331-.445-.358-3.191-.243-4.057a6.282,6.282,0,0,0-.143-2.263,5.384,5.384,0,0,1-.132-1.955,3.773,3.773,0,0,1,.8-1.187,12.856,12.856,0,0,0,1.065-1.427,7.134,7.134,0,0,0,.69-1.729,4.655,4.655,0,0,1,.879-1.888.3.3,0,1,0-.444-.408,5.166,5.166,0,0,0-1.013,2.123,6.689,6.689,0,0,1-.627,1.586,12.326,12.326,0,0,1-1.016,1.359,3.663,3.663,0,0,0-.931,1.489,5.946,5.946,0,0,0,.138,2.156,5.687,5.687,0,0,1,.135,2.065c-.039.3-.25,3.953.464,4.614A.514.514,0,0,0,857.664,1565.662Z" transform="translate(-856.527 -1550.029)" fill="#4f352f"/>
          </g>
          <g id="그룹_16170" data-name="그룹 16170" transform="translate(46.064 44.016)">
            <path id="패스_1744" data-name="패스 1744" d="M545.328,1616.679a.289.289,0,0,0,.05,0,.3.3,0,0,0,.248-.347c-.295-1.766-1.8-7.841-2.667-9.518-2.266-4.369-7.4-6.887-12.371-9.323q-.838-.411-1.667-.822a58.3,58.3,0,0,1-5.918-3.55.3.3,0,1,0-.334.5,58.973,58.973,0,0,0,5.983,3.588q.829.413,1.671.824c4.88,2.392,9.928,4.867,12.1,9.059a55.683,55.683,0,0,1,2.608,9.339A.3.3,0,0,0,545.328,1616.679Z" transform="translate(-522.535 -1593.064)" fill="#4f352f"/>
          </g>
          <g id="그룹_16171" data-name="그룹 16171" transform="translate(0 44.895)">
            <path id="패스_1745" data-name="패스 1745" d="M892.444,1622.567a.3.3,0,0,0,.295-.237c1.263-5.74,3.359-13.681,6.957-16.364a23.311,23.311,0,0,1,6.755-2.941,25.912,25.912,0,0,0,6.416-2.683.3.3,0,0,0-.334-.5,25.457,25.457,0,0,1-6.265,2.61,23.714,23.714,0,0,0-6.932,3.033c-3.76,2.8-5.9,10.883-7.186,16.717a.3.3,0,0,0,.294.366Z" transform="translate(-892.142 -1599.79)" fill="#4f352f"/>
          </g>
          <g id="그룹_16172" data-name="그룹 16172" transform="translate(55.093 53.723)">
            <path id="패스_1746" data-name="패스 1746" d="M567.472,1681.406a.3.3,0,0,0,.29-.219l.3-1.061a45.987,45.987,0,0,1,2.8-7.922c.224-.48,2.247-4.682,4.172-4.23a.3.3,0,0,0,.362-.224.3.3,0,0,0-.224-.362c-2.276-.534-4.293,3.355-4.857,4.561a46.463,46.463,0,0,0-2.836,8.016l-.3,1.058a.3.3,0,0,0,.208.373A.313.313,0,0,0,567.472,1681.406Z" transform="translate(-567.171 -1667.338)" fill="#4f352f"/>
          </g>
          <g id="그룹_16173" data-name="그룹 16173" transform="translate(5.074 55.722)">
            <path id="패스_1747" data-name="패스 1747" d="M1004.889,1694.749a.3.3,0,0,0,.3-.3c0-1.6-.143-3.739-.282-5.806-.137-2.039-.278-4.148-.278-5.7a.3.3,0,0,0-.6,0c0,1.572.142,3.691.28,5.741s.28,4.186.28,5.766A.3.3,0,0,0,1004.889,1694.749Z" transform="translate(-1004.027 -1682.64)" fill="#4f352f"/>
          </g>
          <g id="그룹_16174" data-name="그룹 16174" transform="translate(24.68 37.28)">
            <path id="패스_1748" data-name="패스 1748" d="M739.615,1547.205a11.464,11.464,0,0,0,1.672-.127,18.837,18.837,0,0,0,9.877-5.083.3.3,0,1,0-.485-.358,18.45,18.45,0,0,1-9.479,4.844,8.131,8.131,0,0,1-6.282-1.375.3.3,0,1,0-.362.483A8.234,8.234,0,0,0,739.615,1547.205Z" transform="translate(-734.434 -1541.514)" fill="#4f352f"/>
          </g>
        </g>
      </g>
    </g>
    <g transform="matrix(1, 0, 0, 1, 298, 148)" filter="url(#타원_6)">
      <circle id="타원_6-2" data-name="타원 6" cx="7.5" cy="7.5" r="7.5" transform="translate(54 58.37)" fill="#ff958f"/>
    </g>
    <g id="그룹_16030" data-name="그룹 16030" transform="translate(356.968 211.339)">
      <rect id="사각형_6" data-name="사각형 6" width="1.429" height="5" rx="0.714" transform="translate(1.734 0)" fill="#fff"/>
      <rect id="사각형_7" data-name="사각형 7" width="1.429" height="5" rx="0.714" transform="translate(5 1.786) rotate(90)" fill="#fff"/>
    </g>
  </g>
</svg>
