<svg xmlns="http://www.w3.org/2000/svg" width="119.475" height="198.305" viewBox="0 0 119.475 198.305">
  <g id="그룹_16231" data-name="그룹 16231" transform="translate(0)">
    <path id="패스_1749" data-name="패스 1749" d="M671.919,315.033a9.244,9.244,0,0,0,.912,3.708,5.5,5.5,0,0,0,2.552,2.006,3.073,3.073,0,0,0-2.249,1.52,12.364,12.364,0,0,0-.912,4.195,10.45,10.45,0,0,0-1.094-4.012,3.763,3.763,0,0,0-2.431-1.641,3.6,3.6,0,0,0,2.128-1.7A12.714,12.714,0,0,0,671.919,315.033Z" transform="translate(-644.814 -275.94)" fill="#fff"/>
    <path id="패스_1750" data-name="패스 1750" d="M754.2,373.027a3.993,3.993,0,0,0,.487,1.884,2.688,2.688,0,0,0,1.276,1.034,1.6,1.6,0,0,0-1.155.79,5.866,5.866,0,0,0-.486,2.127,5.739,5.739,0,0,0-.547-2.006,1.853,1.853,0,0,0-1.216-.851,2.081,2.081,0,0,0,1.094-.851A7.271,7.271,0,0,0,754.2,373.027Z" transform="translate(-736.826 -326.032)" fill="#fff"/>
    <path id="패스_1751" data-name="패스 1751" d="M744.491,224.921a6.216,6.216,0,0,0,.669,2.553,3.936,3.936,0,0,0,1.823,1.4,2.051,2.051,0,0,0-1.58,1.094,8.834,8.834,0,0,0-.669,2.917,7.547,7.547,0,0,0-.729-2.8,2.713,2.713,0,0,0-1.7-1.155,2.333,2.333,0,0,0,1.459-1.216A9.092,9.092,0,0,0,744.491,224.921Z" transform="translate(-726.443 -198.106)" fill="#fff"/>
    <path id="패스_1752" data-name="패스 1752" d="M340.641,648.772s2.006-119.381,1.52-124.912c-.547-5.531-3.465-4.924-5.9-4.194-14.832,4.133-34.951-10.638-35.255,6.565s5.41,122.967,5.41,122.967,9.6.122,18.174.061C333.164,649.076,340.641,648.772,340.641,648.772Z" transform="translate(-261.565 -450.97)" fill="#fff"/>
    <path id="패스_1753" data-name="패스 1753" d="M348.232,136.206a6.626,6.626,0,0,0,3.708-2.492c2.492-3.708,1.824-7.234-.061-8.51-3.769-2.614-4.376-9.969-7.841-12.947a49.87,49.87,0,0,0-15.136-9.3c-3.4-1.276-8.875-1.641-11.61,1.4-1.7,1.884-2.431,4.194-3.282,6.5-2.918,7.476-1.52,13.13-.547,19.633a48.271,48.271,0,0,0,2.553,10.637,53.846,53.846,0,0,0,4.316,8.145,8.683,8.683,0,0,1,.122,6.686,11.169,11.169,0,0,1-2.979,4.133c-.608.486-2.006,1.4-1.459,2.128,1.155,1.763,5.41,3.586,6.99,4.012a43.785,43.785,0,0,0,16.047.973c7.6-1.216,14.771-4.923,14.771-5.349a14.274,14.274,0,0,0-.365-2.37c-.243-1.033-2.614-1.7-4.072-5.167a26.629,26.629,0,0,1-2.188-9.665A25.453,25.453,0,0,1,348.232,136.206Z" transform="translate(-274.687 -91.947)" fill="#fee4d6"/>
    <path id="패스_1754" data-name="패스 1754" d="M343.175,64c.183,0,.547-1.094,1.094-1.276,1.216-.486,1.58.122,2.188-.365.608-.425.912-1.823,1.155-2.492.3-.669.608-.669.912-1.277a7.725,7.725,0,0,0,1.216-4.377,26.524,26.524,0,0,0-1.337-5.349c-.912-2.128-.972-2.8-1.945-4.985-1.094-2.431-2.067-5.714-3.647-8.145a15.5,15.5,0,0,0-4.437-4.012c-2.8-1.945-8.692-2.735-12.036-2.127a14.517,14.517,0,0,0-5.592,2.188c-.486.364-1.094,0-2.188,0a8.138,8.138,0,0,0-4.559.972,9.144,9.144,0,0,0-2.978,3.465c-.182.425-2.857,1.216-4.194,2.735a22.582,22.582,0,0,0-3.89,6.018,9.349,9.349,0,0,0-.547,6.929,10.526,10.526,0,0,1-.243,4.437c-.183,1.155.79,4.559,1.337,6.2a10.461,10.461,0,0,0,2.735,4.863c.061.061,1.216,1.034,1.52.73s-.608-3.4-.182-4.559c.121-.243,1.155.851,1.155.851a1.4,1.4,0,0,0,1.581.3c.912-.365,4.437-3.039,2.8-4.194-1.641-1.094-2.128-3.647-2.492-5.41-.425-2.188.486-6.5,2.188-9.057.973-1.459,2.067-1.7,3.647-1.824,2.431-.182,3.708,2.613,5.045,4.62,1.945,2.8,3.1,4.559,6.139,6.078,2.432,1.216,7.416,2.918,9.6,4.5C338.13,60.049,342.628,64,343.175,64Z" transform="translate(-269.205 -29.222)" fill="#da9289"/>
    <path id="패스_1755" data-name="패스 1755" d="M47.2,605.9s-1.155-6.869-1.338-8.936c-.729-8.692-.729-22.429-.3-22.915,1.337-1.52,8.267-11.124,10.7-10.212,1.884.669.061,6.139,4.559,2.432.912-.79,1.033-1.459,1.459-3.647.425-2.128.061-3.891,1.155-6.5A20.753,20.753,0,0,0,64.71,548.7c-.243-.729-1.641-1.459-1.519-1.763s.243-2.857.364-3.708c.243-1.823.182-8.51.3-10.394.365-9.6.73-22.125-1.216-30.028a22.294,22.294,0,0,0-6.686-11.549c-5.41-4.5-12.826-6.747-15.622-8.024-1.216-.547-8.328-4.437-10.88-7.051-2.371-2.492-4.924-5.714-8.814-6.564-.972-.183-1.033.425-.669,1.216a13.764,13.764,0,0,0,4.437,5.9c.608.425.547,3.161.608,5.592.061,2.492-.486,11.306-.486,14.284s-2.37,27.9-2.8,42.793c-.3,11.123.912,22.065,1.216,33.066.3,9.726,1.033,22.126,1.459,26.807a59.4,59.4,0,0,1,.243,7.9s6.261-.121,11.853-.486C42.22,606.449,47.2,605.9,47.2,605.9Z" transform="translate(54.241 -409.437)" fill="#f7c667"/>
    <path id="패스_1756" data-name="패스 1756" d="M595.4,558.013c-.608-8.449-.182-17.81-1.459-26.259a270.3,270.3,0,0,1-2.979-27.232c-.182-3.1-.425-8.206-.243-12.461.183-4.012.79-7.172.851-7.963.182-1.58-.365-2.249.547-2.857.851-.608,3.708-2.979,4.194-4.924.182-.669,1.276-2.736.486-3.282-.608-.425-3.464,1.641-4.012,2.188-1.945,1.884-2.553,4.984-4.5,6.322a43.763,43.763,0,0,1-7.477,4.255c-3.465,1.276-7.9,1.884-12.218,3.525-3.4,1.276-7.111,3.282-8.692,5.957-1.52,2.553-3.283,10.881-4.559,17.506-1.52,7.72-2.675,16.473-3.829,24.253a45.158,45.158,0,0,0-.3,6.99,13.949,13.949,0,0,1,.183,2.37,16.613,16.613,0,0,0-.3,1.7,20.831,20.831,0,0,0,.547,6.078A53.48,53.48,0,0,1,554.858,563c.425,1.519,1.155,2.857,2.31,2.978s.729-1.034,2.431-.547c4.5,1.4,10.7,4.133,11.367,8.388.486,3.039-.243,22.672-1.4,29.177-.3,1.7-1.155,6.382-1.155,6.382s7.415.486,14.1.79,12.643.3,12.643.3,1.216-20.546,1.277-37.2C596.556,565.976,595.7,561.843,595.4,558.013Z" transform="translate(-550.486 -412.364)" fill="#f7c667"/>
    <path id="패스_1757" data-name="패스 1757" d="M167.565,933.9a15.471,15.471,0,0,0-4.012-7.719,20.487,20.487,0,0,0-12.522-6.14,33.433,33.433,0,0,0-9,.668c-1.4.547-.182-1.337.182-1.945s.79-.851.851-1.641c.061-.851-.243-2.128.729-3.161.547-.608,2.006-1.338,2.006-1.641s.487-3.282-.061-3.222c-.547,0-2.31.608-3.647.79a38.589,38.589,0,0,1-6.93-.121,31.866,31.866,0,0,0-6.808-.061,38.719,38.719,0,0,0-6.99,1.277c-3.708.912-7.9,2.006-12.157,2.979a118.43,118.43,0,0,1-13.8,1.823c-1.7.183-2.674.3-4.255.547-.3.061-1.58-2.249-2.066-3.039-1.4-2.31-3.465-4.984-4.863-5.775-2.8-1.641-8.084-5.227-12.765-6.565a20.006,20.006,0,0,0-8.084.061c-1.52.365-1.277,2.614-.365,3.161,1.094.608,3.16,1.337,2.8,1.337a9.865,9.865,0,0,1-1.277-.061c-2.066.121-5.713,1.154-7.051,2.431a1.563,1.563,0,0,0-.425.972c-.122.425,1.4,1.094,1.4,1.094a14.983,14.983,0,0,0-1.155,1.58c-.851,1.52,1.338,2.128,2.31,2.432.547.182.973,0,.851.425s-1.034,1.4.912,2.857a23.583,23.583,0,0,0,4.68,2.006c.73.243-.911,1.459-1.216,1.823-.608.669-1.7,1.52-2.8,2.8a17.925,17.925,0,0,0-2.553,4.316c-.851,2.37,2.006,11.428,3.951,13.372,1.519,1.52,2.917,1.824,5.531,1.884,4.376.061,9.725-.182,13.8-.425,4.984-.3,12.157-1.581,16.29-3.282,2.006-.851,2.8-1.823,3.343-1.459,1.276.729,7.416,2.431,11.306,3.161,5.957,1.094,12.278,2.006,18.174,2.857a109.773,109.773,0,0,0,17.324,1.459c2.675,0,8.328,1.763,11,.973,3.89-1.094,5.9-7.537,6.382-8.753A14.136,14.136,0,0,0,167.565,933.9Z" transform="translate(-53.659 -781.692)" fill="#fee4d6"/>
    <g id="그룹_16184" data-name="그룹 16184" transform="translate(53.463 38.523)">
      <path id="패스_1758" data-name="패스 1758" d="M482.668,319.019a.378.378,0,0,0,.365-.243.382.382,0,0,0-.182-.486c-1.884-.79-1.762-1.4-1.4-2.674a12.815,12.815,0,0,0,.365-1.763,4.97,4.97,0,0,0-.668-2.431l-.183-.365a.367.367,0,0,0-.668.3l.183.365a5.483,5.483,0,0,1,.608,2.067,11.345,11.345,0,0,1-.3,1.641c-.365,1.337-.73,2.553,1.823,3.586Z" transform="translate(-480.275 -310.851)" fill="#714449"/>
    </g>
    <g id="그룹_16185" data-name="그룹 16185" transform="translate(39.368 45.034)">
      <path id="패스_1759" data-name="패스 1759" d="M378.519,376.522a5.872,5.872,0,0,0,1.034-.061c7.537-.608,13.737-8.327,15.135-15.2.061-.182-.061-.365-.3-.425-.183-.061-.365.061-.426.3-1.337,6.626-7.294,14.1-14.467,14.649-9.3.729-14.406-8.814-17.08-16.9a.384.384,0,1,0-.729.243C364.417,367.1,369.4,376.522,378.519,376.522Z" transform="translate(-361.666 -358.635)" fill="#714449"/>
    </g>
    <g id="그룹_16186" data-name="그룹 16186" transform="translate(38.034 34.218)">
      <path id="패스_1760" data-name="패스 1760" d="M604.608,285.47h.061a.457.457,0,0,0,.3-.425,42.592,42.592,0,0,1-.73-5.471.336.336,0,1,0-.669.061,35.5,35.5,0,0,0,.79,5.532C604.3,285.348,604.426,285.47,604.608,285.47Z" transform="translate(-603.563 -279.258)" fill="#714449"/>
    </g>
    <g id="그룹_16187" data-name="그룹 16187" transform="translate(58.203 29.414)">
      <path id="패스_1761" data-name="패스 1761" d="M413.293,246.259c.122,0,.182-.061.3-.121,1.642-1.885,4.559-1.52,6.079-.973a.384.384,0,1,0,.243-.729c-1.641-.547-4.923-.973-6.868,1.216a.322.322,0,0,0,.061.486C413.172,246.259,413.233,246.259,413.293,246.259Z" transform="translate(-412.966 -243.995)" fill="#714449"/>
    </g>
    <g id="그룹_16188" data-name="그룹 16188" transform="translate(43.493 31.161)">
      <path id="패스_1762" data-name="패스 1762" d="M526.551,258.8a.367.367,0,0,0,.243-.061,5.086,5.086,0,0,1,5.41-.729.367.367,0,0,0,.3-.669,5.887,5.887,0,0,0-6.14.851.322.322,0,0,0-.06.486C526.308,258.735,526.43,258.8,526.551,258.8Z" transform="translate(-526.223 -256.821)" fill="#714449"/>
    </g>
    <path id="패스_1763" data-name="패스 1763" d="M425.783,298c-.061-.973-.608-1.7-1.216-1.7-.608.061-1.033.851-.912,1.823.061.973.608,1.7,1.216,1.7C425.479,299.761,425.9,298.971,425.783,298Z" transform="translate(-361.842 -259.756)" fill="#714449"/>
    <path id="패스_1764" data-name="패스 1764" d="M538.31,307.813c-.061-.972-.608-1.7-1.216-1.7-.608.061-1.033.851-.912,1.823.061.973.608,1.7,1.216,1.7C537.946,309.637,538.372,308.786,538.31,307.813Z" transform="translate(-489.687 -268.234)" fill="#714449"/>
    <g id="그룹_16189" data-name="그룹 16189" transform="translate(73.308 32.818)">
      <path id="패스_1765" data-name="패스 1765" d="M312.13,280.358h0c3.282-.243,5.288-5.227,5.106-7.72a4.731,4.731,0,0,0-1.519-3.161,2.251,2.251,0,0,0-1.763-.486,2.944,2.944,0,0,0-2.066,1.216,1.853,1.853,0,0,1-.487.486.344.344,0,1,0,.487.486,2.608,2.608,0,0,0,.547-.608,2.033,2.033,0,0,1,1.641-.972,1.526,1.526,0,0,1,1.155.3,3.93,3.93,0,0,1,1.216,2.674c.182,2.188-1.641,6.687-4.377,6.93a.392.392,0,0,0-.365.365C311.766,280.175,311.948,280.358,312.13,280.358Z" transform="translate(-311.286 -268.976)" fill="#714449"/>
    </g>
    <g id="그룹_16190" data-name="그룹 16190" transform="translate(73.772 36.213)">
      <path id="패스_1766" data-name="패스 1766" d="M333.435,298.17a.385.385,0,0,0,.364-.3,7.837,7.837,0,0,1,1.7-3.4.347.347,0,1,0-.547-.426,9.35,9.35,0,0,0-1.884,3.708c-.061.183.061.365.3.425Z" transform="translate(-333.054 -293.892)" fill="#714449"/>
    </g>
    <g id="그룹_16191" data-name="그룹 16191" transform="translate(72.231 49.123)">
      <path id="패스_1767" data-name="패스 1767" d="M320.169,407.057a.465.465,0,0,0,.3-.121.317.317,0,0,0-.061-.486c-4.255-3.4-6.383-9.908-5.775-17.445a.336.336,0,1,0-.668-.061c-.608,7.78,1.641,14.588,6.078,18.114Z" transform="translate(-313.871 -388.639)" fill="#714449"/>
    </g>
    <g id="그룹_16192" data-name="그룹 16192" transform="translate(41.548 58.65)">
      <path id="패스_1768" data-name="패스 1768" d="M550.2,469.092a.223.223,0,0,0,.182-.061c3.039-2.127,5.532-6.5,4.255-10.212a.384.384,0,1,0-.729.243c1.094,3.343-1.155,7.416-4.012,9.361a.321.321,0,0,0-.061.486A.525.525,0,0,0,550.2,469.092Z" transform="translate(-549.755 -458.561)" fill="#714449"/>
    </g>
    <g id="그룹_16193" data-name="그룹 16193" transform="translate(99.18 164.613)">
      <path id="패스_1769" data-name="패스 1769" d="M148.133,1268.383h.061a.457.457,0,0,0,.3-.425,131.532,131.532,0,0,1-1.763-29.055c0-.851.061-1.581.061-2.31a.365.365,0,1,0-.729,0c0,.729-.061,1.459-.061,2.31-.182,6.808-.547,17.141,1.763,29.177A.386.386,0,0,0,148.133,1268.383Z" transform="translate(-145.868 -1236.228)" fill="#714449"/>
    </g>
    <g id="그룹_16194" data-name="그룹 16194" transform="translate(17.607 161.756)">
      <path id="패스_1770" data-name="패스 1770" d="M740.319,1250.515a.385.385,0,0,0,.365-.3c2.614-11.124,2.553-26.441,2.492-32.945v-1.641a.365.365,0,1,0-.729,0v1.641c.061,6.5.121,21.761-2.492,32.763a.346.346,0,0,0,.243.425A.189.189,0,0,0,740.319,1250.515Z" transform="translate(-739.938 -1215.26)" fill="#714449"/>
    </g>
    <g id="그룹_16195" data-name="그룹 16195" transform="translate(20.95 102.84)">
      <path id="패스_1771" data-name="패스 1771" d="M705.307,802.4h.061a.457.457,0,0,0,.3-.425c-.486-2.918-.973-5.653-1.155-6.322-1.094-4.62-2.188-8.692-3.4-12.522a.384.384,0,1,0-.729.244c1.155,3.768,2.249,7.841,3.4,12.461.182.669.668,3.4,1.155,6.322C704.942,802.28,705.125,802.4,705.307,802.4Z" transform="translate(-700.368 -782.874)" fill="#714449"/>
    </g>
    <g id="그룹_16196" data-name="그룹 16196" transform="translate(41.506 69.705)">
      <path id="패스_1772" data-name="패스 1772" d="M328.423,545.977c8.145,0,16.229-2.431,20.788-5.653a.347.347,0,0,0-.426-.547c-7.72,5.531-26.259,8.692-36.592.912a.346.346,0,0,0-.425.547C316.266,544.64,322.344,545.977,328.423,545.977Z" transform="translate(-311.641 -539.692)" fill="#714449"/>
    </g>
    <g id="그룹_16197" data-name="그룹 16197" transform="translate(94.311 73.476)">
      <path id="패스_1773" data-name="패스 1773" d="M44.614,631.393a.367.367,0,0,0,.243-.061c.486-.425.547-1.824.547-4.681,0-.972,0-2.066.061-3.1v-.608c.425-11.67.973-27.6-.851-34.525-.972-3.708-2.188-8.388-5.349-11.488-4.5-4.5-11-7.234-17.324-9.543a.384.384,0,1,0-.243.729c6.261,2.25,12.643,4.985,17.08,9.361,2.978,2.978,4.194,7.537,5.167,11.184,1.824,6.808,1.216,23.4.851,34.343v.608c-.061,1.033-.061,2.067-.061,3.1,0,1.7,0,3.83-.3,4.133a.321.321,0,0,0-.06.486A.63.63,0,0,0,44.614,631.393Z" transform="translate(-21.433 -567.366)" fill="#714449"/>
    </g>
    <g id="그룹_16198" data-name="그룹 16198" transform="translate(0.202 72.934)">
      <path id="패스_1774" data-name="패스 1774" d="M666.344,624.8a.385.385,0,0,0,.365-.3c.06-.182-.061-.364-.3-.425-.669-.608-.3-8.388,2.309-24.01,2.128-12.825,4.62-23.949,5.774-25.772,3.343-5.41,8.875-6.869,15.926-8.692,1.763-.486,3.647-.973,5.592-1.52a.347.347,0,1,0-.182-.669c-1.945.547-3.768,1.033-5.531,1.52-7.172,1.884-12.886,3.343-16.351,9-2.432,3.951-10.029,46.075-8.206,50.33a.816.816,0,0,0,.547.547Z" transform="translate(-665.456 -563.393)" fill="#714449"/>
    </g>
    <g id="그룹_16199" data-name="그룹 16199" transform="translate(50.158 50.46)">
      <path id="패스_1775" data-name="패스 1775" d="M459.183,401.13a27.1,27.1,0,0,1-4.863.669c-3.1.182-5.106.3-5.106.3s2.493,3.647,5.592,3.465C457.846,405.446,459.183,401.13,459.183,401.13Z" transform="translate(-448.865 -400.766)" fill="#fff"/>
      <path id="패스_1776" data-name="패스 1776" d="M452.051,403.682h.243c3.282-.182,4.681-4.559,4.741-4.741a.4.4,0,0,0-.061-.365.447.447,0,0,0-.365-.122,26.907,26.907,0,0,1-4.8.668l-5.106.3a.334.334,0,0,0-.3.182.388.388,0,0,0,0,.365C446.52,400.218,448.891,403.682,452.051,403.682Zm4.073-4.316c-.486,1.155-1.763,3.465-3.83,3.586-2.127.121-4.012-1.823-4.863-2.735l4.437-.3A28.4,28.4,0,0,0,456.124,399.367Z" transform="translate(-446.353 -398.455)" fill="#714449"/>
    </g>
    <g id="그룹_16200" data-name="그룹 16200" transform="translate(73.606 60.489)">
      <path id="패스_1777" data-name="패스 1777" d="M310.784,538.923a.392.392,0,0,0,.365-.365c.3-7.72.851-15.561,1.4-23.1.607-8.145,1.215-16.594,1.459-24.922,0-.668.061-1.337.061-2.066.243-4.559.486-9.726-2.188-13.434-.243-.3-2.127-2.978-3.4-2.978a.365.365,0,0,0,0,.729c.547,0,1.885,1.4,2.8,2.675,2.492,3.465,2.249,8.51,2.006,12.947-.061.73-.061,1.4-.061,2.067-.243,8.327-.851,16.715-1.459,24.861-.547,7.6-1.155,15.439-1.4,23.159a.516.516,0,0,0,.425.425Z" transform="translate(-308.109 -472.06)" fill="#714449"/>
    </g>
    <g id="그룹_16201" data-name="그룹 16201" transform="translate(76.948 163.094)">
      <path id="패스_1778" data-name="패스 1778" d="M312.545,1259.905h0a.392.392,0,0,0,.365-.364c-.061-5.714-.486-11.549-.851-17.141-.365-5.531-.73-11.306-.851-16.959a.392.392,0,0,0-.365-.364h0a.392.392,0,0,0-.365.364c.061,5.653.487,11.428.851,17.02s.73,11.367.851,17.08A.322.322,0,0,0,312.545,1259.905Z" transform="translate(-310.478 -1225.076)" fill="#714449"/>
    </g>
    <g id="그룹_16202" data-name="그룹 16202" transform="translate(39.905 62.047)">
      <path id="패스_1779" data-name="패스 1779" d="M556.946,555.848a.392.392,0,0,0,.365-.365,198.712,198.712,0,0,0-2.067-24.8c-1.155-9.422-2.37-19.147-1.945-28.751a7.736,7.736,0,0,1,.061-1.155c.182-5.288.547-14.163,5.471-16.594a.367.367,0,0,0-.3-.668c-5.349,2.674-5.653,11.792-5.835,17.263a5.933,5.933,0,0,1-.061,1.094c-.425,9.665.79,19.39,1.945,28.873a196.835,196.835,0,0,1,2.067,24.679A.331.331,0,0,0,556.946,555.848Z" transform="translate(-552.544 -483.492)" fill="#714449"/>
    </g>
    <g id="그룹_16203" data-name="그룹 16203" transform="translate(44.478 157.927)">
      <path id="패스_1780" data-name="패스 1780" d="M552.643,1227.458a.35.35,0,0,0,.365-.365c.79-10.638,1.216-34.708,1.216-39.571a.365.365,0,0,0-.729,0c0,4.863-.425,28.873-1.216,39.51a.342.342,0,0,0,.365.426Z" transform="translate(-552.266 -1187.158)" fill="#714449"/>
    </g>
    <g id="그룹_16204" data-name="그룹 16204" transform="translate(74.153 59.942)">
      <path id="패스_1781" data-name="패스 1781" d="M205.683,506.523a.392.392,0,0,0,.365-.365c0-2.8,5.713-15.925,7.78-19.086a8.887,8.887,0,0,1,4.924-3.708c.061,0,.182-.061.243-.061.668-.182,1.945-.608,1.7-1.7-.182-.79-1.155-1.216-2.066-1.58a4.026,4.026,0,0,1-.729-.365c-.729-.486-1.58-.912-2.371-1.337a21.9,21.9,0,0,1-4.984-3.4c-.426-.425-.851-.912-1.337-1.4-2.31-2.432-5.106-5.471-8.328-5.471a.365.365,0,0,0,0,.729c2.918,0,5.593,2.918,7.78,5.288.486.486.912.973,1.338,1.4a23.509,23.509,0,0,0,5.167,3.525c.79.425,1.58.851,2.31,1.337a4.907,4.907,0,0,0,.79.365c.608.243,1.58.669,1.641,1.094s-.3.608-1.215.912c-.122,0-.182.061-.243.061a9.728,9.728,0,0,0-5.288,4.012c-2.006,3.039-7.9,16.351-7.9,19.511A.511.511,0,0,0,205.683,506.523Z" transform="translate(-200.516 -468.046)" fill="#714449"/>
    </g>
    <g id="그룹_16205" data-name="그룹 16205" transform="translate(29.064 60.258)">
      <path id="패스_1782" data-name="패스 1782" d="M565.49,510.408h.06a.457.457,0,0,0,.3-.425c-.669-3.465-6.99-16.473-8.51-19.208a10.168,10.168,0,0,0-1.033-1.58c-1.034-1.4-1.824-2.553-1.095-4.437a21.627,21.627,0,0,1,3.1-2.067c2.431-1.459,5.167-3.1,5.957-4.316.3-.486.608-.912.851-1.4,1.641-2.614,2.857-4.68,5.9-5.9a.367.367,0,0,0-.3-.669c-3.222,1.277-4.62,3.526-6.261,6.139-.3.426-.547.912-.851,1.4-.729,1.094-3.465,2.8-5.714,4.133-2.371,1.4-3.222,2.006-3.4,2.431-.912,2.249.122,3.647,1.155,5.106a13.334,13.334,0,0,1,1.034,1.52c1.459,2.614,7.781,15.682,8.449,19.026A.5.5,0,0,0,565.49,510.408Z" transform="translate(-554.136 -470.362)" fill="#714449"/>
    </g>
    <g id="그룹_16206" data-name="그룹 16206" transform="translate(35.263 22.362)">
      <path id="패스_1783" data-name="패스 1783" d="M596.817,206.3a.315.315,0,0,0,.243-.122.37.37,0,0,0,0-.486c-4.377-4.255-5.835-8.51-4.5-13.008.061-.182-.061-.425-.243-.425a.413.413,0,0,0-.486.243c-1.459,4.8.061,9.3,4.68,13.737A.55.55,0,0,0,596.817,206.3Z" transform="translate(-591.299 -192.24)" fill="#714449"/>
    </g>
    <g id="그룹_16207" data-name="그룹 16207" transform="translate(58.941 19.565)">
      <path id="패스_1784" data-name="패스 1784" d="M377.928,185.411a.334.334,0,0,0,.3-.182.328.328,0,0,0-.122-.486c-6.382-4.438-10.7-8.935-12.035-12.7v-.061a.384.384,0,1,0-.729.243v.061c1.4,3.89,5.774,8.51,12.339,13.007C377.806,185.351,377.867,185.411,377.928,185.411Z" transform="translate(-365.33 -171.719)" fill="#714449"/>
    </g>
    <g id="그룹_16208" data-name="그룹 16208" transform="translate(41.401 2.151)">
      <path id="패스_1785" data-name="패스 1785" d="M418.9,54.291a.385.385,0,0,0,.365-.3c.061-.182-.122-.364-.3-.426a12.4,12.4,0,0,1-4.863-1.58,29.469,29.469,0,0,1-3.769-3.039c-2.553-2.249-5.228-4.62-8.935-4.984a9.436,9.436,0,0,0-7.6,2.8,5.151,5.151,0,0,0-1.155,4.8.346.346,0,0,0,.668-.182,4.469,4.469,0,0,1,.972-4.133,8.539,8.539,0,0,1,6.99-2.553c3.465.365,5.9,2.553,8.51,4.863a37.156,37.156,0,0,0,3.83,3.1,14.08,14.08,0,0,0,5.288,1.641Z" transform="translate(-392.473 -43.911)" fill="#714449"/>
    </g>
    <g id="그룹_16209" data-name="그룹 16209" transform="translate(76.822 27.666)">
      <path id="패스_1786" data-name="패스 1786" d="M314.436,237.063a.334.334,0,0,0,.3-.182,7,7,0,0,0,1.276-5.41.37.37,0,1,0-.729.122,6.451,6.451,0,0,1-1.155,4.863.368.368,0,0,0,.06.486C314.314,237.063,314.375,237.063,314.436,237.063Z" transform="translate(-314.066 -231.167)" fill="#714449"/>
    </g>
    <g id="그룹_16210" data-name="그룹 16210" transform="translate(45.097 13.442)">
      <path id="패스_1787" data-name="패스 1787" d="M438.394,142.158a.335.335,0,0,0,.3-.183.319.319,0,0,0-.122-.486c-1.095-.608-2.128-1.033-3.1-1.52-2.31-1.033-4.5-2.006-6.382-4.133a33.567,33.567,0,0,1-2.067-2.918c-1.884-2.917-3.951-6.139-7.355-6.139a.365.365,0,1,0,0,.73c2.978,0,4.984,3.1,6.686,5.836a26.238,26.238,0,0,0,2.128,3.039,17.322,17.322,0,0,0,6.626,4.316c.972.425,2.006.912,3.039,1.459C438.272,142.1,438.333,142.158,438.394,142.158Z" transform="translate(-419.307 -126.779)" fill="#714449"/>
    </g>
    <g id="그룹_16211" data-name="그룹 16211" transform="translate(41.215 15.266)">
      <path id="패스_1788" data-name="패스 1788" d="M555.764,156.575a.317.317,0,0,0,.243-.121.37.37,0,0,0,0-.486c-2.918-2.918-2.31-7.233-1.459-10.637.487-2.067,1.7-4.438,3.343-4.438a.365.365,0,0,0,0-.729c-2.614,0-3.769,3.829-4.012,4.984-.851,3.282-1.58,8.084,1.7,11.306C555.581,156.575,555.7,156.575,555.764,156.575Z" transform="translate(-553.158 -140.163)" fill="#714449"/>
    </g>
    <g id="그룹_16212" data-name="그룹 16212" transform="translate(38.776 28.03)">
      <path id="패스_1789" data-name="패스 1789" d="M583.67,239.921a.315.315,0,0,0,.243-.121.369.369,0,0,0,0-.486,9.369,9.369,0,0,1-3.039-5.167.37.37,0,1,0-.729.122,10.418,10.418,0,0,0,3.221,5.532A.335.335,0,0,0,583.67,239.921Z" transform="translate(-580.146 -233.843)" fill="#714449"/>
    </g>
    <g id="그룹_16213" data-name="그룹 16213" transform="translate(52.489 0)">
      <path id="패스_1790" data-name="패스 1790" d="M330.894,43.272h.3a.3.3,0,0,0,.3-.365c-.06-.182-.182-.364-.365-.3-2.31.182-3.525-2.674-4.559-5.167a14.353,14.353,0,0,0-1.337-2.735c-3.83-5.471-10.638-6.93-15.8-6.5-1.884.183-4.073.426-5.592,1.642a.346.346,0,1,0,.425.547c1.337-1.094,3.282-1.337,5.167-1.52,4.924-.426,11.488.972,15.136,6.2a16.911,16.911,0,0,1,1.216,2.553C326.943,40.111,328.22,43.272,330.894,43.272Z" transform="translate(-303.7 -28.128)" fill="#714449"/>
    </g>
    <g id="그룹_16214" data-name="그룹 16214" transform="translate(77.25 15.932)">
      <path id="패스_1791" data-name="패스 1791" d="M301.088,159.764c.121,0,.182-.061.3-.122,2.614-3.1,2.188-7.963-1.276-14.406a.354.354,0,0,0-.608.365c3.282,6.139,3.769,10.759,1.4,13.616a.317.317,0,0,0,.061.486C300.905,159.7,301.027,159.764,301.088,159.764Z" transform="translate(-299.444 -145.051)" fill="#714449"/>
    </g>
    <g id="그룹_16215" data-name="그룹 16215" transform="translate(32.416 7.469)">
      <path id="패스_1792" data-name="패스 1792" d="M592.7,103.143a.334.334,0,0,0,.3-.182c1.033-1.52.669-3.282.365-4.924a10.529,10.529,0,0,1-.3-3.039c.486-3.647,3.708-10.03,7.537-11.306a.384.384,0,1,0-.243-.729c-4.194,1.4-7.537,7.963-8.023,11.914a9.678,9.678,0,0,0,.3,3.222c.3,1.641.608,3.161-.243,4.376a.329.329,0,0,0,.122.486A.194.194,0,0,0,592.7,103.143Z" transform="translate(-592.296 -82.947)" fill="#714449"/>
    </g>
    <g id="그룹_16216" data-name="그룹 16216" transform="translate(33.415 30.389)">
      <path id="패스_1793" data-name="패스 1793" d="M613.466,260.041a.365.365,0,1,0,0-.729c-.426,0-1.155-.669-1.641-1.276a11.53,11.53,0,0,1-2.614-6.565.37.37,0,0,0-.729.122,12.426,12.426,0,0,0,2.735,6.929C611.46,258.764,612.494,260.041,613.466,260.041Z" transform="translate(-608.47 -251.155)" fill="#714449"/>
    </g>
    <g id="그룹_16217" data-name="그룹 16217" transform="translate(48.539 152.684)">
      <path id="패스_1794" data-name="패스 1794" d="M110.875,1161.335a6.212,6.212,0,0,0,3.951-1.094c2.492-2.188,4.376-5.775,5.592-11.124a.347.347,0,1,0-.669-.182c-1.216,5.166-2.978,8.692-5.41,10.758-1.763,1.52-5.532.851-8.874.3a20.718,20.718,0,0,0-4.316-.486c-9.3.486-41.212-4.924-45.892-7.233a.367.367,0,1,0-.3.669c4.741,2.371,36.957,7.78,46.257,7.355a20.139,20.139,0,0,1,4.194.487A41.72,41.72,0,0,0,110.875,1161.335Z" transform="translate(-54.748 -1148.676)" fill="#714449"/>
    </g>
    <g id="그룹_16218" data-name="그룹 16218" transform="translate(5.572 138.294)">
      <path id="패스_1795" data-name="패스 1795" d="M248.761,1066.652h0A152.5,152.5,0,0,0,267.3,1065.5c9.726-1.277,18.236-6.382,26.5-11.367,3.526-2.127,7.173-4.315,10.82-6.2,3.769-1.885,7.781-2.614,11.731-3.282,1.459-.244,2.918-.547,4.437-.851a.37.37,0,1,0-.122-.729c-1.459.3-2.918.608-4.377.851-3.951.73-8.084,1.4-11.914,3.343-3.708,1.824-7.355,4.073-10.88,6.2-8.145,4.924-16.594,10.03-26.2,11.245a151.335,151.335,0,0,1-18.418,1.155h0c-1.519,0-5.106,0-6.2-1.155-2.553-2.553-3.343-6.261-4.072-9.847-.182-.912-.365-1.885-.608-2.8a.347.347,0,0,0-.669.182c.243.912.426,1.823.608,2.735.79,3.708,1.581,7.537,4.316,10.212C243.412,1066.652,246.877,1066.652,248.761,1066.652Z" transform="translate(-237.318 -1043.068)" fill="#714449"/>
    </g>
    <g id="그룹_16219" data-name="그룹 16219" transform="translate(91.902 102.188)">
      <path id="패스_1796" data-name="패스 1796" d="M198.427,806.653a.341.341,0,0,0,.365-.3c.122-1.52.3-3.161.486-4.8.73-7.477,1.58-15.926,1.58-23.1a.365.365,0,1,0-.729,0c0,7.172-.851,15.621-1.581,23.037-.182,1.641-.3,3.222-.486,4.8q0,.273.365.365Z" transform="translate(-198.062 -778.084)" fill="#714449"/>
    </g>
    <g id="그룹_16220" data-name="그룹 16220" transform="translate(8.505 118.477)">
      <path id="패스_1797" data-name="패스 1797" d="M650.322,912.585a.463.463,0,0,0,.3-.122c.425-.547-1.52-2.856-1.52-2.856a16.587,16.587,0,0,1-1.094-1.52,8.956,8.956,0,0,0-3.1-3.282,44.247,44.247,0,0,1-4.741-2.8c-3.526-2.249-6.869-4.376-11.792-4.376h-.608c-1.4,0-3.526-.061-4.559.729a2.276,2.276,0,0,0-.912,1.884,2.042,2.042,0,0,0,.912,1.58,16.2,16.2,0,0,0,5.9,1.58,26.87,26.87,0,0,1,4.316.912,8.82,8.82,0,0,1,1.884,1.094,6.735,6.735,0,0,0,3.343,1.458.365.365,0,1,0,0-.729,6.4,6.4,0,0,1-2.979-1.337,11.746,11.746,0,0,0-2.067-1.155,24.434,24.434,0,0,0-4.5-.972c-2.006-.3-4.133-.608-5.592-1.52a1.031,1.031,0,0,1-.547-.972,1.528,1.528,0,0,1,.608-1.277c.851-.608,2.857-.608,4.073-.547h.608c4.68,0,7.963,2.066,11.367,4.255,1.52.972,3.039,1.945,4.8,2.857a9.2,9.2,0,0,1,2.857,3.039,15.021,15.021,0,0,0,1.155,1.58,17.6,17.6,0,0,1,1.4,2.066.314.314,0,0,0,.182.426C650.14,912.524,650.262,912.585,650.322,912.585Z" transform="translate(-622.301 -897.631)" fill="#714449"/>
    </g>
    <g id="그룹_16221" data-name="그룹 16221" transform="translate(3.202 123.219)">
      <path id="패스_1798" data-name="패스 1798" d="M801.868,937.48a.365.365,0,0,0,0-.73c-.73,0-1.155-.243-1.276-.547-.061-.365.3-.912,1.094-1.277a18.673,18.673,0,0,1,7.294-1.763.365.365,0,1,0,0-.729,18.893,18.893,0,0,0-7.6,1.823,2.108,2.108,0,0,0-1.52,2.067C800.045,937.055,800.774,937.48,801.868,937.48Z" transform="translate(-799.847 -932.435)" fill="#714449"/>
    </g>
    <g id="그룹_16222" data-name="그룹 16222" transform="translate(3.342 127.725)">
      <path id="패스_1799" data-name="패스 1799" d="M732.644,970.238a.365.365,0,0,0,0-.729c-1.52,0-2.857-.608-3.039-1.337-.122-.486.3-1.094,1.276-1.641.729-.425,2.432-.364,3.647-.3.426,0,.79.061,1.094.061,4.377,0,7.842.547,11.731,3.4a.347.347,0,0,0,.426-.547c-4.012-2.918-7.659-3.525-12.157-3.525a6.192,6.192,0,0,1-1.033-.061c-1.4-.061-3.161-.182-4.073.426-1.581.972-1.763,1.884-1.581,2.492C729.179,969.448,730.76,970.238,732.644,970.238Z" transform="translate(-728.879 -965.505)" fill="#714449"/>
    </g>
    <g id="그룹_16223" data-name="그룹 16223" transform="translate(6.263 131.594)">
      <path id="패스_1800" data-name="패스 1800" d="M739.5,999.866a.385.385,0,0,0,.365-.3c.061-.182-.121-.365-.3-.425a11.961,11.961,0,0,1-5.592-2.432,1.434,1.434,0,0,1-.365-1.337.645.645,0,0,1,.547-.547c3.829-.972,10.82,1.276,13.616,3.708a.347.347,0,1,0,.425-.547c-3.039-2.613-10.212-4.863-14.284-3.829a1.532,1.532,0,0,0-1.094,1.094,2.362,2.362,0,0,0,.608,2.067,12.959,12.959,0,0,0,6.079,2.553Z" transform="translate(-732.758 -993.896)" fill="#714449"/>
    </g>
    <g id="그룹_16224" data-name="그룹 16224" transform="translate(11.711 126.972)">
      <path id="패스_1801" data-name="패스 1801" d="M215.785,972.149h.122c8.753-2.492,17.81-3.4,26.5-4.316,3.829-.364,7.841-.79,11.792-1.337a108.842,108.842,0,0,0,11.732-2.553,91.608,91.608,0,0,1,12.765-2.674,43.989,43.989,0,0,1,6.93.061c3.343.243,6.869.486,10.09-.608a.384.384,0,1,0-.243-.729c-3.1,1.033-6.382.79-9.847.547a39.038,39.038,0,0,0-7.051-.061,100.992,100.992,0,0,0-12.887,2.675,104.81,104.81,0,0,1-11.671,2.553c-3.951.547-7.9.973-11.792,1.337-8.753.912-17.81,1.824-26.624,4.316a.346.346,0,0,0-.243.425C215.481,972.088,215.6,972.149,215.785,972.149Z" transform="translate(-215.344 -959.976)" fill="#714449"/>
    </g>
    <g id="그룹_16225" data-name="그룹 16225" transform="translate(87.586 130.02)">
      <path id="패스_1802" data-name="패스 1802" d="M41.627,1010.859h.122a4.722,4.722,0,0,0,2.492-1.763,11.41,11.41,0,0,0,1.58-5.714c.061-.79.182-1.58.3-2.371.182-.851.486-1.763.73-2.553a26.452,26.452,0,0,0,.851-2.917,3.139,3.139,0,0,1,.121-.669c.243-1.277.608-3.1-.3-4.012a15.238,15.238,0,0,0-3.282-2.31c-6.625-3.708-11.853-5.532-17.567-6.078-2.857-.243-5.835-.365-7.963,1.763a3.838,3.838,0,0,0-.912,2.735,7.266,7.266,0,0,1-.182,1.216,2.149,2.149,0,0,1-.608.973,2.956,2.956,0,0,0-.79,1.7.365.365,0,0,0,.73,0,2.469,2.469,0,0,1,.608-1.276,3.338,3.338,0,0,0,.73-1.277,10.178,10.178,0,0,0,.182-1.337,3.145,3.145,0,0,1,.729-2.249c1.884-1.884,4.68-1.823,7.416-1.58,5.592.547,10.759,2.31,17.2,5.957a14.641,14.641,0,0,1,3.161,2.188c.669.668.3,2.25.121,3.343a3.148,3.148,0,0,0-.121.668,14.69,14.69,0,0,1-.79,2.8,19.371,19.371,0,0,0-.79,2.675,16.578,16.578,0,0,0-.3,2.431,10.685,10.685,0,0,1-1.459,5.349,4.242,4.242,0,0,1-1.945,1.458.357.357,0,0,1-.3-.122,1.193,1.193,0,0,1,.243-.486,4.843,4.843,0,0,0,1.459-3.4A13.486,13.486,0,0,0,39.5,997.3,20.145,20.145,0,0,0,27.768,990.5a34.906,34.906,0,0,0-6.626-.243c-.851,0-1.763.061-2.614.061a.365.365,0,0,0,0,.73c.912,0,1.763-.061,2.674-.061a28.611,28.611,0,0,1,6.443.243,19.235,19.235,0,0,1,11.306,6.565,12.681,12.681,0,0,1,3.4,8.206,4.093,4.093,0,0,1-1.216,2.917,1.624,1.624,0,0,0-.486.973.66.66,0,0,0,.243.547A.738.738,0,0,0,41.627,1010.859Z" transform="translate(-16.218 -982.343)" fill="#714449"/>
    </g>
    <g id="그룹_16226" data-name="그룹 16226" transform="translate(0 130.842)">
      <path id="패스_1803" data-name="패스 1803" d="M804.4,1011.51h.243c.547-.121.79-.425.729-.851a4.13,4.13,0,0,0-.911-1.945,3.388,3.388,0,0,1-.79-2.614c.729-3.829,3.769-8.024,6.99-9.543a.367.367,0,1,0-.3-.668c-3.4,1.641-6.626,6.078-7.416,10.09a4.039,4.039,0,0,0,.912,3.161,3.735,3.735,0,0,1,.79,1.641h0a.47.47,0,0,0-.182.061c-.182.061-.73-.426-1.034-.912a9.216,9.216,0,0,1-1.155-3.283,17.85,17.85,0,0,0-.608-2.249c-.365-.972-.79-1.945-1.155-2.857-1.7-3.951-3.343-7.719.061-11.306a7.054,7.054,0,0,1,1.459-1.216c.182-.122.244-.365.122-.486a.4.4,0,0,0-.486-.122,14.61,14.61,0,0,0-1.58,1.276c-3.708,3.951-1.945,8.084-.182,12.1.425.912.79,1.884,1.155,2.8a13.668,13.668,0,0,1,.547,2.127,9.476,9.476,0,0,0,1.216,3.465C802.815,1010.294,803.605,1011.51,804.4,1011.51Z" transform="translate(-797.896 -988.375)" fill="#714449"/>
    </g>
    <g id="그룹_16230" data-name="그룹 16230" transform="translate(71.029 126.078)">
      <path id="패스_1804" data-name="패스 1804" d="M282.9,957.441c.426.426.972-.729,1.885-.121,3.343,2.31,4.862,8.875,4.437,12.765-.122,1.033-1.763.912-1.58,1.337.3.79,5.41-.425,5.957-.608.73-.3.912-3.039.851-3.708-.243-3.708-1.52-8.388-4.8-10.7C288.921,955.8,281.566,956.1,282.9,957.441Z" transform="translate(-282.333 -955.741)" fill="#fff"/>
      <g id="그룹_16227" data-name="그룹 16227" transform="translate(0)">
        <path id="패스_1805" data-name="패스 1805" d="M286.422,969.7a16,16,0,0,0,2.006-.182,26.845,26.845,0,0,0,3.1-.73c1.155-.486,1.094-4.072,1.094-4.072-.182-2.371-.973-8.206-4.984-11-.79-.547-6.5-.365-7.355.669a.7.7,0,0,0,.122.973h0c.365.365.851.122,1.094,0,.365-.182.547-.3.851-.061,3.282,2.249,4.681,8.753,4.255,12.4-.061.365-.365.486-.851.668-.3.122-.547.183-.669.426a.515.515,0,0,0,0,.426C285.207,969.461,285.511,969.7,286.422,969.7Zm-.912-15.561a5.4,5.4,0,0,1,1.763.182c3.829,2.675,4.5,8.692,4.619,10.455.061.973-.243,3.221-.669,3.4a20.6,20.6,0,0,1-4.984.851,1.431,1.431,0,0,0,1.094-1.216c.425-3.768-.972-10.576-4.559-13.069a1.438,1.438,0,0,0-1.641,0,.459.459,0,0,1-.243.122v-.061C281.256,954.387,283.748,954.144,285.511,954.144Zm-4.62.668Z" transform="translate(-280.138 -953.417)" fill="#714449"/>
      </g>
      <g id="그룹_16228" data-name="그룹 16228" transform="translate(5.592 0.095)">
        <path id="패스_1806" data-name="패스 1806" d="M293.969,969.458a.334.334,0,0,0,.3-.182c1.216-1.824,1.641-10.091-4.315-15.075a.347.347,0,0,0-.426.547c5.775,4.863,5.045,12.825,4.194,14.1a.329.329,0,0,0,.122.486C293.787,969.458,293.909,969.458,293.969,969.458Z" transform="translate(-289.387 -954.116)" fill="#714449"/>
      </g>
      <g id="그룹_16229" data-name="그룹 16229" transform="translate(2.728 0.271)">
        <path id="패스_1807" data-name="패스 1807" d="M315.6,970.939a.385.385,0,0,0,.365-.3,16.337,16.337,0,0,0-4.68-15.136.344.344,0,0,0-.486.487,15.745,15.745,0,0,1,4.5,14.467c-.06.182.061.365.3.425C315.542,970.939,315.6,970.939,315.6,970.939Z" transform="translate(-310.71 -955.408)" fill="#714449"/>
      </g>
    </g>
  </g>
</svg>
